<?xml version="1.0" encoding="utf-8" standalone="no"?>
<!DOCTYPE svg PUBLIC "-//W3C//DTD SVG 1.1//EN"
  "http://www.w3.org/Graphics/SVG/1.1/DTD/svg11.dtd">
<!-- Created with matplotlib (http://matplotlib.org/) -->
<svg height="720pt" version="1.1" viewBox="0 0 720 720" width="720pt" xmlns="http://www.w3.org/2000/svg" xmlns:xlink="http://www.w3.org/1999/xlink">
 <defs>
  <style type="text/css">
*{stroke-linecap:butt;stroke-linejoin:round;}
  </style>
 </defs>
 <g id="figure_1">
  <g id="patch_1">
   <path d="M 0 720 
L 720 720 
L 720 0 
L 0 0 
z
" style="fill:#ffffff;"/>
  </g>
  <g id="axes_1">
   <g id="patch_2">
    <path d="M 90 630 
L 648 630 
L 648 86.4 
L 90 86.4 
z
" style="fill:#ffffff;"/>
   </g>
   <g id="matplotlib.axis_1">
    <g id="xtick_1">
     <g id="line2d_1">
      <defs>
       <path d="M 0 0 
L 0 3.5 
" id="mcde2e343b5" style="stroke:#000000;stroke-width:0.8;"/>
      </defs>
      <g>
       <use style="stroke:#000000;stroke-width:0.8;" x="115.363636" xlink:href="#mcde2e343b5" y="630"/>
      </g>
     </g>
     <g id="text_1">
      <!-- 0 -->
      <defs>
       <path d="M 31.78125 66.40625 
Q 24.171875 66.40625 20.328125 58.90625 
Q 16.5 51.421875 16.5 36.375 
Q 16.5 21.390625 20.328125 13.890625 
Q 24.171875 6.390625 31.78125 6.390625 
Q 39.453125 6.390625 43.28125 13.890625 
Q 47.125 21.390625 47.125 36.375 
Q 47.125 51.421875 43.28125 58.90625 
Q 39.453125 66.40625 31.78125 66.40625 
z
M 31.78125 74.21875 
Q 44.046875 74.21875 50.515625 64.515625 
Q 56.984375 54.828125 56.984375 36.375 
Q 56.984375 17.96875 50.515625 8.265625 
Q 44.046875 -1.421875 31.78125 -1.421875 
Q 19.53125 -1.421875 13.0625 8.265625 
Q 6.59375 17.96875 6.59375 36.375 
Q 6.59375 54.828125 13.0625 64.515625 
Q 19.53125 74.21875 31.78125 74.21875 
z
" id="DejaVuSans-30"/>
      </defs>
      <g transform="translate(109.001136 652.196875)scale(0.2 -0.2)">
       <use xlink:href="#DejaVuSans-30"/>
      </g>
     </g>
    </g>
    <g id="xtick_2">
     <g id="line2d_2">
      <g>
       <use style="stroke:#000000;stroke-width:0.8;" x="217.021498" xlink:href="#mcde2e343b5" y="630"/>
      </g>
     </g>
     <g id="text_2">
      <!-- 100 -->
      <defs>
       <path d="M 12.40625 8.296875 
L 28.515625 8.296875 
L 28.515625 63.921875 
L 10.984375 60.40625 
L 10.984375 69.390625 
L 28.421875 72.90625 
L 38.28125 72.90625 
L 38.28125 8.296875 
L 54.390625 8.296875 
L 54.390625 0 
L 12.40625 0 
z
" id="DejaVuSans-31"/>
      </defs>
      <g transform="translate(197.933998 652.196875)scale(0.2 -0.2)">
       <use xlink:href="#DejaVuSans-31"/>
       <use x="63.623047" xlink:href="#DejaVuSans-30"/>
       <use x="127.246094" xlink:href="#DejaVuSans-30"/>
      </g>
     </g>
    </g>
    <g id="xtick_3">
     <g id="line2d_3">
      <g>
       <use style="stroke:#000000;stroke-width:0.8;" x="318.679359" xlink:href="#mcde2e343b5" y="630"/>
      </g>
     </g>
     <g id="text_3">
      <!-- 200 -->
      <defs>
       <path d="M 19.1875 8.296875 
L 53.609375 8.296875 
L 53.609375 0 
L 7.328125 0 
L 7.328125 8.296875 
Q 12.9375 14.109375 22.625 23.890625 
Q 32.328125 33.6875 34.8125 36.53125 
Q 39.546875 41.84375 41.421875 45.53125 
Q 43.3125 49.21875 43.3125 52.78125 
Q 43.3125 58.59375 39.234375 62.25 
Q 35.15625 65.921875 28.609375 65.921875 
Q 23.96875 65.921875 18.8125 64.3125 
Q 13.671875 62.703125 7.8125 59.421875 
L 7.8125 69.390625 
Q 13.765625 71.78125 18.9375 73 
Q 24.125 74.21875 28.421875 74.21875 
Q 39.75 74.21875 46.484375 68.546875 
Q 53.21875 62.890625 53.21875 53.421875 
Q 53.21875 48.921875 51.53125 44.890625 
Q 49.859375 40.875 45.40625 35.40625 
Q 44.1875 33.984375 37.640625 27.21875 
Q 31.109375 20.453125 19.1875 8.296875 
z
" id="DejaVuSans-32"/>
      </defs>
      <g transform="translate(299.591859 652.196875)scale(0.2 -0.2)">
       <use xlink:href="#DejaVuSans-32"/>
       <use x="63.623047" xlink:href="#DejaVuSans-30"/>
       <use x="127.246094" xlink:href="#DejaVuSans-30"/>
      </g>
     </g>
    </g>
    <g id="xtick_4">
     <g id="line2d_4">
      <g>
       <use style="stroke:#000000;stroke-width:0.8;" x="420.33722" xlink:href="#mcde2e343b5" y="630"/>
      </g>
     </g>
     <g id="text_4">
      <!-- 300 -->
      <defs>
       <path d="M 40.578125 39.3125 
Q 47.65625 37.796875 51.625 33 
Q 55.609375 28.21875 55.609375 21.1875 
Q 55.609375 10.40625 48.1875 4.484375 
Q 40.765625 -1.421875 27.09375 -1.421875 
Q 22.515625 -1.421875 17.65625 -0.515625 
Q 12.796875 0.390625 7.625 2.203125 
L 7.625 11.71875 
Q 11.71875 9.328125 16.59375 8.109375 
Q 21.484375 6.890625 26.8125 6.890625 
Q 36.078125 6.890625 40.9375 10.546875 
Q 45.796875 14.203125 45.796875 21.1875 
Q 45.796875 27.640625 41.28125 31.265625 
Q 36.765625 34.90625 28.71875 34.90625 
L 20.21875 34.90625 
L 20.21875 43.015625 
L 29.109375 43.015625 
Q 36.375 43.015625 40.234375 45.921875 
Q 44.09375 48.828125 44.09375 54.296875 
Q 44.09375 59.90625 40.109375 62.90625 
Q 36.140625 65.921875 28.71875 65.921875 
Q 24.65625 65.921875 20.015625 65.03125 
Q 15.375 64.15625 9.8125 62.3125 
L 9.8125 71.09375 
Q 15.4375 72.65625 20.34375 73.4375 
Q 25.25 74.21875 29.59375 74.21875 
Q 40.828125 74.21875 47.359375 69.109375 
Q 53.90625 64.015625 53.90625 55.328125 
Q 53.90625 49.265625 50.4375 45.09375 
Q 46.96875 40.921875 40.578125 39.3125 
z
" id="DejaVuSans-33"/>
      </defs>
      <g transform="translate(401.24972 652.196875)scale(0.2 -0.2)">
       <use xlink:href="#DejaVuSans-33"/>
       <use x="63.623047" xlink:href="#DejaVuSans-30"/>
       <use x="127.246094" xlink:href="#DejaVuSans-30"/>
      </g>
     </g>
    </g>
    <g id="xtick_5">
     <g id="line2d_5">
      <g>
       <use style="stroke:#000000;stroke-width:0.8;" x="521.995081" xlink:href="#mcde2e343b5" y="630"/>
      </g>
     </g>
     <g id="text_5">
      <!-- 400 -->
      <defs>
       <path d="M 37.796875 64.3125 
L 12.890625 25.390625 
L 37.796875 25.390625 
z
M 35.203125 72.90625 
L 47.609375 72.90625 
L 47.609375 25.390625 
L 58.015625 25.390625 
L 58.015625 17.1875 
L 47.609375 17.1875 
L 47.609375 0 
L 37.796875 0 
L 37.796875 17.1875 
L 4.890625 17.1875 
L 4.890625 26.703125 
z
" id="DejaVuSans-34"/>
      </defs>
      <g transform="translate(502.907581 652.196875)scale(0.2 -0.2)">
       <use xlink:href="#DejaVuSans-34"/>
       <use x="63.623047" xlink:href="#DejaVuSans-30"/>
       <use x="127.246094" xlink:href="#DejaVuSans-30"/>
      </g>
     </g>
    </g>
    <g id="xtick_6">
     <g id="line2d_6">
      <g>
       <use style="stroke:#000000;stroke-width:0.8;" x="623.652942" xlink:href="#mcde2e343b5" y="630"/>
      </g>
     </g>
     <g id="text_6">
      <!-- 500 -->
      <defs>
       <path d="M 10.796875 72.90625 
L 49.515625 72.90625 
L 49.515625 64.59375 
L 19.828125 64.59375 
L 19.828125 46.734375 
Q 21.96875 47.46875 24.109375 47.828125 
Q 26.265625 48.1875 28.421875 48.1875 
Q 40.625 48.1875 47.75 41.5 
Q 54.890625 34.8125 54.890625 23.390625 
Q 54.890625 11.625 47.5625 5.09375 
Q 40.234375 -1.421875 26.90625 -1.421875 
Q 22.3125 -1.421875 17.546875 -0.640625 
Q 12.796875 0.140625 7.71875 1.703125 
L 7.71875 11.625 
Q 12.109375 9.234375 16.796875 8.0625 
Q 21.484375 6.890625 26.703125 6.890625 
Q 35.15625 6.890625 40.078125 11.328125 
Q 45.015625 15.765625 45.015625 23.390625 
Q 45.015625 31 40.078125 35.4375 
Q 35.15625 39.890625 26.703125 39.890625 
Q 22.75 39.890625 18.8125 39.015625 
Q 14.890625 38.140625 10.796875 36.28125 
z
" id="DejaVuSans-35"/>
      </defs>
      <g transform="translate(604.565442 652.196875)scale(0.2 -0.2)">
       <use xlink:href="#DejaVuSans-35"/>
       <use x="63.623047" xlink:href="#DejaVuSans-30"/>
       <use x="127.246094" xlink:href="#DejaVuSans-30"/>
      </g>
     </g>
    </g>
    <g id="text_7">
     <!-- $i$ -->
     <defs>
      <path d="M 18.3125 75.984375 
L 27.296875 75.984375 
L 25.09375 64.59375 
L 16.109375 64.59375 
z
M 14.203125 54.6875 
L 23.1875 54.6875 
L 12.5 0 
L 3.515625 0 
z
" id="DejaVuSans-Oblique-69"/>
     </defs>
     <g transform="translate(364.8 683.151562)scale(0.3 -0.3)">
      <use transform="translate(0 0.015625)" xlink:href="#DejaVuSans-Oblique-69"/>
     </g>
    </g>
   </g>
   <g id="matplotlib.axis_2">
    <g id="ytick_1">
     <g id="line2d_7">
      <defs>
       <path d="M 0 0 
L -3.5 0 
" id="mab2aa2594f" style="stroke:#000000;stroke-width:0.8;"/>
      </defs>
      <g>
       <use style="stroke:#000000;stroke-width:0.8;" x="90" xlink:href="#mab2aa2594f" y="605.290909"/>
      </g>
     </g>
     <g id="text_8">
      <!-- 0.0 -->
      <defs>
       <path d="M 10.6875 12.40625 
L 21 12.40625 
L 21 0 
L 10.6875 0 
z
" id="DejaVuSans-2e"/>
      </defs>
      <g transform="translate(51.19375 612.889347)scale(0.2 -0.2)">
       <use xlink:href="#DejaVuSans-30"/>
       <use x="63.623047" xlink:href="#DejaVuSans-2e"/>
       <use x="95.410156" xlink:href="#DejaVuSans-30"/>
      </g>
     </g>
    </g>
    <g id="ytick_2">
     <g id="line2d_8">
      <g>
       <use style="stroke:#000000;stroke-width:0.8;" x="90" xlink:href="#mab2aa2594f" y="506.454545"/>
      </g>
     </g>
     <g id="text_9">
      <!-- 0.1 -->
      <g transform="translate(51.19375 514.052983)scale(0.2 -0.2)">
       <use xlink:href="#DejaVuSans-30"/>
       <use x="63.623047" xlink:href="#DejaVuSans-2e"/>
       <use x="95.410156" xlink:href="#DejaVuSans-31"/>
      </g>
     </g>
    </g>
    <g id="ytick_3">
     <g id="line2d_9">
      <g>
       <use style="stroke:#000000;stroke-width:0.8;" x="90" xlink:href="#mab2aa2594f" y="407.618182"/>
      </g>
     </g>
     <g id="text_10">
      <!-- 0.2 -->
      <g transform="translate(51.19375 415.216619)scale(0.2 -0.2)">
       <use xlink:href="#DejaVuSans-30"/>
       <use x="63.623047" xlink:href="#DejaVuSans-2e"/>
       <use x="95.410156" xlink:href="#DejaVuSans-32"/>
      </g>
     </g>
    </g>
    <g id="ytick_4">
     <g id="line2d_10">
      <g>
       <use style="stroke:#000000;stroke-width:0.8;" x="90" xlink:href="#mab2aa2594f" y="308.781818"/>
      </g>
     </g>
     <g id="text_11">
      <!-- 0.3 -->
      <g transform="translate(51.19375 316.380256)scale(0.2 -0.2)">
       <use xlink:href="#DejaVuSans-30"/>
       <use x="63.623047" xlink:href="#DejaVuSans-2e"/>
       <use x="95.410156" xlink:href="#DejaVuSans-33"/>
      </g>
     </g>
    </g>
    <g id="ytick_5">
     <g id="line2d_11">
      <g>
       <use style="stroke:#000000;stroke-width:0.8;" x="90" xlink:href="#mab2aa2594f" y="209.945455"/>
      </g>
     </g>
     <g id="text_12">
      <!-- 0.4 -->
      <g transform="translate(51.19375 217.543892)scale(0.2 -0.2)">
       <use xlink:href="#DejaVuSans-30"/>
       <use x="63.623047" xlink:href="#DejaVuSans-2e"/>
       <use x="95.410156" xlink:href="#DejaVuSans-34"/>
      </g>
     </g>
    </g>
    <g id="ytick_6">
     <g id="line2d_12">
      <g>
       <use style="stroke:#000000;stroke-width:0.8;" x="90" xlink:href="#mab2aa2594f" y="111.109091"/>
      </g>
     </g>
     <g id="text_13">
      <!-- 0.5 -->
      <g transform="translate(51.19375 118.707528)scale(0.2 -0.2)">
       <use xlink:href="#DejaVuSans-30"/>
       <use x="63.623047" xlink:href="#DejaVuSans-2e"/>
       <use x="95.410156" xlink:href="#DejaVuSans-35"/>
      </g>
     </g>
    </g>
    <g id="text_14">
     <!-- $\widehat{q}$ -->
     <defs>
      <path d="M -17.09375 56.40625 
L -27 56.40625 
L -66 70.90625 
L -105.09375 56.40625 
L -115 56.40625 
L -68.40625 77.703125 
L -63.59375 77.703125 
z
" id="STIXSizeTwoSym-Regular-302"/>
      <path d="M 41.703125 8.203125 
Q 38.09375 3.46875 33.171875 1.015625 
Q 28.265625 -1.421875 22.3125 -1.421875 
Q 14.015625 -1.421875 9.296875 4.171875 
Q 4.59375 9.765625 4.59375 19.578125 
Q 4.59375 27.484375 7.5 34.859375 
Q 10.40625 42.234375 15.828125 48.09375 
Q 19.34375 51.90625 23.90625 53.953125 
Q 28.46875 56 33.5 56 
Q 39.546875 56 43.453125 53.609375 
Q 47.359375 51.21875 49.125 46.390625 
L 50.6875 54.59375 
L 59.71875 54.59375 
L 45.125 -20.609375 
L 36.078125 -20.609375 
z
M 13.921875 20.90625 
Q 13.921875 13.671875 16.9375 9.890625 
Q 19.96875 6.109375 25.6875 6.109375 
Q 34.1875 6.109375 40.1875 14.234375 
Q 46.1875 22.359375 46.1875 33.984375 
Q 46.1875 41.015625 43.078125 44.75 
Q 39.984375 48.484375 34.1875 48.484375 
Q 29.9375 48.484375 26.3125 46.5 
Q 22.703125 44.53125 20.015625 40.71875 
Q 17.1875 36.71875 15.546875 31.34375 
Q 13.921875 25.984375 13.921875 20.90625 
z
" id="DejaVuSans-Oblique-71"/>
     </defs>
     <g transform="translate(40.89375 367.8)rotate(-90)scale(0.3 -0.3)">
      <use transform="translate(82.478516 32.5)scale(0.64834)" xlink:href="#STIXSizeTwoSym-Regular-302"/>
      <use transform="translate(0 0.65625)" xlink:href="#DejaVuSans-Oblique-71"/>
     </g>
    </g>
   </g>
   <g id="line2d_13">
    <path clip-path="url(#p1e6f43d135)" d="M 115.363636 605.290909 
L 116.380215 111.109091 
L 117.396794 275.836364 
L 118.413372 358.2 
L 119.429951 407.618182 
L 120.446529 440.563636 
L 121.463108 464.096104 
L 122.479687 481.745455 
L 123.496265 495.472727 
L 124.512844 385.654545 
L 125.529422 407.618182 
L 126.546001 425.58843 
L 127.56258 440.563636 
L 128.579158 453.234965 
L 129.595737 464.096104 
L 130.612316 473.509091 
L 131.628894 481.745455 
L 132.645473 489.012834 
L 134.67863 501.252632 
L 136.711787 511.161039 
L 138.744944 519.346245 
L 140.778102 526.221818 
L 142.811259 532.078788 
L 144.844416 537.1279 
L 146.877573 541.525513 
L 148.910731 545.390083 
L 150.943888 548.812987 
L 152.977045 551.865848 
L 155.010202 554.605594 
L 157.043359 557.078049 
L 160.093095 560.365289 
L 163.142831 563.232882 
L 166.192567 565.756364 
L 169.242303 567.994168 
L 172.292039 569.992208 
L 176.358353 572.345455 
L 180.424668 574.404545 
L 184.490982 576.22139 
L 189.573875 578.212453 
L 194.656768 579.948252 
L 200.75624 581.758442 
L 206.855711 583.327273 
L 213.971762 584.912277 
L 222.104391 586.464935 
L 231.253598 587.951196 
L 241.419384 589.34956 
L 252.601749 590.648485 
L 255.651485 590.966798 
L 256.668063 583.804743 
L 257.684642 583.95932 
L 259.717799 569.73826 
L 267.850428 571.673098 
L 276.999636 573.612587 
L 287.165422 575.52092 
L 293.264893 576.559408 
L 294.281472 570.813108 
L 304.447258 572.707493 
L 305.463837 567.276923 
L 315.629623 569.256818 
L 326.811988 571.209404 
L 337.994352 572.961257 
L 340.02751 563.724214 
L 349.176717 565.401794 
L 350.193296 560.96967 
L 359.342503 562.689028 
L 360.359082 558.42884 
L 364.425396 559.223112 
L 366.458553 550.847149 
L 369.508289 551.530544 
L 371.541447 543.259719 
L 373.574604 543.7745 
L 374.591182 539.673406 
L 375.607761 539.944553 
L 379.674075 523.607964 
L 380.690654 523.944108 
L 382.723811 515.809428 
L 389.839862 518.314909 
L 396.955912 490.640727 
L 403.055383 493.327841 
L 406.105119 481.745455 
L 407.121698 482.226176 
L 408.138277 478.380403 
L 412.204591 480.325392 
L 413.22117 476.538558 
L 416.270905 478.001653 
L 417.287484 474.257851 
L 419.320641 475.243062 
L 420.33722 471.527409 
L 428.469849 475.432913 
L 430.503006 468.21858 
L 431.519585 468.717025 
L 432.536163 465.122975 
L 435.585899 466.635579 
L 439.652214 452.414519 
L 442.701949 454.046652 
L 443.718528 450.529343 
L 447.784842 452.701435 
L 452.867735 435.361722 
L 454.900893 436.545898 
L 458.967207 422.770795 
L 459.983786 423.404545 
L 461.000364 419.972727 
L 462.016943 420.613967 
L 463.033522 417.194023 
L 465.066679 418.486785 
L 466.083257 415.090347 
L 467.099836 415.741719 
L 469.132993 408.972105 
L 470.149572 409.642135 
L 474.215886 396.149116 
L 478.282201 398.96584 
L 480.315358 392.310193 
L 482.348515 393.734813 
L 485.398251 383.818121 
L 488.447987 386.018182 
L 489.464565 382.745455 
L 490.481144 383.479928 
L 493.53088 373.694149 
L 496.580616 375.964706 
L 497.597194 372.734759 
L 502.680087 376.473604 
L 506.746402 363.761532 
L 508.779559 365.30485 
L 510.812716 358.989428 
L 514.879031 362.097333 
L 518.945345 349.625868 
L 523.01166 352.811725 
L 524.028238 349.73271 
L 526.061396 351.315114 
L 527.077974 348.255165 
L 529.111131 349.836923 
L 530.12771 346.795804 
L 532.160867 348.376814 
L 533.177446 345.354295 
L 534.194024 346.146785 
L 535.210603 343.133481 
L 537.24376 344.722314 
L 538.260339 341.727273 
L 541.310075 344.10172 
L 542.326653 341.133661 
L 543.343232 341.924551 
L 544.359811 338.965378 
L 546.392968 340.550649 
L 547.409546 337.609091 
L 555.542175 343.834249 
L 560.625068 329.468499 
L 561.641647 330.267984 
L 564.691383 321.673518 
L 567.741119 324.118495 
L 572.824012 309.917868 
L 573.84059 310.764209 
L 574.857169 307.932222 
L 576.890326 309.626573 
L 578.923483 303.994872 
L 579.940062 304.850826 
L 581.973219 299.235124 
L 585.022955 301.821511 
L 586.039534 299.037388 
L 587.056112 299.897651 
L 588.072691 297.121348 
L 589.089269 297.984568 
L 590.105848 295.216043 
L 593.155584 297.8 
L 594.172163 295.054545 
L 597.221898 297.618482 
L 600.271634 289.450188 
L 601.288213 290.317882 
L 604.337949 282.172028 
L 605.354527 283.057285 
L 606.371106 280.34944 
L 608.404263 282.120238 
L 609.420842 279.427149 
L 614.503735 283.807038 
L 615.520313 281.150147 
L 616.536892 282.019157 
L 617.553471 279.369388 
L 618.570049 280.240836 
L 621.619785 272.312786 
L 622.636364 273.200727 
L 622.636364 273.200727 
" style="fill:none;stroke:#1f77b4;stroke-linecap:square;stroke-width:1.5;"/>
   </g>
   <g id="line2d_14">
    <path clip-path="url(#p1e6f43d135)" d="M 90 555.872727 
L 648 555.872727 
" style="fill:none;stroke:#ff0000;stroke-dasharray:11.1,4.8;stroke-dashoffset:0;stroke-width:3;"/>
   </g>
   <g id="patch_3">
    <path d="M 90 630 
L 90 86.4 
" style="fill:none;stroke:#000000;stroke-linecap:square;stroke-linejoin:miter;stroke-width:0.8;"/>
   </g>
   <g id="patch_4">
    <path d="M 648 630 
L 648 86.4 
" style="fill:none;stroke:#000000;stroke-linecap:square;stroke-linejoin:miter;stroke-width:0.8;"/>
   </g>
   <g id="patch_5">
    <path d="M 90 630 
L 648 630 
" style="fill:none;stroke:#000000;stroke-linecap:square;stroke-linejoin:miter;stroke-width:0.8;"/>
   </g>
   <g id="patch_6">
    <path d="M 90 86.4 
L 648 86.4 
" style="fill:none;stroke:#000000;stroke-linecap:square;stroke-linejoin:miter;stroke-width:0.8;"/>
   </g>
  </g>
 </g>
 <defs>
  <clipPath id="p1e6f43d135">
   <rect height="543.6" width="558" x="90" y="86.4"/>
  </clipPath>
 </defs>
</svg>
