<?xml version="1.0" encoding="iso-8859-1"?>
<!DOCTYPE svg PUBLIC "-//W3C//DTD SVG 1.0//EN" "http://www.w3.org/TR/2001/REC-SVG-20010904/DTD/svg10.dtd">
<!-- Creator: CorelDRAW -->
<svg xmlns="http://www.w3.org/2000/svg" xmlns:odm="http://product.corel.com/CGS/11/cddns/" xmlns:corel-charset="http://product.corel.com/CGS/11/cddns/" xml:space="preserve" width="886px" height="531px" style="shape-rendering:geometricPrecision; text-rendering:geometricPrecision; image-rendering:optimizeQuality; fill-rule:evenodd"
     viewBox="0 0 886 531.6">
 <defs>
  <style type="text/css">
   <![CDATA[
    .str1 {stroke:#FF0000;stroke-width:2.95333;stroke-linejoin:bevel}
    .str0 {stroke:#000000;stroke-width:5.90667}
    .fil0 {fill:none}
    .fil1 {fill:#000000}
    .fil2 {fill:#FF0000}
   ]]>
  </style>
 </defs>
 <g id="Laag_x0020_1">
  <g>
   <path class="fil0 str0" d="M739.369 264.301c-0.451269,49.2864 -4.83402,89.7317 -9.97282,138.893m-3.0821 -342.681c5.7212,43.6113 13.6019,83.4966 13.1919,127.865"/>
   <path class="fil1" d="M745.192 427.839l0 -26.8482 8.1134 0 4.87064 18.3154 4.81275 -18.3154 8.13348 0 0 26.8482 -5.03248 0 0 -21.1352 -5.33254 21.1352 -5.22031 0 -5.31246 -21.1352 0 21.1352 -5.03248 0z"/>
   <path class="fil1" d="M783.619 434.09l-3.43059 0 0 -12.9309c-1.25339,1.17425 -2.72888,2.04134 -4.43,2.60011l0 -3.11281c0.891907,-0.291789 1.86769,-0.845835 2.91789,-1.66332 1.05021,-0.821027 1.77082,-1.77554 2.1583,-2.8671l2.7844 0 0 17.974z"/>
   <path class="fil1" d="M66.196 332.422l0 -26.8493 8.11458 0 4.86946 18.3166 4.81393 -18.3166 8.1323 0 0 26.8493 -5.03248 0 0 -21.1352 -5.33254 21.1352 -5.21913 0 -5.31364 -21.1352 0 21.1352 -5.03248 0z"/>
   <path class="fil1" d="M107.432 335.486l0 3.18842 -12.0272 0c0.133491,-1.20496 0.520968,-2.34613 1.17543,-3.42587 0.649733,-1.07974 1.93739,-2.50915 3.85469,-4.29297 1.54991,-1.43768 2.49616,-2.41701 2.84583,-2.92971 0.471352,-0.707619 0.7088,-1.40815 0.7088,-2.10041 0,-0.76196 -0.204371,-1.35026 -0.616656,-1.76255 -0.412285,-0.412285 -0.979325,-0.616656 -1.70466,-0.616656 -0.717069,0 -1.28293,0.216184 -1.70821,0.646189 -0.421736,0.433549 -0.667453,1.14944 -0.733608,2.15003l-3.4176 -0.341405c0.204371,-1.88777 0.842291,-3.24276 1.9173,-4.06733 1.07501,-0.821027 2.41701,-1.23331 4.02953,-1.23331 1.76727,0 3.15534,0.47844 4.16302,1.42941 1.00886,0.953336 1.51329,2.13703 1.51329,3.55463 0,0.804488 -0.145304,1.57117 -0.433549,2.30006 -0.287064,0.728883 -0.745421,1.49202 -1.37153,2.28824 -0.415829,0.529237 -1.16598,1.2912 -2.24571,2.28352 -1.08328,0.99232 -1.77082,1.65505 -2.05906,1.97991 -0.287064,0.324867 -0.524512,0.641464 -0.704075,0.949792l6.81393 0z"/>
   <path class="fil0 str1" d="M23.114 98.5622l706.655 -4.03071 -682.304 169.697 814.794 -36.4111"/>
   <path class="fil0 str1" d="M26.5977 379.911l705.244 1.47785 -686.292 -166.146 816.206 20.0059"/>
   <g>
    <path class="fil2" d="M449.958 166.171l1.43414 -0.434731 -0.852923 -2.82575 -1.43414 0.434731z"/>
    <path class="fil2" d="M426.197 171.831l28.3402 4.8411 -7.46012 -24.6119 -20.8801 19.7708 0 0z"/>
   </g>
   <g>
    <path class="fil2" d="M361.783 248.576l-1.49793 0.0484347 0.092144 2.95333 1.49793 -0.0484347z"/>
    <path class="fil2" d="M386.201 249.265l-26.1193 -12.0165 0.830477 25.7035 25.2888 -13.6869 0 0z"/>
   </g>
   <g>
    <path class="fil2" d="M430.093 308.239l1.45304 0.367395 0.715888 -2.86119 -1.45304 -0.367395z"/>
    <path class="fil2" d="M406.809 300.831l21.7814 18.7667 6.30478 -24.9332 -28.0862 6.16656 0 0z"/>
   </g>
   <g>
    <path class="fil2" d="M356.628 220.644l-1.48966 -0.163024 -0.311872 2.92971 1.48966 0.163024z"/>
    <path class="fil2" d="M380.711 224.76l-24.1665 -15.5759 -2.7974 25.5652 26.9639 -9.98935 0 0z"/>
   </g>
   <g>
    <path class="fil2" d="M124.843 380.601l-1.49911 0 0 2.95333 1.49911 0z"/>
    <path class="fil2" d="M149.215 382.077l-25.7176 -12.8541 0 25.7164 25.7176 -12.8624 0 0z"/>
   </g>
   <g>
    <path class="fil2" d="M122.151 96.828l-1.49793 0 0 2.95333 1.49793 0z"/>
    <path class="fil2" d="M146.523 98.3047l-25.7176 -12.8541 0 25.7164 25.7176 -12.8624 0 0z"/>
   </g>
   <path class="fil0 str0" d="M48.652 178.166c-9.48965,38.7336 -9.24157,79.7376 0.733608,118.352"/>
   <path class="fil1" d="M785.869 217.382l0 -26.8493 18.4099 0 0 4.54459 -12.984 0 0 6.35085 11.2085 0 0 4.54459 -11.2085 0 0 11.4093 -5.42586 0z"/>
   <path class="fil1" d="M283.553 451.096l0 -4.52569 11.6846 0 0 10.6958c-1.13762,1.09982 -2.78204,2.0697 -4.93915,2.90726 -2.15593,0.831659 -4.33786,1.24985 -6.54459,1.24985 -2.80685,0 -5.25693,-0.587123 -7.34553,-1.76255 -2.08742,-1.18133 -3.65741,-2.86355 -4.70761,-5.05729 -1.05021,-2.19492 -1.57472,-4.57649 -1.57472,-7.15179 0,-2.79385 0.587123,-5.28174 1.75664,-7.45776 1.17543,-2.16893 2.88836,-3.83815 5.15061,-4.99468 1.71884,-0.894269 3.86414,-1.33727 6.42645,-1.33727 3.33254,0 5.93856,0.699349 7.80743,2.09332 1.87596,1.40106 3.0821,3.33254 3.61961,5.80153l-5.38215 1.0065c-0.381571,-1.31837 -1.09391,-2.36267 -2.13821,-3.12581 -1.04312,-0.76196 -2.34377,-1.14353 -3.90667,-1.14353 -2.36857,0 -4.25044,0.750147 -5.6515,2.25044 -1.39988,1.5062 -2.09332,3.73183 -2.09332,6.68871 0,3.18133 0.706437,5.57589 2.12522,7.16951 1.41287,1.5948 3.26875,2.38866 5.5629,2.38866 1.13881,0 2.27643,-0.225635 3.41996,-0.668635 1.13762,-0.444181 2.11931,-0.987595 2.93798,-1.61961l0 -3.40697 -6.20791 0z"/>
   <path class="fil1" d="M305.127 460.967l-5.14471 0 0 -19.4483 4.77613 0 0 2.76314c0.818664,-1.30655 1.55582,-2.16893 2.20673,-2.58121 0.65564,-0.412285 1.39397,-0.624925 2.22445,-0.624925 1.17543,0 2.30124,0.324867 3.38806,0.9746l-1.59362 4.48198c-0.862373,-0.556408 -1.66922,-0.837565 -2.41228,-0.837565 -0.725339,0 -1.33254,0.193739 -1.83225,0.594211 -0.506792,0.393384 -0.894269,1.11282 -1.18133,2.15003 -0.287064,1.03839 -0.431187,3.21323 -0.431187,6.51978l0 6.00826z"/>
   <path class="fil1" d="M326.055 454.778l5.13289 0.856467c-0.662728,1.88186 -1.70112,3.31364 -3.12581,4.29415 -1.41878,0.987595 -3.20023,1.47549 -5.33845,1.47549 -3.38216,0 -5.88304,-1.09982 -7.50737,-3.31246 -1.28175,-1.76964 -1.92557,-4.00708 -1.92557,-6.7017 0,-3.22622 0.843472,-5.75073 2.5316,-7.57707 1.68104,-1.82516 3.81334,-2.73715 6.38865,-2.73715 2.89427,0 5.17542,0.955699 6.85173,2.86946 1.66804,1.91258 2.46899,4.83756 2.40047,8.78203l-12.8966 0c0.0378027,1.5251 0.450088,2.71352 1.24394,3.55699 0.793856,0.85056 1.78736,1.27584 2.96869,1.27584 0.806851,0 1.48257,-0.218547 2.03189,-0.656821 0.550501,-0.444181 0.968693,-1.15062 1.24394,-2.12522zm0.294152 -5.20141c-0.0378027,-1.49321 -0.419373,-2.62492 -1.15062,-3.39988 -0.731245,-0.776136 -1.62551,-1.16361 -2.67572,-1.16361 -1.12463,0 -2.04961,0.413467 -2.78086,1.23213 -0.731245,0.812757 -1.09391,1.92557 -1.0821,3.33136l7.6893 0z"/>
   <path class="fil1" d="M335.183 462.249l5.87595 0.712344c0.100413,0.687536 0.324867,1.15653 0.674541,1.41287 0.487891,0.368576 1.26285,0.54932 2.30714,0.54932 1.34436,0 2.35085,-0.199645 3.02539,-0.606024 0.450088,-0.268163 0.793856,-0.700531 1.0254,-1.30065 0.155936,-0.424099 0.237448,-1.21205 0.237448,-2.36267l0 -2.83756c-1.5381,2.10041 -3.48139,3.15062 -5.82634,3.15062 -2.61311,0 -4.68162,-1.10691 -6.20673,-3.31364 -1.19433,-1.75074 -1.79445,-3.91966 -1.79445,-6.51978 0,-3.26284 0.787949,-5.75073 2.35676,-7.47666 1.56881,-1.71884 3.51919,-2.58121 5.85114,-2.58121 2.40047,0 4.38865,1.05611 5.95156,3.16952l0 -2.72652 4.81275 0 0 17.4542c0,2.29415 -0.187832,4.00708 -0.568221,5.14471 -0.375664,1.13762 -0.907264,2.02481 -1.58771,2.67572 -0.687536,0.643827 -1.60071,1.14944 -2.73833,1.51801 -1.14471,0.362669 -2.5883,0.550501 -4.33195,0.550501 -3.30065,0 -5.6385,-0.568221 -7.01476,-1.69403 -1.38098,-1.13172 -2.06851,-2.56231 -2.06851,-4.29415 0,-0.174837 0.00590667,-0.381571 0.0189013,-0.624925zm4.59421 -11.4093c0,2.06261 0.400472,3.5759 1.20023,4.53278 0.800944,0.955699 1.78145,1.43768 2.95688,1.43768 1.25694,0 2.31896,-0.493797 3.18842,-1.47549 0.862373,-0.981688 1.30065,-2.43827 1.30065,-4.36975 0,-2.01299 -0.419373,-3.50738 -1.25103,-4.48198 -0.824571,-0.981688 -1.87478,-1.46958 -3.14353,-1.46958 -1.23804,0 -2.25044,0.481984 -3.05138,1.43768 -0.799763,0.962787 -1.20023,2.41937 -1.20023,4.38865z"/>
   <path class="fil1" d="M357.375 450.965c0,-1.70703 0.42528,-3.36326 1.26285,-4.96396 0.844653,-1.59362 2.0378,-2.81866 3.5818,-3.65623 1.544,-0.844653 3.26993,-1.26875 5.1766,-1.26875 2.93798,0 5.35026,0.955699 7.23212,2.86946 1.88186,1.91258 2.81984,4.32486 2.81984,7.24512 0,2.93798 -0.950973,5.37507 -2.84465,7.31363 -1.90077,1.93739 -4.28824,2.90017 -7.16951,2.90017 -1.78854,0 -3.48257,-0.399291 -5.101,-1.20614 -1.61961,-0.806851 -2.85056,-1.98818 -3.69521,-3.54518 -0.837565,-1.55582 -1.26285,-3.45067 -1.26285,-5.68812zm5.27583 0.275251c0,1.93148 0.457176,3.40697 1.37625,4.43236 0.911989,1.0254 2.04371,1.53691 3.38806,1.53691 1.34318,0 2.46899,-0.511517 3.37507,-1.53691 0.913171,-1.0254 1.36917,-2.51388 1.36917,-4.47017 0,-1.90077 -0.455995,-3.36916 -1.36917,-4.39456 -0.906083,-1.0254 -2.03189,-1.5381 -3.37507,-1.5381 -1.34436,0 -2.47607,0.512699 -3.38806,1.5381 -0.919077,1.0254 -1.37625,2.50679 -1.37625,4.43236z"/>
   <path class="fil1" d="M386.406 460.967l-5.14471 0 0 -19.4483 4.77613 0 0 2.76314c0.818664,-1.30655 1.55582,-2.16893 2.20673,-2.58121 0.65564,-0.412285 1.39397,-0.624925 2.22445,-0.624925 1.17543,0 2.30124,0.324867 3.38806,0.9746l-1.59362 4.48198c-0.862373,-0.556408 -1.66922,-0.837565 -2.41228,-0.837565 -0.725339,0 -1.33254,0.193739 -1.83225,0.594211 -0.506792,0.393384 -0.894269,1.11282 -1.18133,2.15003 -0.287064,1.03839 -0.431187,3.21323 -0.431187,6.51978l0 6.00826z"/>
   <path class="fil1" d="M396.076 438.881l0 -4.76314 5.14471 0 0 4.76314 -5.14471 0zm0 22.0862l0 -19.4483 5.14471 0 0 19.4483 -5.14471 0z"/>
   <path class="fil1" d="M410.341 447.451l-4.66981 -0.843472c0.525693,-1.88186 1.42587,-3.26993 2.70762,-4.17601 1.28765,-0.900176 3.18842,-1.35617 5.71293,-1.35617 2.30124,0 4.00708,0.274069 5.13289,0.818664 1.11872,0.543413 1.91258,1.23095 2.36857,2.06851 0.457176,0.837565 0.687536,2.36975 0.687536,4.6072l-0.0555227 6.00826c0,1.70585 0.081512,2.96869 0.249261,3.78145 0.163024,0.806851 0.476077,1.68222 0.926165,2.6072l-5.09509 0c-0.131128,-0.343768 -0.300059,-0.85056 -0.493797,-1.51919 -0.081512,-0.305965 -0.144123,-0.506792 -0.181925,-0.606024 -0.881275,0.856467 -1.81807,1.49321 -2.81866,1.92439 -1.00059,0.42528 -2.0697,0.63792 -3.20732,0.63792 -2,0 -3.5818,-0.543413 -4.73242,-1.62551 -1.15534,-1.08683 -1.73065,-2.46308 -1.73065,-4.12522 0,-1.09391 0.262256,-2.0756 0.786768,-2.93798 0.525693,-0.863555 1.26285,-1.51919 2.20673,-1.97519 0.943885,-0.457176 2.31305,-0.856467 4.0945,-1.20023 2.40047,-0.450088 4.06969,-0.875368 4.99468,-1.26285l0 -0.512699c0,-0.994683 -0.243355,-1.69403 -0.731245,-2.11931 -0.486709,-0.419373 -1.40579,-0.632013 -2.76314,-0.632013 -0.917896,0 -1.63142,0.181925 -2.14412,0.544595 -0.512699,0.355581 -0.924984,0.987595 -1.24394,1.89368zm6.88245 4.17601c-0.65564,0.218547 -1.69994,0.480803 -3.13171,0.787949 -1.42469,0.305965 -2.35676,0.606024 -2.79976,0.893088 -0.669816,0.481984 -1.0065,1.0821 -1.0065,1.81335 0,0.725339 0.268163,1.34436 0.805669,1.86887 0.537507,0.525693 1.21914,0.787949 2.05079,0.787949 0.930891,0 1.81335,-0.305965 2.65682,-0.913171 0.624925,-0.461901 1.0313,-1.0313 1.22504,-1.70585 0.138216,-0.438275 0.199645,-1.27584 0.199645,-2.50679l0 -1.0254z"/>
   <path class="fil1" d="M445.048 460.967l-5.14589 0 0 -9.92674c0,-2.10041 -0.112227,-3.45776 -0.330773,-4.07678 -0.218547,-0.611931 -0.581216,-1.09391 -1.07501,-1.43768 -0.493797,-0.33668 -1.08801,-0.512699 -1.78145,-0.512699 -0.894269,0 -1.69403,0.244536 -2.40047,0.732427 -0.706437,0.493797 -1.19433,1.13762 -1.45658,1.94329 -0.263437,0.806851 -0.394565,2.29415 -0.394565,4.47017l0 8.80802 -5.14471 0 0 -19.4483 4.77613 0 0 2.85765c1.69994,-2.20082 3.83815,-3.30065 6.41346,-3.30065 1.13172,0 2.17602,0.205552 3.11399,0.611931 0.936797,0.412285 1.65032,0.932072 2.13231,1.56881 0.480803,0.63792 0.818664,1.35735 1.00531,2.16302 0.19492,0.806851 0.288245,1.95747 0.288245,3.45776l0 12.0898z"/>
  </g>
 </g>
</svg>
