<?xml version="1.0" encoding="UTF-8" standalone="no"?>
<!-- Created with Inkscape (http://www.inkscape.org/) -->

<svg
   xmlns:dc="http://purl.org/dc/elements/1.1/"
   xmlns:cc="http://creativecommons.org/ns#"
   xmlns:rdf="http://www.w3.org/1999/02/22-rdf-syntax-ns#"
   xmlns:svg="http://www.w3.org/2000/svg"
   xmlns="http://www.w3.org/2000/svg"
   xmlns:sodipodi="http://sodipodi.sourceforge.net/DTD/sodipodi-0.dtd"
   xmlns:inkscape="http://www.inkscape.org/namespaces/inkscape"
   width="320.32806mm"
   height="293.37335mm"
   viewBox="0 0 1135.0207 1039.5119"
   id="svg2"
   version="1.1"
   inkscape:version="0.91 r"
   sodipodi:docname="schemaInterpol.svg">
  <sodipodi:namedview
     id="base"
     pagecolor="#ffffff"
     bordercolor="#666666"
     borderopacity="1.0"
     inkscape:pageopacity="0.0"
     inkscape:pageshadow="2"
     inkscape:zoom="0.7"
     inkscape:cx="472.95845"
     inkscape:cy="824.85514"
     inkscape:document-units="px"
     inkscape:current-layer="g4141"
     showgrid="false"
     inkscape:window-width="1366"
     inkscape:window-height="716"
     inkscape:window-x="0"
     inkscape:window-y="0"
     inkscape:window-maximized="1"
     fit-margin-top="0"
     fit-margin-left="0"
     fit-margin-right="0"
     fit-margin-bottom="0" />
  <defs
     id="defs4">
    <marker
       inkscape:stockid="Arrow2Lend"
       orient="auto"
       refY="0"
       refX="0"
       id="Arrow2Lend"
       style="overflow:visible"
       inkscape:isstock="true">
      <path
         id="path4661"
         style="fill:#000000;fill-opacity:1;fill-rule:evenodd;stroke:#000000;stroke-width:0.625;stroke-linejoin:round;stroke-opacity:1"
         d="M 8.7185878,4.0337352 -2.2072895,0.01601326 8.7185884,-4.0017078 c -1.7454984,2.3720609 -1.7354408,5.6174519 -6e-7,8.035443 z"
         transform="matrix(-1.1,0,0,-1.1,-1.1,0)"
         inkscape:connector-curvature="0" />
    </marker>
    <marker
       inkscape:stockid="Arrow2Lend"
       orient="auto"
       refY="0"
       refX="0"
       id="Arrow2Lend-5"
       style="overflow:visible"
       inkscape:isstock="true">
      <path
         inkscape:connector-curvature="0"
         id="path4661-1"
         style="fill:#000000;fill-opacity:1;fill-rule:evenodd;stroke:#000000;stroke-width:0.625;stroke-linejoin:round;stroke-opacity:1"
         d="M 8.7185878,4.0337352 -2.2072895,0.01601326 8.7185884,-4.0017078 c -1.7454984,2.3720609 -1.7354408,5.6174519 -6e-7,8.035443 z"
         transform="matrix(-1.1,0,0,-1.1,-1.1,0)" />
    </marker>
    <marker
       inkscape:stockid="Arrow2Lend"
       orient="auto"
       refY="0"
       refX="0"
       id="Arrow2Lend-5-5"
       style="overflow:visible"
       inkscape:isstock="true">
      <path
         inkscape:connector-curvature="0"
         id="path4661-1-5"
         style="fill:#000000;fill-opacity:1;fill-rule:evenodd;stroke:#000000;stroke-width:0.625;stroke-linejoin:round;stroke-opacity:1"
         d="M 8.7185878,4.0337352 -2.2072895,0.01601326 8.7185884,-4.0017078 c -1.7454984,2.3720609 -1.7354408,5.6174519 -6e-7,8.035443 z"
         transform="matrix(-1.1,0,0,-1.1,-1.1,0)" />
    </marker>
  </defs>
  <metadata
     id="metadata7">
    <rdf:RDF>
      <cc:Work
         rdf:about="">
        <dc:format>image/svg+xml</dc:format>
        <dc:type
           rdf:resource="http://purl.org/dc/dcmitype/StillImage" />
        <dc:title></dc:title>
      </cc:Work>
    </rdf:RDF>
  </metadata>
  <g
     id="layer1"
     inkscape:groupmode="layer"
     inkscape:label="Calque 1"
     transform="translate(314.65274,-86.714403)">
    <g
       id="g4141"
       inkscape:label="Grid_Polar:X6:Y5"
       transform="matrix(0.53809524,0,0,0.52571429,42.142853,168.07648)">
      <path
         d="M 35.253914,-152.35448 -338.79273,446.06851 M 54.472014,-139.76681 -319.57463,458.65617 M 73.690114,-127.17915 -300.35653,471.24384 M 92.908214,-114.59148 -281.13843,483.83151 M 112.12631,-102.00382 -261.92033,496.41917 M 131.34441,-89.416151 -242.70223,509.00684 M 150.56252,-76.828485 -223.48413,521.5945 M 169.78061,-64.240823 -204.26603,534.18217 M 188.99871,-51.653156 -185.04793,546.76984 M 208.21681,-39.06549 -165.82983,559.3575 M 227.43491,-26.477825 -146.61173,571.94517 M 246.65301,-13.890158 -127.39362,584.53284 M 265.87112,-1.3024951 -108.17552,597.1205 M 285.08922,11.285175 -88.95742,609.70815 M 304.30732,23.872837 -69.73932,622.29586 M 323.52542,36.460506 -50.52122,634.88349 M 342.74352,49.048175 -31.303119,647.47119 M 361.96162,61.635837 -12.085016,660.05883 M 381.17972,74.223506 7.1330838,672.64646 M 400.39782,86.811166 26.351184,685.23417 M 419.61592,99.398826 45.569284,697.8218 M 438.83402,111.9865 64.787384,710.40951 M 458.05212,124.57417 84.005484,722.99714 M 35.253914,-152.35448 458.33329,124.75833 M 23.240204,-133.1342 446.31958,143.97861 M 11.226494,-113.91392 434.30587,163.19889 M -0.78721619,-94.693639 422.29216,182.41918 M -12.800936,-75.473358 410.27845,201.63946 M -24.814647,-56.253077 398.26473,220.85974 M -36.828357,-37.032797 386.25102,240.08002 M -48.842066,-17.812522 374.23731,259.30029 M -60.855783,1.4077569 362.2236,278.52058 M -72.869493,20.628037 350.20988,297.74086 M -84.883202,39.848323 338.19617,316.96114 M -96.896919,59.068603 326.18246,336.18142 M -108.91063,78.288886 314.16875,355.4017 M -120.92434,97.509166 302.15504,374.62198 M -132.93805,116.72945 290.14133,393.84226 M -144.95177,135.94973 278.12761,413.06254 M -156.96548,155.17001 266.1139,432.28282 M -168.97919,174.39029 254.10019,451.5031 M -180.9929,193.61057 242.08648,470.72338 M -193.00661,212.83085 230.07277,489.94366 M -205.02032,232.05113 218.05906,509.16393 M -217.03403,251.27141 206.04535,528.38421 M -229.04775,270.49169 194.03163,547.6045 M -241.06146,289.71197 182.01792,566.82478 M -253.07518,308.93225 170.0042,586.04506 M -265.08889,328.15253 157.99049,605.26534 M -277.1026,347.37281 145.97678,624.48564 M -289.11631,366.59309 133.96307,643.70589 M -301.13002,385.81337 121.94936,662.9262 m -435.0931,-257.89255 423.07939,277.1128 M -325.15746,424.25395 97.921924,701.36676 M -337.17116,443.47423 85.908224,720.58701"
         style="fill:none;fill-opacity:0.75;fill-rule:evenodd;stroke:#001699;stroke-width:5.76270008;stroke-linecap:butt;stroke-linejoin:miter;stroke-miterlimit:4;stroke-dasharray:none;stroke-opacity:1"
         id="path4448"
         inkscape:connector-curvature="0" />
      <path
         d="m 701.32443,-38.595859 10.08272,710.339399 m 12.73106,-710.67624 10.08272,710.33939 m 12.73106,-710.676244 10.08273,710.339394 m 12.73106,-710.676242 10.08273,710.339392 m 12.73108,-710.67627 10.0827,710.33941 m 12.73109,-710.676257 10.0827,710.339417 m 12.73108,-710.676273 10.0827,710.339413 m 12.73109,-710.67626 10.08269,710.33942 m 12.73109,-710.676275 10.0827,710.339435 M 906.64852,-41.627533 916.73121,668.71189 M 929.46231,-41.964384 939.545,668.37504 m 12.73109,-710.676271 10.0827,710.339411 m 12.73109,-710.676259 10.0827,710.339409 m 12.73109,-710.676256 10.08263,710.339386 m 12.7312,-710.676242 10.0827,710.339422 m 12.731,-710.676269 10.0827,710.339409 m 12.7311,-710.676256 10.0827,710.339416 m 12.7311,-710.676272 10.0827,710.339412 m 12.7311,-710.676256 10.0827,710.339366 m 12.7311,-710.67623 10.0827,710.33941 m 12.7311,-710.676266 10.0827,710.339396 m 12.731,-710.676243 10.0828,710.339423 m 12.731,-710.676262 10.0827,710.339382 M 701.32443,-38.595859 1203.5614,-46.011482 m -501.91314,30.23045 502.23704,-7.415621 M 701.97211,7.0338125 1204.2092,-0.38181573 M 702.29595,29.848647 1204.533,22.433022 M 702.61978,52.663488 1204.8568,45.247843 m -501.91318,30.230479 502.23708,-7.41565 m -501.91323,30.23049 502.23703,-7.41567 M 703.59131,121.108 1205.8284,113.69231 m -501.91325,30.23052 502.23705,-7.41561 m -501.91321,30.23045 502.23701,-7.41563 m -501.91317,30.23046 502.23707,-7.41563 m -501.91324,30.23048 502.23704,-7.41566 m -501.9132,30.2305 502.2371,-7.41566 m -501.91327,30.23049 502.23707,-7.41565 m -501.91322,30.23049 502.23702,-7.41568 m -501.91319,30.23051 502.23709,-7.41567 m -501.91325,30.23052 502.23705,-7.41564 m -501.91322,30.23045 502.23702,-7.41562 m -501.91317,30.23047 502.23707,-7.41565 m -501.91323,30.23049 502.23703,-7.41565 m -501.91319,30.23048 502.23709,-7.41567 m -501.91325,30.2305 502.23705,-7.41566 m -501.91322,30.23049 502.23712,-7.41565 m -501.91328,30.2305 502.23708,-7.41568 m -501.91324,30.23051 502.23714,-7.41567 m -501.9133,30.2305 502.2371,-7.41567 m -501.91326,30.23051 502.23706,-7.41562 m -501.91323,30.23045 502.23703,-7.41564 m -501.91319,30.23049 502.23709,-7.41564 m -501.91325,30.23046 502.23705,-7.41566 m -501.91321,30.23052 502.23711,-7.41563 m -501.91325,30.23047 502.23705,-7.41568"
         style="fill:none;fill-opacity:0.75;fill-rule:evenodd;stroke:#001699;stroke-width:5.76270008;stroke-linecap:butt;stroke-linejoin:miter;stroke-miterlimit:4;stroke-dasharray:none;stroke-opacity:1"
         id="path4448-6"
         inkscape:connector-curvature="0" />
      <path
         d="m -295.55018,935.28429 10.08272,710.33941 m 12.73106,-710.67625 10.08272,710.33945 m 12.73106,-710.67631 10.08273,710.33941 m 12.73106,-710.67626 10.08273,710.33946 m 12.73108,-710.67634 10.0827,710.33944 m 12.73109,-710.67628 10.0827,710.33948 m 12.73108,-710.67634 10.0827,710.33944 m 12.73109,-710.67629 10.08269,710.33949 m 12.73108,-710.67634 10.0827,710.33944 m 12.731101,-710.67629 10.082712,710.33949 m 12.731102,-710.67634 10.082702,710.33944 m 12.731116,-710.67629 10.082698,710.33949 m 12.731106,-710.67633 10.082708,710.33943 M 1.0291617,930.90522 11.111814,1641.2446 M 23.843026,930.56836 33.925738,1640.9078 M 46.65675,930.23152 56.739452,1640.571 M 69.470574,929.89467 79.553286,1640.2341 M 92.284388,929.55781 102.36711,1639.8973 m 12.73109,-710.67633 10.0827,710.33943 m 12.73111,-710.67629 10.08269,710.33939 m 12.7311,-710.67625 10.08271,710.33945 m 12.731,-710.6763 10.08279,710.3395 m 12.73101,-710.67634 10.0827,710.33944 m -511.98619,-702.92871 502.23719,-7.41563 m -501.91336,30.23045 502.23726,-7.41562 m -501.91341,30.23047 502.23731,-7.41563 m -501.91347,30.23047 502.23726,-7.41563 m -501.91343,30.23053 502.23724,-7.4157 m -501.9134,30.2305 502.2373,-7.4156 m -501.91345,30.2304 502.23724,-7.4156 m -501.9134,30.2305 502.2373,-7.4157 m -501.91346,30.2305 502.23726,-7.4156 m -501.91342,30.2304 502.23722,-7.4156 m -501.91338,30.2305 502.23729,-7.4157 m -501.91346,30.2305 502.23725,-7.4156 m -501.91341,30.2305 502.23731,-7.4157 m -501.91348,30.2305 502.23729,-7.4157 m -501.91344,30.2305 502.23723,-7.4157 m -501.9134,30.2306 502.2373,-7.4157 m -501.91346,30.2305 502.23727,-7.4156 m -501.91344,30.2304 502.23723,-7.4156 m -501.91338,30.2305 502.23728,-7.4157 m -501.91344,30.2305 502.23725,-7.4156 m -501.91341,30.2304 502.23731,-7.4156 m -501.91347,30.2305 502.23726,-7.4157 m -501.91343,30.2305 502.23733,-7.4156 m -501.91349,30.2305 502.2373,-7.4157 m -501.91346,30.2305 502.23736,-7.4157 m -501.91352,30.2305 502.23731,-7.4156 m -501.91347,30.2305 502.23728,-7.4157 m -501.91345,30.2305 502.23724,-7.4157 m -501.9134,30.2305 502.2373,-7.4156 m -501.91346,30.2305 502.23727,-7.4157 m -501.91343,30.2305 502.23732,-7.4156 m -501.91346,30.2305 502.23726,-7.4157"
         style="fill:none;fill-opacity:0.75;fill-rule:evenodd;stroke:#001699;stroke-width:5.76270008;stroke-linecap:butt;stroke-linejoin:miter;stroke-miterlimit:4;stroke-dasharray:none;stroke-opacity:1"
         id="path4448-6-6"
         inkscape:connector-curvature="0" />
      <path
         d="m -275.79055,935.542 0,710.4378 m 135.00241,-710.4378 0,710.4378 M -5.7856165,935.542 l 0,710.4378 M 129.21692,935.542 l 0,710.4378 m -405.00747,-696.80101 502.27299,0 m -502.27299,135.01781 502.27299,0 m -502.27299,135.0177 502.27299,0 m -502.27299,135.0177 502.27299,0 m -502.27299,135.0177 502.27299,0 m -502.27299,135.0178 502.27299,0"
         style="fill:none;fill-opacity:0.75;fill-rule:evenodd;stroke:#ff0000;stroke-width:6.51476574;stroke-linecap:butt;stroke-linejoin:miter;stroke-miterlimit:4;stroke-dasharray:none;stroke-opacity:1"
         id="path4476-4"
         inkscape:connector-curvature="0" />
      <text
         xml:space="preserve"
         style="font-style:normal;font-weight:normal;font-size:75.20652771px;line-height:125%;font-family:Sans;letter-spacing:0px;word-spacing:0px;fill:#000000;fill-opacity:1;stroke:none;stroke-width:1px;stroke-linecap:butt;stroke-linejoin:miter;stroke-opacity:1"
         x="-275.30853"
         y="780.83057"
         id="text7786"
         sodipodi:linespacing="125%"
         transform="scale(0.98842864,1.0117068)"><tspan
           sodipodi:role="line"
           x="-275.30853"
           y="780.83057"
           id="tspan7788"><tspan
             x="-275.30853"
             y="780.83057"
             id="tspan7790">Image HST</tspan></tspan></text>
      <text
         xml:space="preserve"
         style="font-style:normal;font-weight:normal;font-size:75.20652771px;line-height:125%;font-family:Sans;text-align:center;letter-spacing:0px;word-spacing:0px;text-anchor:middle;fill:#000000;fill-opacity:1;stroke:none;stroke-width:1px;stroke-linecap:butt;stroke-linejoin:miter;stroke-opacity:1"
         x="970.46106"
         y="757.19098"
         id="text7804"
         sodipodi:linespacing="125%"
         transform="scale(0.98842866,1.0117068)"><tspan
           sodipodi:role="line"
           x="970.46106"
           y="757.19098"
           id="tspan7806"><tspan
             x="970.46106"
             y="757.19098"
             id="tspan7808">Redressement Image HST</tspan></tspan></text>
      <text
         xml:space="preserve"
         style="font-style:normal;font-weight:normal;font-size:75.20652771px;line-height:125%;font-family:Sans;text-align:center;letter-spacing:0px;word-spacing:0px;text-anchor:middle;fill:#000000;fill-opacity:1;stroke:none;stroke-width:1px;stroke-linecap:butt;stroke-linejoin:miter;stroke-opacity:1"
         x="10.199543"
         y="1684.9174"
         id="text7816"
         sodipodi:linespacing="125%"
         transform="scale(0.98842866,1.0117068)"><tspan
           sodipodi:role="line"
           x="22.170918"
           y="1684.9174"
           id="tspan7818"><tspan
             x="10.199543"
             y="1684.9174"
             id="tspan7820">Sous-échantillonnage de l'image </tspan></tspan><tspan
           sodipodi:role="line"
           x="150.47731"
           y="1778.9255"
           id="tspan7822"><tspan
             x="150.47731"
             y="1778.9255"
             id="tspan7824">HST à la résolution MUSE</tspan></tspan></text>
      <path
         d="m 695.37999,870.45272 10.08272,710.34028 m 12.73106,-710.67712 10.08272,710.34032 m 12.73106,-710.67718 10.08273,710.34028 m 12.73106,-710.67713 10.08273,710.34033 m 12.73108,-710.67721 10.0827,710.34031 m 12.73109,-710.67715 10.0827,710.34035 m 12.73108,-710.67721 10.0827,710.34031 m 12.73109,-710.67716 10.08269,710.34036 m 12.73107,-710.67721 10.08271,710.34031 m 12.73109,-710.67716 10.08272,710.34036 m 12.73111,-710.67721 10.08269,710.34031 m 12.73111,-710.67716 10.0827,710.34036 m 12.73111,-710.6772 10.08271,710.3403 m 12.73111,-710.67715 10.08267,710.34025 m 12.7312,-710.67711 10.0827,710.34031 m 12.731,-710.67715 10.0827,710.34035 m 12.7312,-710.6772 10.0827,710.3403 m 12.7311,-710.67716 10.0827,710.34036 m 12.7311,-710.6772 10.0827,710.3403 m 12.7311,-710.67716 10.0827,710.34026 m 12.7311,-710.67712 10.0827,710.34032 m 12.731,-710.67717 10.0828,710.34037 m 12.731,-710.67721 10.0827,710.34031 M 695.37999,870.45272 1197.6172,863.03709 m -501.91338,30.23045 502.23728,-7.41562 m -501.91343,30.23047 502.23733,-7.41563 m -501.91349,30.23049 502.23729,-7.41565 m -501.91346,30.23085 502.23726,-7.4158 m -501.91342,30.2309 502.23732,-7.4157 m -501.91347,30.23075 502.23727,-7.41565 m -501.91343,30.23055 502.23733,-7.4157 m -501.91349,30.2305 502.23729,-7.4156 m -501.91345,30.2304 502.23725,-7.4156 m -501.91341,30.2305 502.23731,-7.4157 m -501.91348,30.2305 502.23728,-7.4156 m -501.91344,30.2305 502.23734,-7.4157 m -501.91351,30.2305 502.23731,-7.4157 m -501.91346,30.2305 502.23726,-7.4157 m -501.91343,30.2306 502.23733,-7.4157 m -501.91349,30.2305 502.23729,-7.4156 m -501.91346,30.2304 502.23726,-7.4156 m -501.91341,30.2305 502.23731,-7.4157 m -501.91347,30.2305 502.23727,-7.4156 m -501.91343,30.2304 502.23733,-7.4156 m -501.91349,30.2305 502.23729,-7.4157 m -501.91346,30.2305 502.23736,-7.4156 m -501.91352,30.2305 502.23732,-7.4157 m -501.91348,30.2305 502.23738,-7.4157 m -501.91354,30.2305 502.23734,-7.4156 m -501.9135,30.2305 502.2373,-7.4157 m -501.91347,30.2305 502.23727,-7.4157 m -501.91343,30.2305 502.23733,-7.4156 m -501.91349,30.2305 502.23729,-7.4157 m -501.91345,30.2305 502.23735,-7.4156 m -501.91349,30.2305 502.23729,-7.4157"
         style="fill:none;fill-opacity:0.75;fill-rule:evenodd;stroke:#001699;stroke-width:5.76270008;stroke-linecap:butt;stroke-linejoin:miter;stroke-miterlimit:4;stroke-dasharray:none;stroke-opacity:1"
         id="path4448-6-6-1"
         inkscape:connector-curvature="0" />
      <path
         d="m 721.2635,935.28411 10.08272,710.33979 M 744.07728,934.94727 754.16,1645.2871 m 12.73106,-710.67669 10.08273,710.33979 m 12.73106,-710.67664 10.08273,710.33984 m 12.73108,-710.67672 10.0827,710.33982 m 12.73109,-710.67666 10.0827,710.33986 m 12.73108,-710.67672 10.0827,710.33982 m 12.73109,-710.67667 10.08269,710.33987 m 12.73107,-710.67672 10.08272,710.33982 m 12.73108,-710.67667 10.08273,710.33987 m 12.73111,-710.67672 10.08269,710.33982 m 12.73111,-710.67667 10.0827,710.33987 m 12.73116,-710.67671 10.08272,710.33981 m 12.7311,-710.67666 10.0826,710.33976 m 12.7313,-710.67662 10.0826,710.33982 m 12.731,-710.67666 10.0827,710.33976 m 12.7313,-710.67661 10.0827,710.33981 m 12.7311,-710.67667 10.0827,710.33987 m 12.7311,-710.67671 10.0827,710.33981 m 12.7311,-710.67667 10.0827,710.33967 m 12.7311,-710.67653 10.0827,710.33983 m 12.731,-710.67668 10.0828,710.33988 m 12.731,-710.67672 10.0827,710.33982 m -511.9863,-702.92909 502.2373,-7.41563 m -501.91347,30.23045 502.23737,-7.41562 m -501.91352,30.23047 502.23742,-7.41563 m -501.91358,30.23045 502.23738,-7.41561 m -501.91355,30.23081 502.23735,-7.4158 m -501.91351,30.2307 502.23741,-7.4157 m -501.91356,30.2305 502.23736,-7.4156 m -501.91352,30.2305 502.23742,-7.4157 m -501.91358,30.2305 502.23738,-7.4156 m -501.91354,30.2304 502.23734,-7.4156 m -501.9135,30.2305 502.2374,-7.4157 m -501.91357,30.2304 502.23727,-7.4155 m -501.91343,30.2304 502.23743,-7.4157 m -501.9136,30.2306 502.2374,-7.4157 m -501.91355,30.2305 502.23735,-7.4157 m -501.91352,30.2306 502.23732,-7.4157 m -501.91348,30.2305 502.23738,-7.4156 m -501.91355,30.2304 502.23735,-7.4156 m -501.9135,30.2305 502.2374,-7.4157 m -501.91356,30.2305 502.23736,-7.4156 m -501.91352,30.2304 502.23742,-7.4156 m -501.91358,30.2305 502.23738,-7.4157 m -501.91355,30.2305 502.23745,-7.4156 m -501.91361,30.2305 502.23741,-7.4157 m -501.91357,30.2304 502.23747,-7.4157 m -501.91363,30.2306 502.23743,-7.4156 m -501.91359,30.2305 502.23739,-7.4157 m -501.91356,30.2305 502.23736,-7.4157 m -501.91352,30.2305 502.23742,-7.4156 m -501.91358,30.2305 502.23738,-7.4157 m -501.91354,30.2305 502.23734,-7.4156 m -501.91348,30.2305 502.23738,-7.4157"
         style="fill:none;fill-opacity:0.75;fill-rule:evenodd;stroke:#f200ee;stroke-width:5.76270008;stroke-linecap:butt;stroke-linejoin:miter;stroke-miterlimit:4;stroke-dasharray:none;stroke-opacity:1"
         id="path4448-6-6-1-4-9"
         inkscape:connector-curvature="0" />
      <path
         d="m 637.36971,891.80586 10.08272,710.33974 m 12.73106,-710.67658 10.08272,710.33978 M 682.99727,891.13216 693.08,1601.4719 m 12.73106,-710.67659 10.08273,710.33979 m 12.73108,-710.67667 10.0827,710.33977 m 12.73109,-710.67661 10.0827,710.33981 m 12.73108,-710.67667 10.0827,710.33977 m 12.73109,-710.67662 10.08269,710.33982 m 12.73107,-710.67667 10.08272,710.33977 m 12.73108,-710.67662 10.08273,710.33982 m 12.73111,-710.67667 10.08269,710.33977 m 12.73111,-710.67662 10.0827,710.33982 m 12.73111,-710.67666 10.08271,710.33976 m 12.73111,-710.67661 10.08266,710.33971 m 12.73124,-710.67657 10.08269,710.33977 m 12.73102,-710.67661 10.0827,710.33971 m 12.73123,-710.67656 10.0827,710.33976 m 12.7311,-710.67662 10.0827,710.33982 m 12.7311,-710.67666 10.0827,710.33976 m 12.7311,-710.67662 10.0827,710.33962 m 12.7311,-710.67648 10.0827,710.33978 m 12.731,-710.67663 10.0828,710.33983 m 12.731,-710.67667 10.0827,710.33977 M 637.36971,891.80586 1139.607,884.39023 m -501.91346,30.23045 502.23736,-7.41562 m -501.91351,30.23047 502.23741,-7.41563 m -501.91357,30.23049 502.23737,-7.41565 m -501.91354,30.23085 502.23734,-7.4158 m -501.9135,30.23061 502.2374,-7.41561 m -501.91355,30.23041 502.23735,-7.4156 m -501.91351,30.2305 502.23741,-7.4157 m -501.91357,30.2305 502.23737,-7.4156 m -501.91353,30.2304 502.23733,-7.4156 m -501.91349,30.2305 502.23739,-7.4157 m -501.91356,30.2305 502.23726,-7.4156 m -501.91342,30.2305 502.23742,-7.4157 m -501.91359,30.2305 502.23739,-7.4157 m -501.91354,30.2305 502.23734,-7.4157 m -501.91351,30.2306 502.23741,-7.4157 m -501.91357,30.2305 502.23737,-7.4156 m -501.91354,30.2304 502.23734,-7.4156 m -501.91349,30.2305 502.23739,-7.4157 m -501.91355,30.2305 502.23735,-7.4156 m -501.91351,30.2304 502.23741,-7.4156 m -501.91357,30.2305 502.23737,-7.4157 m -501.91354,30.2305 502.23744,-7.4156 m -501.9136,30.2305 502.2374,-7.4157 m -501.91356,30.2304 502.23746,-7.4157 m -501.91362,30.2306 502.23742,-7.4156 m -501.91358,30.2305 502.23738,-7.4157 m -501.91355,30.2305 502.23735,-7.4157 m -501.91351,30.2305 502.23741,-7.4156 m -501.91357,30.2305 502.23737,-7.4157 m -501.91353,30.2305 502.23733,-7.4156 m -501.91347,30.2305 502.23737,-7.4157"
         style="fill:none;fill-opacity:0.75;fill-rule:evenodd;stroke:#2bf200;stroke-width:5.76270008;stroke-linecap:butt;stroke-linejoin:miter;stroke-miterlimit:4;stroke-dasharray:none;stroke-opacity:1"
         id="path4448-6-6-1-4"
         inkscape:connector-curvature="0" />
      <path
         d="m 700.27238,912.55828 0,710.43812 m 135.00241,-710.43812 0,710.43812 m 135.00252,-710.43812 0,710.43812 m 135.00259,-710.43812 0,710.43812 m -405.00752,-696.80133 502.27302,0 m -502.27302,135.01813 502.27302,0 m -502.27302,135.0177 502.27302,0 m -502.27302,135.0177 502.27302,0 m -502.27302,135.0177 502.27302,0 m -502.27302,135.0178 502.27302,0"
         style="fill:none;fill-opacity:0.75;fill-rule:evenodd;stroke:#ff0000;stroke-width:6.51476574;stroke-linecap:butt;stroke-linejoin:miter;stroke-miterlimit:4;stroke-dasharray:none;stroke-opacity:1"
         id="path4476-4-0"
         inkscape:connector-curvature="0" />
      <text
         xml:space="preserve"
         style="font-style:normal;font-weight:normal;font-size:75.20652771px;line-height:125%;font-family:Sans;letter-spacing:0px;word-spacing:0px;fill:#000000;fill-opacity:1;stroke:none;stroke-width:1px;stroke-linecap:butt;stroke-linejoin:miter;stroke-opacity:1"
         x="781.9165"
         y="1701.4327"
         id="text7810"
         sodipodi:linespacing="125%"
         transform="scale(0.98842864,1.0117068)"><tspan
           sodipodi:role="line"
           x="781.9165"
           y="1701.4327"
           id="tspan7812"><tspan
             x="781.9165"
             y="1701.4327"
             id="tspan7814">Recalage </tspan></tspan></text>
      <path
         style="fill:none;fill-rule:evenodd;stroke:#000000;stroke-width:6.20453835;stroke-linecap:butt;stroke-linejoin:miter;stroke-miterlimit:4;stroke-dasharray:none;stroke-opacity:1;marker-end:url(#Arrow2Lend)"
         d="M 376.58829,319.92557 C 660.6591,314.49079 660.6591,314.49079 660.6591,314.49079"
         id="path4634"
         inkscape:connector-curvature="0" />
      <text
         xml:space="preserve"
         style="font-style:normal;font-weight:normal;font-size:51.70448685px;line-height:125%;font-family:Sans;text-align:center;letter-spacing:0px;word-spacing:0px;text-anchor:middle;fill:#000000;fill-opacity:1;stroke:none;stroke-width:1px;stroke-linecap:butt;stroke-linejoin:miter;stroke-opacity:1"
         x="503.41541"
         y="397.30508"
         id="text7792"
         sodipodi:linespacing="125%"
         transform="scale(0.98842866,1.0117068)"><tspan
           sodipodi:role="line"
           x="503.41541"
           y="397.30508"
           id="tspan7794"><tspan
             x="503.41541"
             y="397.30508"
             id="tspan7796">Interpolation</tspan></tspan></text>
      <path
         style="fill:none;fill-rule:evenodd;stroke:#000000;stroke-width:6.20453835;stroke-linecap:butt;stroke-linejoin:miter;stroke-miterlimit:4;stroke-dasharray:none;stroke-opacity:1;marker-end:url(#Arrow2Lend-5)"
         d="M 662.14164,538.87475 189.57527,900.28778"
         id="path4634-8"
         inkscape:connector-curvature="0"
         sodipodi:nodetypes="cc" />
      <path
         style="fill:none;fill-rule:evenodd;stroke:#000000;stroke-width:6.20453835;stroke-linecap:butt;stroke-linejoin:miter;stroke-miterlimit:4;stroke-dasharray:none;stroke-opacity:1;marker-end:url(#Arrow2Lend-5-5)"
         d="m 231.27901,1310.7516 376.99115,-10.8695"
         id="path4634-8-7"
         inkscape:connector-curvature="0"
         sodipodi:nodetypes="cc" />
      <text
         xml:space="preserve"
         style="font-style:normal;font-weight:normal;font-size:51.70448685px;line-height:125%;font-family:Sans;text-align:center;letter-spacing:0px;word-spacing:0px;text-anchor:middle;fill:#000000;fill-opacity:1;stroke:none;stroke-width:1px;stroke-linecap:butt;stroke-linejoin:miter;stroke-opacity:1"
         x="-42.421276"
         y="796.47754"
         id="text7798"
         sodipodi:linespacing="125%"
         transform="matrix(0.7999302,-0.59427927,0.58060562,0.81876909,0,0)"><tspan
           sodipodi:role="line"
           x="-42.421276"
           y="796.47754"
           id="tspan7800"><tspan
             x="-42.421276"
             y="796.47754"
             id="tspan7802">Interpolation</tspan></tspan></text>
    </g>
  </g>
</svg>
