<?xml version="1.0" encoding="UTF-8" standalone="no"?>
<svg
   xmlns:dc="http://purl.org/dc/elements/1.1/"
   xmlns:cc="http://creativecommons.org/ns#"
   xmlns:rdf="http://www.w3.org/1999/02/22-rdf-syntax-ns#"
   xmlns:svg="http://www.w3.org/2000/svg"
   xmlns="http://www.w3.org/2000/svg"
   viewBox="0 0 1197.8242 788.20312"
   height="788.20312"
   width="1197.8242"
   xml:space="preserve"
   version="1.1"
   id="svg2"><metadata
     id="metadata8"><rdf:RDF><cc:Work
         rdf:about=""><dc:format>image/svg+xml</dc:format><dc:type
           rdf:resource="http://purl.org/dc/dcmitype/StillImage" /></cc:Work></rdf:RDF></metadata><defs
     id="defs6"><clipPath
       id="clipPath66"
       clipPathUnits="userSpaceOnUse"><path
         id="path68"
         d="m -1016,-351 2676,0 0,1419 -2676,0 0,-1419 z" /></clipPath><clipPath
       id="clipPath86"
       clipPathUnits="userSpaceOnUse"><path
         id="path88"
         d="m -1021,-463 2815,0 0,1696 -2815,0 0,-1696 z" /></clipPath><clipPath
       id="clipPath148"
       clipPathUnits="userSpaceOnUse"><path
         id="path150"
         d="m 110.55937,76.2625 837.00001,0 0,543.6 -837.00001,0 0,-543.6 z" /></clipPath><clipPath
       id="clipPath158"
       clipPathUnits="userSpaceOnUse"><path
         id="path160"
         d="m 110.55937,76.2625 837.00001,0 0,543.6 -837.00001,0 0,-543.6 z" /></clipPath><clipPath
       id="clipPath168"
       clipPathUnits="userSpaceOnUse"><path
         id="path170"
         d="m 110.55937,76.2625 837.00001,0 0,543.6 -837.00001,0 0,-543.6 z" /></clipPath><clipPath
       id="clipPath178"
       clipPathUnits="userSpaceOnUse"><path
         id="path180"
         d="m 110.55937,76.2625 837.00001,0 0,543.6 -837.00001,0 0,-543.6 z" /></clipPath></defs><g
     transform="matrix(1.25,0,0,-1.25,0,788.20312)"
     id="g10"><path
       id="path12"
       style="fill:#ffffff;fill-opacity:1;fill-rule:nonzero;stroke:none"
       d="m 0,0 958.25938,0 0,630.5625 L 0,630.5625 0,0 Z" /><path
       id="path14"
       style="fill:#ffffff;fill-opacity:1;fill-rule:nonzero;stroke:none"
       d="m 110.55937,76.2625 837.00001,0 0,543.6 -837.00001,0 0,-543.6 z" /><path
       id="path16"
       style="fill:#000000;fill-opacity:1;fill-rule:nonzero;stroke:#000000;stroke-width:0.80000001;stroke-linecap:butt;stroke-linejoin:round;stroke-miterlimit:10;stroke-dasharray:none;stroke-opacity:1"
       d="m 148.60483,76.2625 0,-3.5" /><text
       id="text18"
       style="font-variant:normal;font-weight:normal;font-size:30px;font-family:'DejaVu Sans';-inkscape-font-specification:DejaVuSans;writing-mode:lr-tb;fill:#000000;fill-opacity:1;fill-rule:nonzero;stroke:none"
       transform="matrix(1,0,0,-1,139.05795,46.465625)"><tspan
         id="tspan20"
         y="0"
         x="0">0</tspan></text>
<path
       id="path22"
       style="fill:#000000;fill-opacity:1;fill-rule:nonzero;stroke:#000000;stroke-width:0.80000001;stroke-linecap:butt;stroke-linejoin:round;stroke-miterlimit:10;stroke-dasharray:none;stroke-opacity:1"
       d="m 275.63473,76.2625 0,-3.5" /><text
       id="text24"
       style="font-variant:normal;font-weight:normal;font-size:30px;font-family:'DejaVu Sans';-inkscape-font-specification:DejaVuSans;writing-mode:lr-tb;fill:#000000;fill-opacity:1;fill-rule:nonzero;stroke:none"
       transform="matrix(1,0,0,-1,246.9941,46.465625)"><tspan
         id="tspan26"
         y="0"
         x="0 19.08 38.16">100</tspan></text>
<path
       id="path28"
       style="fill:#000000;fill-opacity:1;fill-rule:nonzero;stroke:#000000;stroke-width:0.80000001;stroke-linecap:butt;stroke-linejoin:round;stroke-miterlimit:10;stroke-dasharray:none;stroke-opacity:1"
       d="m 402.66463,76.2625 0,-3.5" /><text
       id="text30"
       style="font-variant:normal;font-weight:normal;font-size:30px;font-family:'DejaVu Sans';-inkscape-font-specification:DejaVuSans;writing-mode:lr-tb;fill:#000000;fill-opacity:1;fill-rule:nonzero;stroke:none"
       transform="matrix(1,0,0,-1,374.024,46.465625)"><tspan
         id="tspan32"
         y="0"
         x="0 19.08 38.16">200</tspan></text>
<path
       id="path34"
       style="fill:#000000;fill-opacity:1;fill-rule:nonzero;stroke:#000000;stroke-width:0.80000001;stroke-linecap:butt;stroke-linejoin:round;stroke-miterlimit:10;stroke-dasharray:none;stroke-opacity:1"
       d="m 529.69452,76.2625 0,-3.5" /><text
       id="text36"
       style="font-variant:normal;font-weight:normal;font-size:30px;font-family:'DejaVu Sans';-inkscape-font-specification:DejaVuSans;writing-mode:lr-tb;fill:#000000;fill-opacity:1;fill-rule:nonzero;stroke:none"
       transform="matrix(1,0,0,-1,501.0539,46.465625)"><tspan
         id="tspan38"
         y="0"
         x="0 19.08 38.16">300</tspan></text>
<path
       id="path40"
       style="fill:#000000;fill-opacity:1;fill-rule:nonzero;stroke:#000000;stroke-width:0.80000001;stroke-linecap:butt;stroke-linejoin:round;stroke-miterlimit:10;stroke-dasharray:none;stroke-opacity:1"
       d="m 656.72442,76.2625 0,-3.5" /><text
       id="text42"
       style="font-variant:normal;font-weight:normal;font-size:30px;font-family:'DejaVu Sans';-inkscape-font-specification:DejaVuSans;writing-mode:lr-tb;fill:#000000;fill-opacity:1;fill-rule:nonzero;stroke:none"
       transform="matrix(1,0,0,-1,628.0838,46.465625)"><tspan
         id="tspan44"
         y="0"
         x="0 19.08 38.16">400</tspan></text>
<path
       id="path46"
       style="fill:#000000;fill-opacity:1;fill-rule:nonzero;stroke:#000000;stroke-width:0.80000001;stroke-linecap:butt;stroke-linejoin:round;stroke-miterlimit:10;stroke-dasharray:none;stroke-opacity:1"
       d="m 783.75432,76.2625 0,-3.5" /><text
       id="text48"
       style="font-variant:normal;font-weight:normal;font-size:30px;font-family:'DejaVu Sans';-inkscape-font-specification:DejaVuSans;writing-mode:lr-tb;fill:#000000;fill-opacity:1;fill-rule:nonzero;stroke:none"
       transform="matrix(1,0,0,-1,755.1137,46.465625)"><tspan
         id="tspan50"
         y="0"
         x="0 19.08 38.16">500</tspan></text>
<path
       id="path52"
       style="fill:#000000;fill-opacity:1;fill-rule:nonzero;stroke:#000000;stroke-width:0.80000001;stroke-linecap:butt;stroke-linejoin:round;stroke-miterlimit:10;stroke-dasharray:none;stroke-opacity:1"
       d="m 910.78422,76.2625 0,-3.5" /><text
       id="text54"
       style="font-variant:normal;font-weight:normal;font-size:30px;font-family:'DejaVu Sans';-inkscape-font-specification:DejaVuSans;writing-mode:lr-tb;fill:#000000;fill-opacity:1;fill-rule:nonzero;stroke:none"
       transform="matrix(1,0,0,-1,882.14359,46.465625)"><tspan
         id="tspan56"
         y="0"
         x="0 19.08 38.16">600</tspan></text>
<g
       transform="translate(520.05938,13.434375)"
       id="g58"><g
         transform="matrix(0.03,0,0,0.03,0,0.203125)"
         id="g60"><g
           id="g62"><g
             clip-path="url(#clipPath66)"
             id="g64"><path
               id="path70"
               style="fill:#000000;fill-opacity:1;fill-rule:nonzero;stroke:none"
               d="M 367,674 488,0 393,0 318,404 51,0 -43,0 297,524 280,621 c -7,41 -28,62 -63,62 l -47,0 15,77 57,-1 c 73,-2 115,-30 125,-85" /></g></g></g></g><path
       id="path72"
       style="fill:#000000;fill-opacity:1;fill-rule:nonzero;stroke:#000000;stroke-width:0.80000001;stroke-linecap:butt;stroke-linejoin:round;stroke-miterlimit:10;stroke-dasharray:none;stroke-opacity:1"
       d="m 110.55937,98.776674 -3.5,0" /><g
       transform="translate(40.23125,87.378236)"
       id="g74"><text
         id="text76"
         style="font-variant:normal;font-weight:normal;font-size:30px;font-family:'DejaVu Sans';-inkscape-font-specification:DejaVuSans;writing-mode:lr-tb;fill:#000000;fill-opacity:1;fill-rule:nonzero;stroke:none"
         transform="matrix(1,0,0,-1,25.136719,0)"><tspan
           id="tspan78"
           y="0"
           x="0 19.08">20</tspan></text>
<g
         transform="scale(0.03,0.03)"
         id="g80"><g
           id="g82"><g
             clip-path="url(#clipPath86)"
             id="g84"><path
               id="path90"
               style="fill:#000000;fill-opacity:1;fill-rule:nonzero;stroke:none"
               d="m 106,355 626,0 0,-83 -626,0 0,83" /></g></g></g></g><path
       id="path92"
       style="fill:#000000;fill-opacity:1;fill-rule:nonzero;stroke:#000000;stroke-width:0.80000001;stroke-linecap:butt;stroke-linejoin:round;stroke-miterlimit:10;stroke-dasharray:none;stroke-opacity:1"
       d="m 110.55937,161.58507 -3.5,0" /><text
       id="text94"
       style="font-variant:normal;font-weight:normal;font-size:30px;font-family:'DejaVu Sans';-inkscape-font-specification:DejaVuSans;writing-mode:lr-tb;fill:#000000;fill-opacity:1;fill-rule:nonzero;stroke:none"
       transform="matrix(1,0,0,-1,84.465625,150.18663)"><tspan
         id="tspan96"
         y="0"
         x="0">0</tspan></text>
<path
       id="path98"
       style="fill:#000000;fill-opacity:1;fill-rule:nonzero;stroke:#000000;stroke-width:0.80000001;stroke-linecap:butt;stroke-linejoin:round;stroke-miterlimit:10;stroke-dasharray:none;stroke-opacity:1"
       d="m 110.55937,224.39347 -3.5,0" /><text
       id="text100"
       style="font-variant:normal;font-weight:normal;font-size:30px;font-family:'DejaVu Sans';-inkscape-font-specification:DejaVuSans;writing-mode:lr-tb;fill:#000000;fill-opacity:1;fill-rule:nonzero;stroke:none"
       transform="matrix(1,0,0,-1,65.371875,212.99503)"><tspan
         id="tspan102"
         y="0"
         x="0 19.08">20</tspan></text>
<path
       id="path104"
       style="fill:#000000;fill-opacity:1;fill-rule:nonzero;stroke:#000000;stroke-width:0.80000001;stroke-linecap:butt;stroke-linejoin:round;stroke-miterlimit:10;stroke-dasharray:none;stroke-opacity:1"
       d="m 110.55937,287.20186 -3.5,0" /><text
       id="text106"
       style="font-variant:normal;font-weight:normal;font-size:30px;font-family:'DejaVu Sans';-inkscape-font-specification:DejaVuSans;writing-mode:lr-tb;fill:#000000;fill-opacity:1;fill-rule:nonzero;stroke:none"
       transform="matrix(1,0,0,-1,65.371875,275.80343)"><tspan
         id="tspan108"
         y="0"
         x="0 19.08">40</tspan></text>
<path
       id="path110"
       style="fill:#000000;fill-opacity:1;fill-rule:nonzero;stroke:#000000;stroke-width:0.80000001;stroke-linecap:butt;stroke-linejoin:round;stroke-miterlimit:10;stroke-dasharray:none;stroke-opacity:1"
       d="m 110.55937,350.01026 -3.5,0" /><text
       id="text112"
       style="font-variant:normal;font-weight:normal;font-size:30px;font-family:'DejaVu Sans';-inkscape-font-specification:DejaVuSans;writing-mode:lr-tb;fill:#000000;fill-opacity:1;fill-rule:nonzero;stroke:none"
       transform="matrix(1,0,0,-1,65.371875,338.61182)"><tspan
         id="tspan114"
         y="0"
         x="0 19.08">60</tspan></text>
<path
       id="path116"
       style="fill:#000000;fill-opacity:1;fill-rule:nonzero;stroke:#000000;stroke-width:0.80000001;stroke-linecap:butt;stroke-linejoin:round;stroke-miterlimit:10;stroke-dasharray:none;stroke-opacity:1"
       d="m 110.55937,412.81866 -3.5,0" /><text
       id="text118"
       style="font-variant:normal;font-weight:normal;font-size:30px;font-family:'DejaVu Sans';-inkscape-font-specification:DejaVuSans;writing-mode:lr-tb;fill:#000000;fill-opacity:1;fill-rule:nonzero;stroke:none"
       transform="matrix(1,0,0,-1,65.371875,401.42022)"><tspan
         id="tspan120"
         y="0"
         x="0 19.08">80</tspan></text>
<path
       id="path122"
       style="fill:#000000;fill-opacity:1;fill-rule:nonzero;stroke:#000000;stroke-width:0.80000001;stroke-linecap:butt;stroke-linejoin:round;stroke-miterlimit:10;stroke-dasharray:none;stroke-opacity:1"
       d="m 110.55937,475.62705 -3.5,0" /><text
       id="text124"
       style="font-variant:normal;font-weight:normal;font-size:30px;font-family:'DejaVu Sans';-inkscape-font-specification:DejaVuSans;writing-mode:lr-tb;fill:#000000;fill-opacity:1;fill-rule:nonzero;stroke:none"
       transform="matrix(1,0,0,-1,46.278125,464.22862)"><tspan
         id="tspan126"
         y="0"
         x="0 19.08 38.16">100</tspan></text>
<path
       id="path128"
       style="fill:#000000;fill-opacity:1;fill-rule:nonzero;stroke:#000000;stroke-width:0.80000001;stroke-linecap:butt;stroke-linejoin:round;stroke-miterlimit:10;stroke-dasharray:none;stroke-opacity:1"
       d="m 110.55937,538.43545 -3.5,0" /><text
       id="text130"
       style="font-variant:normal;font-weight:normal;font-size:30px;font-family:'DejaVu Sans';-inkscape-font-specification:DejaVuSans;writing-mode:lr-tb;fill:#000000;fill-opacity:1;fill-rule:nonzero;stroke:none"
       transform="matrix(1,0,0,-1,46.278125,527.03701)"><tspan
         id="tspan132"
         y="0"
         x="0 19.08 38.16">120</tspan></text>
<path
       id="path134"
       style="fill:#000000;fill-opacity:1;fill-rule:nonzero;stroke:#000000;stroke-width:0.80000001;stroke-linecap:butt;stroke-linejoin:round;stroke-miterlimit:10;stroke-dasharray:none;stroke-opacity:1"
       d="m 110.55937,601.24385 -3.5,0" /><text
       id="text136"
       style="font-variant:normal;font-weight:normal;font-size:30px;font-family:'DejaVu Sans';-inkscape-font-specification:DejaVuSans;writing-mode:lr-tb;fill:#000000;fill-opacity:1;fill-rule:nonzero;stroke:none"
       transform="matrix(1,0,0,-1,46.278125,589.84541)"><tspan
         id="tspan138"
         y="0"
         x="0 19.08 38.16">140</tspan></text>
<text
       id="text140"
       style="font-variant:normal;font-weight:normal;font-size:30px;font-family:'DejaVu Sans';-inkscape-font-specification:DejaVuSans;writing-mode:lr-tb;fill:#000000;fill-opacity:1;fill-rule:nonzero;stroke:none"
       transform="matrix(0,1,1,0,29.996875,316.88281)"><tspan
         id="tspan142"
         y="0"
         x="0 17.25 25.59 44.610001">Flux</tspan></text>
<g
       id="g144"><g
         clip-path="url(#clipPath148)"
         id="g146"><path
           id="path152"
           style="fill:none;stroke:#1f77b4;stroke-width:3;stroke-linecap:square;stroke-linejoin:round;stroke-miterlimit:10;stroke-dasharray:none;stroke-opacity:1"
           d="m 148.60483,203.4091 1.2703,-18.60641 1.2703,-4.27758 1.2703,-15.28182 1.27029,11.63113 1.2703,78.09742 1.2703,-98.20545 1.2703,35.59702 1.2703,1.19872 1.2703,-25.72546 1.2703,32.97024 1.2703,-1.29719 1.2703,2.43705 2.54059,-22.7622 1.2703,31.85769 1.2703,-22.01714 1.2703,8.12633 1.2703,48.91516 1.2703,-10.31125 1.2703,-62.22006 1.2703,2.95441 1.2703,0.80018 1.2703,28.73827 1.27029,-27.71068 1.2703,45.01705 1.2703,10.59775 1.2703,-32.67364 1.2703,0.0315 1.2703,26.29802 1.2703,5.91045 1.2703,-61.47205 1.2703,-3.73216 1.2703,10.64659 1.27029,11.91455 1.2703,-19.73722 1.2703,27.9759 1.2703,-16.08755 1.2703,53.8586 1.2703,-29.1042 1.2703,-11.6524 1.2703,-1.13104 1.2703,-6.51995 1.2703,-19.47519 1.27029,6.34206 1.2703,19.39702 1.2703,25.9885 1.2703,3.41564 1.2703,-30.94641 1.2703,55.24657 1.2703,-53.60598 1.2703,-59.70388 1.2703,64.58937 1.2703,10.67258 1.27029,-8.49868 1.2703,32.06926 1.2703,-32.50032 1.2703,12.82219 1.2703,-14.05039 1.2703,40.37116 1.2703,-68.97658 1.2703,65.2758 1.2703,-28.19909 1.27029,-38.22167 1.2703,67.6897 1.2703,-40.42627 1.2703,10.5742 1.2703,-60.29983 1.2703,23.46766 1.2703,84.63907 1.2703,-88.10489 1.2703,11.86075 1.2703,-28.65583 1.27029,10.9623 1.2703,48.71888 1.2703,-15.16616 1.2703,29.66616 1.2703,3.86514 1.2703,-51.10781 1.2703,-36.94942 1.2703,61.55003 1.2703,-2.90605 1.2703,-23.08944 1.27029,32.39017 1.2703,46.33994 2.5406,-76.64546 1.2703,-31.47577 1.2703,49.8974 1.2703,-9.16804 1.2703,19.67759 1.2703,-29.55953 1.2703,82.64641 1.27029,5.73112 1.2703,-37.71276 1.2703,-43.42911 1.2703,-27.21794 1.2703,13.62019 1.2703,-19.15775 1.2703,9.89496 1.2703,-35.16698 1.2703,64.07667 1.2703,-6.99577 1.27029,-8.01762 1.2703,26.73047 1.2703,-36.16927 1.2703,78.00913 1.2703,-8.73817 1.2703,-82.89454 1.2703,1.73183 1.2703,31.94541 1.2703,5.18823 1.2703,-33.77067 1.27029,-24.58346 1.2703,67.86943 1.2703,24.57442 1.2703,-45.69585 1.2703,-4.67541 1.2703,66.62532 1.2703,-59.94776 1.2703,-1.10244 1.2703,7.4816 1.27029,22.55653 1.2703,-14.64253 1.2703,-52.17068 1.2703,70.41827 1.2703,52.08594 1.2703,-42.11166 1.2703,-38.42319 1.2703,10.11128 1.2703,-23.05441 1.2703,67.80798 1.27029,-40.28872 1.2703,9.99811 1.2703,-48.41658 2.5406,61.61783 1.2703,-26.69733 1.2703,-17.32341 1.2703,33.54107 1.2703,-21.57345 1.2703,1.53419 1.27029,19.48275 1.2703,-30.35459 1.2703,-52.52766 1.2703,75.69245 1.2703,-1.20926 1.2703,-7.38978 1.2703,-32.11038 1.2703,-64.645 1.2703,70.54221 1.2703,-10.53832 1.27029,30.89284 1.2703,1.4127 1.2703,-31.65601 1.2703,5.24134 1.2703,73.47864 1.2703,-97.09698 1.2703,45.27251 1.2703,19.43817 1.2703,-40.96094 1.2703,44.85492 1.27029,-60.25145 1.2703,56.64451 1.2703,24.40622 1.2703,-70.26674 1.2703,-12.94976 1.2703,52.63951 1.2703,-25.51974 1.2703,12.97206 1.2703,-13.38819 1.2703,23.84956 1.27029,-6.09539 1.2703,24.14641 1.2703,-77.31633 1.2703,44.76747 1.2703,24.96206 1.2703,11.00753 1.2703,1.50862 1.2703,17.89161 1.2703,-10.309 1.27029,-38.62052 1.2703,15.725 1.2703,-40.34023 1.2703,22.28178 1.2703,-17.14516 1.2703,17.4591 1.2703,-40.25055 1.2703,36.72744 1.2703,5.3739 1.2703,-45.99673 1.27029,8.19597 1.2703,11.17315 1.2703,37.4307 1.2703,25.9636 1.2703,-41.86786 1.2703,-11.43548 1.2703,19.66345 1.2703,-34.77215 1.2703,37.9708 1.2703,33.20051 1.27029,-60.1364 1.2703,7.32201 1.2703,16.2689 1.2703,60.55485 1.2703,-29.14371 1.2703,-40.03347 1.2703,9.56889 1.2703,19.57958 1.2703,-84.25458 1.2703,-2.9679 1.27029,63.56573 1.2703,14.74977 1.2703,26.80156 1.2703,-85.2647 1.2703,69.82534 1.2703,-23.23896 1.2703,11.32544 1.2703,16.53434 1.2703,-19.26333 1.2703,24.82574 1.2703,-53.97275 1.27029,38.59212 1.2703,30.05671 1.2703,-10.98405 1.2703,-20.01046 1.2703,24.74204 1.2703,14.21785 1.2703,-43.78835 1.2703,-12.80339 1.2703,49.27645 1.2703,-23.81996 1.27029,-53.32957 1.2703,-0.0588 1.2703,35.25246 1.2703,11.42901 1.2703,-33.63985 1.2703,29.07638 1.2703,-50.47517 1.2703,-4.1191 1.2703,4.51219 1.27029,7.00455 1.2703,49.19379 1.2703,22.60034 1.2703,6.13709 1.2703,-15.14947 1.2703,5.19739 1.2703,-26.34249 1.2703,-0.06 1.2703,-13.3065 1.27029,10.73243 1.2703,-5.27265 1.2703,-38.42222 1.2703,-2.78728 1.2703,33.2315 1.2703,-24.26794 1.2703,49.12886 1.2703,-58.92106 1.2703,77.77958 1.2703,-37.18031 1.27029,-15.41321 1.2703,-11.82495 1.2703,39.14054 1.2703,-65.31977 1.2703,20.02196 1.2703,-17.17128 1.2703,-2.75258 1.2703,77.65232 2.5406,-69.23013 1.27029,6.42028 1.2703,80.76468 1.2703,-27.52682 1.2703,-37.9881 1.2703,-17.03665 1.2703,32.06721 1.2703,16.74203 1.2703,-14.01377 1.2703,-21.63331 1.2703,-8.01911 1.27029,27.5895 1.2703,31.25012 1.2703,-62.00268 1.2703,2.3658 1.2703,-6.04861 1.2703,50.35193 1.2703,-1.51584 1.2703,-36.88708 1.2703,26.01873 1.2703,31.07579 1.27029,-31.75518 1.2703,15.34722 1.2703,-86.50305 1.2703,38.47312 1.2703,47.21704 1.2703,-14.68454 1.2703,-51.72451 1.2703,14.99948 1.2703,68.6669 1.2703,-19.17399 1.27029,-71.82199 1.2703,46.29262 1.2703,-2.19171 1.2703,-11.97445 2.5406,55.32739 1.2703,-19.33699 2.5406,13.96299 1.27029,15.75416 1.2703,-28.83149 1.2703,14.41698 1.2703,5.20988 1.2703,-39.05758 1.2703,42.73708 1.2703,-8.56287 1.2703,-20.13336 1.2703,-47.03354 1.2703,31.22231 1.27029,55.8746 1.2703,-63.79658 1.2703,-42.53276 1.2703,25.35084 1.2703,61.70102 1.2703,15.42906 1.2703,-56.52447 1.2703,22.40356 1.2703,-4.9667 1.2703,-3.20293 1.27029,-15.09416 1.2703,-4.13757 1.2703,-16.78821 1.2703,57.04946 1.2703,-2.13508 1.2703,4.09362 1.2703,-17.96479 1.2703,45.4484 1.2703,-62.8156 1.2703,11.12986 1.27029,18.11288 1.2703,-12.53689 1.2703,-4.81291 1.2703,-28.83821 1.2703,0.1874 1.2703,7.87587 1.2703,-5.60962 1.2703,32.37573 1.2703,-0.6228 1.2703,-23.2839 1.27029,3.39235 1.2703,24.27358 1.2703,-17.49723 1.2703,-45.10027 1.2703,98.81771 1.2703,-93.86366 1.2703,-1.3477 1.2703,8.6085 1.2703,72.60955 1.2703,-48.00684 1.27029,-8.6579 1.2703,59.6857 1.2703,-2.42417 1.2703,17.02789 1.2703,-17.2288 1.2703,-43.30557 1.2703,14.10021 1.2703,22.76195 1.2703,-75.96394 1.2703,61.22715 1.27029,25.47056 1.2703,-55.23383 1.2703,51.3345 1.2703,6.04433 1.2703,2.53681 1.2703,-35.28804 1.2703,-9.9151 1.2703,16.42308 1.2703,7.70163 1.2703,-30.2261 1.27029,1.10735 1.2703,10.74761 1.2703,-13.83816 1.2703,13.58512 1.2703,-20.51762 1.2703,-10.09635 1.2703,68.21097 1.2703,15.05677 1.2703,-98.55753 1.2703,70.82431 1.27029,-21.01898 1.2703,5.43023 1.2703,11.76574 1.2703,-54.01895 1.2703,19.25019 1.2703,24.54497 1.2703,29.47161 1.2703,-42.50467 1.2703,43.8906 1.2703,-23.43802 1.27029,-63.9069 1.2703,38.08371 1.2703,24.25525 1.2703,-22.59252 1.2703,4.73324 1.2703,-29.94092 1.2703,-3.8159 1.2703,-24.35852 1.2703,26.77596 1.27029,31.00204 1.2703,-16.94101 1.2703,17.92344 1.2703,-66.16521 1.2703,51.71879 1.2703,18.82528 1.2703,4.12905 1.2703,-26.72339 1.2703,-10.66001 1.2703,-7.93594 1.2703,49.81564 1.27029,18.4967 1.2703,-53.21949 1.2703,39.01784 1.2703,-75.50908 1.2703,15.67307 1.2703,-13.36254 1.2703,15.50151 1.2703,24.52347 1.27029,17.58458 1.2703,-20.28625 1.2703,16.78115 1.2703,-30.00567 1.2703,-20.11778 1.2703,43.6356 1.2703,2.9931 1.2703,-8.40522 1.2703,2.19142 1.2703,21.68432 1.2703,-17.3298 1.27029,-12.59247 1.2703,-29.51938 1.2703,27.76018 1.2703,31.39248 1.2703,-9.56924 1.2703,6.85369 1.2703,34.86285 1.2703,-8.89037 1.2703,21.33366 1.2703,-30.74809 1.27029,15.33994 1.2703,-48.3111 1.2703,-8.10795 1.2703,9.70214 1.2703,6.65553 1.2703,15.94071 1.2703,-9.81446 1.2703,-2.90459 1.2703,14.85259 1.27029,82.00073 1.2703,24.45982 1.2703,-13.504 2.5406,110.97475 1.2703,-5.65852 1.2703,-50.17969 1.2703,12.49349 1.2703,50.41489 1.2703,-85.58246 1.27029,-37.35412 1.2703,-79.28069 1.2703,-31.60541 1.2703,-26.10221 1.2703,24.81469 1.2703,29.3144 1.2703,-25.59809 1.2703,17.46732 1.2703,-18.59864 1.2703,5.11219 1.27029,-33.85269 1.2703,18.8223 1.2703,-18.86063 1.2703,74.68265 1.2703,-42.5564 1.2703,-6.60721 1.2703,28.8306 1.2703,37.24121 1.2703,-17.12988 1.2703,-46.80993 1.27029,54.11028 1.2703,-33.15724 1.2703,34.33454 1.2703,7.03883 1.2703,-99.96697 1.2703,64.08137 1.2703,29.14774 1.2703,-85.68791 1.2703,62.90286 1.2703,-31.9851 1.27029,34.87296 1.2703,-30.7854 1.2703,-26.62087 1.2703,-22.33024 1.2703,8.98288 1.2703,43.73946 1.2703,36.2073 1.2703,-54.47873 1.2703,10.92553 1.27029,-47.39485 1.2703,45.91957 1.2703,58.37993 1.2703,-8.09172 1.2703,20.33883 1.2703,-18.29598 1.2703,7.0193 1.2703,-33.56291 1.2703,9.24238 1.2703,-2.82109 1.2703,-51.71264 1.27029,43.05817 1.2703,-4.0742 1.2703,-3.38374 1.2703,52.96374 1.2703,-27.1905 1.2703,-74.21228 1.2703,61.96303 1.2703,-32.13346 1.2703,-18.00028 1.2703,1.00527 1.27029,0.72351 1.2703,24.51279 1.2703,-1.18875 1.2703,38.06106 1.2703,-49.30691 1.2703,28.49137 2.5406,-43.95051 1.2703,27.30218 1.2703,1.09786 1.27029,16.73867 1.2703,-0.1623 1.2703,0.916 1.2703,-6.19459 1.2703,7.03205 1.2703,15.04498 1.2703,-27.94511 1.2703,-25.44957 2.54059,78.65786 1.2703,4.19601 1.2703,-24.94039 1.2703,-73.50562 1.2703,32.44787 1.2703,19.14168 1.2703,-35.20095 1.2703,51.02974 1.2703,-35.15241 1.27029,59.70274 1.2703,-64.28037 1.2703,20.34 1.2703,16.41574 1.2703,-41.04565 1.2703,-6.28434 1.2703,53.46493 1.2703,-14.70175 1.2703,-50.45333 1.2703,17.60473 1.27029,24.09991 1.2703,16.37923 1.2703,11.68647 1.2703,-48.30122 1.2703,4.67195 1.2703,-10.96639 1.2703,8.56978 1.2703,15.66214 1.2703,-32.96413 1.2703,64.78009 2.54059,-96.28825 1.2703,70.7399 1.2703,6.2262 1.2703,7.30443 1.2703,35.12862 1.2703,-25.73166 1.2703,-28.21171 1.2703,64.13792 1.2703,-47.09638 1.2703,12.84379 1.27029,-46.49467 1.2703,15.62733 1.2703,66.92336 2.5406,-75.30573 1.2703,-6.99665 1.2703,-36.6765 1.2703,26.62589 1.2703,32.74788 1.27029,-43.69576 1.2703,76.7476 1.2703,-9.84279 1.2703,-12.95845 1.2703,-10.75538 0,0" /></g></g><g
       id="g154"><g
         clip-path="url(#clipPath158)"
         id="g156"><path
           id="path162"
           style="fill:none;stroke:#ff7f0e;stroke-width:3;stroke-linecap:square;stroke-linejoin:round;stroke-miterlimit:10;stroke-dasharray:none;stroke-opacity:1"
           d="m 148.60483,248.32996 1.2703,-21.50721 2.5406,43.69816 1.27029,-13.84121 1.2703,-56.08106 1.2703,114.22101 1.2703,-34.46659 1.2703,-19.79011 1.2703,49.64905 1.2703,-58.02875 1.2703,0.43888 1.2703,8.80348 1.2703,22.49199 1.27029,-3.53982 1.2703,-43.66269 2.5406,35.97279 1.2703,-46.57086 1.2703,-10.21905 1.2703,42.98141 1.2703,3.24521 1.2703,20.39623 1.2703,-41.78396 1.27029,30.87511 1.2703,-44.84379 1.2703,3.16092 1.2703,45.71172 1.2703,-25.3882 1.2703,-28.77006 1.2703,-16.0368 1.2703,62.62001 1.2703,-7.17 1.2703,36.85459 1.27029,-19.35933 1.2703,1.90358 1.2703,-20.57164 1.2703,-24.92816 1.2703,-39.47137 1.2703,17.73137 1.2703,25.14691 1.2703,2.85525 1.2703,10.47 1.2703,32.33965 1.27029,-6.56862 1.2703,-22.08478 2.5406,-64.06093 1.2703,38.70508 1.2703,11.11211 1.2703,35.42934 1.2703,30.3911 1.2703,-59.43158 1.2703,-3.93117 1.27029,5.94295 1.2703,-22.01394 1.2703,21.75437 1.2703,12.74355 1.2703,11.07194 1.2703,-61.31313 1.2703,82.97146 1.2703,-82.76575 1.2703,42.60499 1.27029,28.99275 1.2703,-61.24187 1.2703,40.88075 1.2703,-19.03291 1.2703,21.32048 1.2703,-29.11845 1.2703,-40.41382 1.2703,52.92079 1.2703,18.48919 1.2703,9.71061 1.27029,-73.69087 1.2703,-34.78663 1.2703,59.75012 1.2703,-11.90163 1.2703,19.03795 1.2703,32.40696 1.2703,42.79883 1.2703,-49.63704 1.2703,-24.83029 1.2703,30.95268 1.27029,-30.53073 1.2703,-33.53573 1.2703,32.58737 1.2703,50.64639 1.2703,12.19671 1.2703,-48.04012 1.2703,-11.59435 1.2703,14.38611 1.2703,43.81509 1.2703,-68.39992 1.27029,8.54588 1.2703,36.23604 1.2703,32.11729 1.2703,-7.29091 1.2703,-28.29318 1.2703,35.3544 1.2703,-1.82432 1.2703,8.36259 1.2703,-30.58378 1.2703,11.5151 1.27029,-11.43206 1.2703,-23.14689 1.2703,1.67413 1.2703,-47.77696 1.2703,19.66816 1.2703,67.98815 1.2703,6.64531 1.2703,-28.09987 1.2703,-33.19046 1.2703,34.62376 1.27029,2.3391 1.2703,-22.22564 1.2703,-61.19047 1.2703,46.13142 1.2703,6.03827 1.2703,-24.34979 1.2703,40.10537 1.2703,-14.65362 1.2703,28.05011 1.27029,-41.99179 1.2703,-6.99778 1.2703,57.43025 1.2703,-67.44862 1.2703,-53.44216 1.2703,64.04932 1.2703,45.15316 1.2703,5.51107 1.2703,10.04839 1.2703,-84.88857 1.27029,36.48673 1.2703,5.04483 1.2703,56.34867 1.2703,-16.97745 1.2703,-45.30494 1.2703,41.51731 1.2703,10.83664 1.2703,-31.02754 1.2703,-9.18893 2.54059,37.59245 1.2703,-14.36725 1.2703,65.37533 1.2703,-43.92156 1.2703,19.77918 2.5406,167.32429 1.2703,63.8046 1.2703,-20.01585 1.2703,60.77994 1.27029,3.74453 1.2703,-20.3 1.2703,3.92933 1.2703,-16.99824 1.2703,-169.82494 1.2703,7.58916 1.2703,-101.98653 1.2703,-46.80207 1.2703,25.98024 1.2703,-48.96433 1.27029,31.11814 1.2703,0.70329 1.2703,-8.64631 1.2703,54.26581 1.2703,-3.43096 1.2703,-84.69025 1.2703,72.69197 1.2703,-17.66144 1.2703,-14.20166 1.2703,5.1091 1.27029,13.21297 1.2703,-20.85033 1.2703,76.87493 1.2703,-25.87262 1.2703,-58.84277 1.2703,8.99387 1.2703,-12.57567 1.2703,-5.34431 1.2703,5.01535 1.27029,12.40257 1.2703,-38.50642 1.2703,35.99225 1.2703,3.49703 1.2703,-20.2869 1.2703,-11.96212 1.2703,45.21604 1.2703,-20.63348 1.2703,25.5061 1.2703,39.39761 1.27029,-21.4623 1.2703,-6.32728 1.2703,-47.05714 1.2703,4.37741 1.2703,27.48393 1.2703,14.18048 1.2703,4.84052 1.2703,2.30328 1.2703,-32.17452 1.2703,-13.74211 1.27029,13.78728 1.2703,26.05319 1.2703,-11.40807 1.2703,-43.98242 1.2703,25.62491 1.2703,45.59439 1.2703,-3.82941 1.2703,-7.40745 1.2703,75.22294 1.2703,-5.8633 1.27029,-59.09661 1.2703,-25.29497 1.2703,-9.93146 1.2703,85.63465 1.2703,-71.78191 1.2703,-21.53609 1.2703,23.19516 1.2703,-50.20446 1.2703,39.82959 1.2703,-30.52593 1.2703,52.85126 1.27029,-29.29114 1.2703,-35.42197 1.2703,19.47588 1.2703,5.08206 1.2703,-24.80946 1.2703,-18.61687 1.2703,54.06067 1.2703,3.74651 1.2703,-11.16358 1.2703,33.87433 2.54059,58.42505 1.2703,-75.45708 1.2703,-14.47454 1.2703,30.50126 1.2703,-8.63133 1.2703,18.36648 1.2703,62.29177 1.2703,-10.81235 1.27029,7.21308 1.2703,-61.79512 1.2703,-10.29189 1.2703,29.34796 1.2703,-14.19984 1.2703,15.0132 1.2703,44.15724 2.5406,-57.24758 1.27029,37.44943 1.2703,-17.53006 1.2703,-4.19028 1.2703,13.14633 1.2703,-44.00081 1.2703,31.5739 1.2703,-8.01466 1.2703,35.72332 1.2703,-59.23988 1.2703,2.33718 1.27029,12.94145 1.2703,29.19202 1.2703,-53.89404 1.2703,36.19109 1.2703,-19.14336 1.2703,13.6843 1.2703,-25.81013 1.2703,-66.19297 1.2703,38.40946 1.2703,17.53638 1.27029,28.63585 1.2703,-7.65784 1.2703,9.78418 1.2703,18.14692 1.2703,37.5995 2.5406,-127.13248 1.2703,22.81464 1.2703,34.15122 1.2703,14.61097 1.27029,-3.71836 1.2703,-23.64693 1.2703,55.00651 1.2703,-15.9938 1.2703,24.55406 1.2703,-40.46654 1.2703,-2.10241 1.2703,27.12981 1.2703,-9.93652 1.2703,-45.0088 1.27029,59.85532 1.2703,-31.36049 1.2703,105.68074 1.2703,-60.99043 1.2703,-50.03799 1.2703,55.40188 1.2703,36.23645 1.2703,-43.30857 1.2703,-80.72599 1.2703,18.65059 1.27029,70.40449 1.2703,-34.67563 1.2703,-2.5978 1.2703,6.7963 1.2703,7.51895 1.2703,-4.35106 1.2703,-11.28234 1.2703,2.76251 1.2703,-7.45543 1.27029,-6.38082 1.2703,5.58676 1.2703,-1.16713 1.2703,-21.81066 1.2703,25.13501 1.2703,-35.31846 1.2703,6.93731 1.2703,27.24022 1.2703,23.61654 1.2703,-24.96693 1.27029,-65.48893 1.2703,64.99989 1.2703,30.48968 1.2703,-21.83625 2.5406,-86.206 1.2703,40.23757 1.2703,-26.7226 1.2703,5.58491 1.2703,-2.79738 1.27029,6.12119 1.2703,18.33085 1.2703,27.16628 1.2703,-24.92555 1.2703,-30.54353 1.2703,-4.2973 1.2703,26.12727 1.2703,-27.69684 1.2703,26.91156 1.2703,-15.80007 1.27029,13.41249 1.2703,6.26152 1.2703,-3.63283 1.2703,44.23762 1.2703,-27.66724 1.2703,-12.63972 1.2703,20.74678 1.2703,-7.14594 1.2703,-0.94249 1.2703,49.59246 1.27029,-29.98093 1.2703,-36.2391 1.2703,19.10019 1.2703,59.88104 1.2703,-91.91812 1.2703,95.19329 1.2703,17.00796 1.2703,-6.62184 1.2703,-64.44403 1.2703,28.73333 1.27029,24.46377 1.2703,-68.97549 1.2703,12.96895 1.2703,2.00087 1.2703,10.58374 1.2703,21.16204 1.2703,-37.78656 1.2703,-2.31628 1.2703,70.64383 1.2703,-25.87033 1.27029,-34.74375 1.2703,48.28381 1.2703,-63.03753 1.2703,-0.13365 1.2703,-36.79078 1.2703,65.52624 1.2703,-26.02248 1.2703,15.75202 1.2703,3.28859 1.2703,32.3812 1.27029,16.98845 1.2703,-33.26513 1.2703,17.49362 1.2703,-3.48415 1.2703,34.91071 1.2703,-5.85371 1.2703,-55.65218 1.2703,-12.65493 1.2703,68.91873 1.2703,-73.81546 1.27029,63.75264 1.2703,-32.41916 1.2703,-2.89634 1.2703,34.97264 1.2703,-10.07618 1.2703,-38.58918 1.2703,-34.83573 1.2703,42.45064 1.2703,-41.07158 1.2703,50.75195 1.27029,27.80738 1.2703,4.59884 1.2703,-92.6904 1.2703,37.29806 1.2703,5.25428 1.2703,-9.9658 1.2703,20.42426 1.2703,34.29006 1.2703,-30.07914 1.27029,-26.49752 1.2703,21.98147 1.2703,-47.94401 1.2703,84.89759 2.5406,-63.94153 1.2703,13.02967 1.2703,-3.39554 1.2703,6.32071 1.2703,-8.83803 2.54059,-80.22845 1.2703,64.85709 1.2703,17.3402 1.2703,57.32838 1.2703,4.48633 1.2703,6.85502 1.2703,-33.2396 1.2703,-47.49395 1.27029,-32.63302 1.2703,33.94502 1.2703,16.40228 1.2703,7.90219 1.2703,10.35278 2.5406,-47.3911 1.2703,29.61995 1.2703,15.32654 1.2703,-41.22097 1.2703,5.55082 2.54059,62.9739 1.2703,-27.76641 1.2703,-24.93554 1.2703,17.0939 1.2703,-2.34675 1.2703,-27.97988 1.2703,25.12154 1.2703,-26.38876 1.2703,26.16562 1.27029,-16.2327 1.2703,23.70408 2.5406,39.49833 1.2703,-50.46843 1.2703,-26.77786 1.2703,22.24143 1.2703,18.27487 2.54059,-30.87099 1.2703,-2.84215 1.2703,63.81384 1.2703,-13.84894 1.2703,-18.99181 1.2703,-5.02117 1.2703,44.33251 1.2703,-9.61369 1.2703,-32.00001 1.2703,5.88307 1.27029,-20.26771 1.2703,13.07802 1.2703,43.77689 1.2703,22.92029 1.2703,-42.2164 1.2703,-23.34951 1.2703,6.10018 1.2703,-6.66046 1.2703,20.88973 2.54059,28.84233 1.2703,-14.47846 1.2703,2.16273 1.2703,-37.62006 1.2703,19.80279 1.2703,-4.16228 1.2703,-33.39609 1.2703,-30.03954 1.2703,19.54014 1.2703,58.49641 1.27029,-50.93087 1.2703,21.91306 1.2703,-56.24901 1.2703,8.88274 1.2703,72.55526 1.2703,-60.74276 1.2703,-33.20197 1.2703,62.7237 1.2703,-78.81949 1.2703,46.45921 1.27029,-20.9836 1.2703,7.999 1.2703,37.4769 1.2703,0.57246 1.2703,9.34502 1.2703,-1.62387 1.2703,-23.17269 1.2703,33.29475 1.2703,15.52105 1.27029,51.45206 1.2703,-67.27334 1.2703,-42.80228 1.2703,25.31604 1.2703,15.39522 1.2703,-14.41657 1.2703,-17.47741 1.2703,52.85509 1.2703,-21.00261 1.2703,9.48371 1.2703,31.28156 1.27029,-28.64684 1.2703,-12.82851 1.2703,33.24145 1.2703,-69.48466 1.2703,-25.39322 1.2703,102.16779 1.2703,-80.21834 1.2703,29.92438 1.2703,49.60008 1.2703,20.2147 1.27029,-9.08752 1.2703,-33.9185 1.2703,-9.71279 1.2703,-25.34031 1.2703,46.73776 1.2703,-47.00308 1.2703,32.48352 1.2703,-5.82088 1.2703,-26.22629 1.2703,-7.11165 1.27029,-30.02652 1.2703,26.25531 1.2703,38.2044 1.2703,-14.55597 1.2703,19.98525 1.2703,-42.00683 1.2703,32.47216 1.2703,22.78525 1.27029,-63.36916 1.2703,-47.54656 1.2703,-16.95355 1.2703,16.3455 1.2703,44.65795 1.2703,-0.74471 1.2703,1.18007 1.2703,23.41405 1.2703,-62.38464 1.2703,1.46204 1.27029,5.5686 1.2703,37.93013 1.2703,-20.56704 1.2703,-13.25396 1.2703,70.87454 1.2703,6.6362 1.2703,-76.49128 1.2703,20.77453 1.2703,42.11643 1.2703,3.08528 1.27029,-36.66366 1.2703,-0.20589 1.2703,-3.45429 1.2703,33.6376 1.2703,13.91323 1.2703,-32.83446 1.2703,-14.60687 1.2703,11.25129 1.2703,52.80151 1.2703,-84.83685 1.27029,51.37663 1.2703,56.22233 1.2703,-74.46202 2.5406,-34.00708 1.2703,24.86149 1.2703,7.57176 1.2703,24.43401 1.2703,-57.48814 1.2703,29.39185 1.2703,-19.31283 1.27029,89.47933 1.2703,-14.0902 1.2703,-41.1253 1.2703,33.18035 1.2703,13.26608 1.2703,10.41822 1.2703,28.68131 1.2703,-70.73932 1.2703,-9.7683 1.27029,80.35577 1.2703,-87.3194 1.2703,15.72471 1.2703,39.99937 1.2703,4.82777 0,0" /></g></g><g
       id="g164"><g
         clip-path="url(#clipPath168)"
         id="g166"><path
           id="path172"
           style="fill:none;stroke:#000000;stroke-width:3;stroke-linecap:butt;stroke-linejoin:round;stroke-miterlimit:10;stroke-dasharray:11.1, 4.8;stroke-dashoffset:0;stroke-opacity:0.7"
           d="m 148.60483,184.14486 1.2703,-3.63829 1.2703,-5.67179 1.2703,-4.06627 1.27029,1.41141 1.2703,0.796 2.5406,6.59046 1.2703,4.48224 1.2703,-0.004 1.2703,2.22145 1.2703,-0.44746 1.2703,-3.74331 1.2703,-2.39377 1.27029,-0.29926 1.2703,-4.64479 1.2703,1.15387 1.2703,4.69436 1.2703,1.33115 1.2703,-1.88544 1.2703,3.89975 1.2703,1.72533 1.2703,-3.96615 1.2703,-0.74812 1.27029,3.41333 2.5406,4.26517 1.2703,2.88378 1.2703,2.55192 1.2703,-2.56016 1.2703,-5.42129 1.2703,-4.26346 1.2703,-1.12773 1.2703,0.58467 1.27029,1.43386 1.2703,-1.24269 1.2703,-0.0686 1.2703,-1.23748 1.2703,-1.74791 1.2703,-2.62815 2.5406,2.73329 1.2703,0.48997 1.2703,-0.52955 1.27029,-0.71067 1.2703,0.0832 1.2703,0.35973 1.2703,2.04023 1.2703,1.1018 1.2703,2.60941 1.2703,0.24608 1.2703,-1.72653 1.2703,-0.62816 1.2703,-2.00051 1.27029,-0.23242 1.2703,2.32449 1.2703,1.08492 1.2703,-2.27806 1.2703,3.07876 1.2703,0.76473 1.2703,0.44317 1.2703,0.13579 1.2703,-0.99789 2.54059,-4.49378 1.2703,-3.97792 1.2703,-0.4911 1.2703,2.19096 1.2703,2.42297 1.2703,-0.45085 1.2703,-4.42335 1.2703,7.41323 1.2703,0.42268 1.27029,-3.36554 1.2703,3.60434 1.2703,9.41005 1.2703,-6.68578 1.2703,-0.3557 1.2703,1.69068 1.2703,-0.46016 1.2703,-0.22153 1.2703,-2.66814 1.2703,0.67136 1.27029,3.21506 1.2703,0.0462 1.2703,-5.10615 1.2703,0.24993 1.2703,0.4463 1.2703,-3.33179 1.2703,-2.06031 1.2703,2.03059 1.2703,2.91547 1.2703,5.07767 1.27029,0.2104 1.2703,-3.16747 1.2703,0.5933 1.2703,-2.00925 1.2703,-3.56545 1.2703,0.54197 1.2703,3.33695 1.2703,-0.21746 1.2703,0.86247 1.2703,-3.12828 1.27029,-0.0731 1.2703,-1.31973 1.2703,0.13459 1.2703,1.40704 1.2703,2.3657 1.2703,-2.08503 1.2703,-0.14602 1.2703,-0.46893 1.2703,-6.05793 1.2703,-4.0768 1.27029,-2.1257 1.2703,1.49356 1.2703,0.63272 1.2703,2.34297 1.2703,3.67845 1.2703,7.94224 1.2703,-0.015 1.2703,2.40933 1.2703,3.9432 1.27029,2.44887 1.2703,-6.19956 1.2703,0.14664 1.2703,-3.41666 1.2703,-0.37202 1.2703,-1.20471 1.2703,4.31829 1.2703,0.18996 1.2703,2.85919 1.2703,0.45618 1.27029,-1.40091 1.2703,-1.18063 1.2703,-0.29804 1.2703,-2.08706 1.2703,-3.51608 1.2703,-1.23276 1.2703,-0.47232 1.2703,0.44 1.2703,-0.21935 1.2703,3.22527 1.27029,1.66079 1.2703,-2.60281 1.2703,-0.35052 1.2703,-3.30094 1.2703,-2.50748 1.2703,0.45342 1.2703,-0.0462 1.2703,-0.63764 1.2703,3.80329 1.2703,0.30204 1.27029,-2.64915 1.2703,-0.98342 1.2703,-1.40808 1.2703,-0.67197 1.2703,0.88369 1.2703,1.14053 1.2703,0.81237 1.2703,2.33867 1.2703,-1.66401 1.2703,-1.32955 1.27029,0.27499 1.2703,2.13235 1.2703,0.88012 1.2703,2.15205 1.2703,-0.34273 1.2703,-3.67659 1.2703,0.39888 1.2703,-0.0333 1.2703,3.00853 1.2703,0.86443 1.27029,3.00143 1.2703,-1.32613 1.2703,0.49325 1.2703,2.11017 1.2703,1.33604 2.5406,4.38008 1.2703,-3.37749 1.2703,-5.9809 1.27029,0.98366 1.2703,-2.47667 1.2703,-2.10552 2.5406,2.94889 1.2703,-0.52302 1.2703,1.62234 1.2703,0.88749 1.2703,-2.19426 1.2703,-2.91296 1.27029,-2.07847 1.2703,0.5115 1.2703,2.11029 1.2703,0.67673 1.2703,1.5359 1.2703,1.71309 1.2703,-0.0269 1.2703,-2.87888 1.2703,-0.23368 1.2703,1.42436 1.27029,0.71417 1.2703,-2.12755 1.2703,0.69409 1.2703,4.67954 1.2703,-0.0893 1.2703,-1.23322 1.2703,1.84837 1.2703,0.30327 1.2703,-2.20846 1.2703,2.37277 1.27029,3.21726 1.2703,0.87721 1.2703,1.08951 1.2703,-1.3523 1.2703,-0.66573 1.2703,-8.89866 1.2703,-7.57561 1.2703,-2.2102 1.2703,4.08981 1.2703,-1.78896 1.2703,3.20514 1.27029,8.84697 1.2703,2.39163 1.2703,-1.40831 1.2703,-0.21728 1.2703,2.92635 1.2703,-3.86182 1.2703,-3.21044 1.2703,-1.85038 1.2703,0.0452 1.2703,-1.8781 1.27029,-0.36656 1.2703,3.10725 1.2703,-0.79123 1.2703,-0.31776 1.2703,2.50429 1.2703,1.8051 1.2703,1.10023 1.2703,3.10466 1.2703,0.42262 1.27029,-1.04881 1.2703,-2.09256 1.2703,-0.95556 1.2703,-0.23469 1.2703,-1.43344 1.2703,2.01966 1.2703,3.23102 1.2703,-2.87252 1.2703,-3.48366 1.27029,-0.0777 1.2703,-2.01241 1.2703,-1.48065 1.2703,4.34316 1.2703,0.61241 2.5406,11.24507 1.2703,-1.62875 1.2703,-1.32463 1.2703,-2.70884 1.27029,-6.9325 1.2703,-5.2844 1.2703,1.12031 1.2703,-1.64133 1.2703,4.2012 1.2703,4.76282 1.2703,-3.04709 1.2703,-0.12565 1.2703,-3.6138 1.2703,0.10267 1.27029,-2.38828 1.2703,2.08627 1.2703,0.59366 1.2703,2.4739 1.2703,-3.36965 1.2703,-7.16722 1.2703,5.41311 1.2703,-2.94674 1.2703,-1.09033 1.2703,3.80156 1.27029,4.59935 1.2703,-6.88389 1.2703,-0.11855 1.2703,0.58475 1.2703,2.56892 1.2703,0.31109 1.2703,2.60118 1.2703,1.66874 1.2703,3.19302 1.2703,-2.55617 1.27029,2.91533 1.2703,-1.5461 1.2703,4.52185 1.2703,0.8709 1.2703,-0.6443 1.2703,-2.86898 1.2703,3.57808 1.2703,-5.06779 1.2703,-1.59301 1.2703,-1.80932 1.27029,-2.1558 1.2703,4.99346 1.2703,2.61927 1.2703,-3.04014 1.2703,3.49006 1.2703,5.78403 1.2703,-10.81635 1.2703,-0.69566 1.2703,5.44349 1.27029,-2.19828 1.2703,-2.51027 1.2703,3.79791 1.2703,0.45436 1.2703,-1.95498 1.2703,-1.28729 1.2703,-2.54942 1.2703,-0.40329 1.2703,-1.51068 1.2703,-4.06183 1.27029,4.82363 1.2703,2.59304 1.2703,-4.78202 1.2703,-1.02697 1.2703,1.45648 1.2703,-2.95117 1.2703,-1.46422 1.2703,2.73551 1.2703,2.44969 1.2703,0.10065 1.27029,0.98124 1.2703,3.41101 1.2703,4.39917 1.2703,3.74011 1.2703,1.79715 1.2703,-0.87604 1.2703,-3.36441 1.2703,-1.13023 1.2703,-5.69447 2.54059,-6.59993 1.2703,-1.89887 1.2703,-2.92618 1.2703,-1.74355 1.2703,0.95405 1.2703,1.80034 1.2703,2.30199 1.2703,2.84454 1.2703,4.35815 1.2703,2.43753 1.27029,-0.18783 1.2703,0.41708 1.2703,-0.99479 1.2703,-0.0638 1.2703,-2.17597 1.2703,0.55066 1.2703,1.26082 1.2703,-2.66173 1.2703,-1.5848 1.2703,2.97499 1.27029,-0.24613 1.2703,-1.41367 1.2703,3.15146 1.2703,0.21128 1.2703,-2.79144 1.2703,-0.49083 1.2703,0.8648 1.2703,2.62671 1.2703,0.92112 1.2703,1.7437 1.27029,5.83543 1.2703,1.26545 1.2703,-3.7989 1.2703,0.61691 1.2703,2.20068 1.2703,-6.25857 1.2703,-2.24196 1.2703,3.06586 1.2703,-0.67922 1.2703,-5.39748 1.27029,0.79981 1.2703,2.77761 1.2703,-4.5067 1.2703,-0.96669 1.2703,0.56974 1.2703,-0.32619 1.2703,0.18418 1.2703,1.59622 1.2703,-0.49776 2.54059,0.75785 1.2703,-1.40189 1.2703,1.53353 1.2703,2.45261 1.2703,0.19094 1.2703,-1.38985 1.2703,-1.01812 1.2703,2.46755 1.2703,-0.61891 1.2703,-2.71732 1.27029,4.40395 1.2703,-1.75867 1.2703,-5.05579 1.2703,-1.01038 1.2703,2.39023 1.2703,-1.77708 1.2703,2.4245 1.2703,1.1477 1.2703,-6.30275 1.27029,-0.3891 1.2703,-1.41859 1.2703,-0.13882 1.2703,-0.32555 1.2703,3.19194 1.2703,0.66043 1.2703,-1.64784 1.2703,-2.42065 1.2703,0.14221 1.2703,7.25344 1.2703,4.33836 2.54059,0.28379 1.2703,-3.29051 1.2703,-4.77886 1.2703,-7.93402 1.2703,-0.20636 1.2703,2.1088 1.2703,5.47854 1.27029,0.2756 1.2703,5.67055 1.2703,-0.46223 1.2703,-3.45244 1.2703,-2.02477 1.2703,5.66014 1.2703,-2.29937 1.2703,4.08365 1.2703,2.98595 1.2703,-3.43034 1.2703,-2.30962 1.27029,2.11481 2.5406,-3.23585 1.2703,2.00726 1.2703,-4.24267 1.2703,0.0826 1.2703,4.51636 1.2703,0.92662 1.2703,1.34514 1.2703,1.9144 1.27029,-2.98781 1.2703,-5.425 1.2703,0.23662 2.5406,-2.41231 1.2703,0.6134 1.2703,6.01385 1.2703,5.18935 1.2703,10.93801 1.27029,42.3999 1.2703,27.8228 1.2703,3.68009 1.2703,15.38755 1.2703,40.67538 1.2703,10.03461 1.2703,-1.1373 1.2703,-3.09527 1.2703,-17.76741 2.54059,-101.25374 1.2703,-24.48672 1.2703,-6.66491 1.2703,-1.29361 1.2703,-1.73112 1.2703,-5.35755 1.2703,-1.23147 1.2703,1.82932 1.2703,-0.86876 1.2703,1.11632 1.27029,7.8456 1.2703,1.11221 1.2703,-4.81236 1.2703,3.0011 1.2703,4.86039 1.2703,-8.98509 1.2703,-1.42343 1.2703,7.57204 1.2703,3.72495 1.2703,5.56267 1.27029,4.03258 1.2703,2.48749 1.2703,-3.2379 1.2703,-6.43884 1.2703,-10.0515 1.2703,7.68837 1.2703,-3.81792 1.2703,-0.89425 1.2703,-2.98257 1.2703,-2.54493 1.27029,-5.73937 1.2703,0.303 1.2703,-0.67563 1.2703,3.65346 1.2703,1.91658 1.2703,1.11763 1.2703,-1.87083 1.2703,0.40304 1.2703,1.48765 1.27029,2.02688 1.2703,-2.41821 1.2703,6.46451 1.2703,1.32037 1.2703,5.35718 1.2703,-2.94773 1.2703,-0.0681 1.2703,-1.60942 1.2703,1.84698 1.2703,-3.25664 1.2703,0.30748 1.27029,2.00822 1.2703,-0.95039 1.2703,-1.23805 1.2703,-4.63801 1.2703,-0.43547 1.2703,0.91678 1.2703,0.35176 1.2703,-3.58792 1.2703,0.47465 1.2703,2.5542 1.27029,0.0713 1.2703,-4.56503 1.2703,4.35805 1.2703,-4.38837 1.2703,-1.60815 1.2703,-2.61242 1.2703,-0.29897 1.2703,-9.02177 1.2703,3.9304 1.2703,0.25812 1.27029,1.3934 1.2703,7.72981 1.2703,9.20193 1.2703,1.81758 1.2703,0.31473 1.2703,0.10462 1.2703,-0.14905 1.2703,-2.9415 1.27029,0.70512 1.2703,1.76963 1.2703,2.16191 1.2703,-0.83752 1.2703,2.98642 1.2703,-1.16857 1.2703,-0.56062 1.2703,-1.37473 1.2703,1.70905 1.2703,0.0988 1.27029,2.4872 1.2703,0.24955 1.2703,-0.28841 1.2703,-5.35713 1.2703,-2.16092 1.2703,-0.16709 1.2703,-2.00667 1.2703,0.69111 1.2703,2.03408 1.2703,2.77356 1.27029,-1.0531 1.2703,1.76445 1.2703,-2.45323 1.2703,-2.99674 1.2703,-0.29001 2.5406,-7.97493 2.5406,5.14047 1.2703,-4.79897 1.27029,1.46828 1.2703,4.33281 1.2703,0.0116 1.2703,2.11909 1.2703,7.4309 1.2703,6.74031 1.2703,-5.10076 1.2703,-10.03366 1.2703,-3.37998 1.2703,-6.4361 1.2703,-5.61086 1.27029,4.6099 1.2703,9.1633 1.2703,1.58993 1.2703,0.0489 1.2703,-1.37655 1.2703,1.01429 1.2703,-0.23802 1.2703,1.31307 1.2703,3.55246 1.27029,3.04815 1.2703,0.31534 1.2703,4.59799 1.2703,1.03834 1.2703,-1.28188 0,0" /></g></g><g
       id="g174"><g
         clip-path="url(#clipPath178)"
         id="g176"><path
           id="path182"
           style="fill:none;stroke:#000000;stroke-width:3;stroke-linecap:butt;stroke-linejoin:round;stroke-miterlimit:10;stroke-dasharray:11.1, 4.8;stroke-dashoffset:0;stroke-opacity:0.7"
           d="m 148.60483,223.98035 1.2703,5.41268 1.2703,-2.80212 1.2703,11.03619 1.27029,4.89279 1.2703,7.98411 1.2703,-3.16178 1.2703,-6.02464 1.2703,-3.41232 1.2703,8.45007 1.2703,-6.26228 1.2703,2.33491 1.2703,9.07378 1.2703,-5.09433 1.27029,-3.41324 1.2703,2.20731 1.2703,0.14427 1.2703,1.2768 1.2703,-1.62951 1.2703,-4.4152 1.2703,-7.07467 1.2703,-0.84464 1.2703,-2.35253 1.2703,1.9604 1.27029,0.76107 1.2703,7.11887 1.2703,-4.7932 1.2703,-6.15923 1.2703,-4.27824 1.2703,6.61145 1.2703,2.0778 1.2703,6.60572 1.2703,3.21163 1.2703,5.34273 1.27029,-9.96535 1.2703,-6.29474 1.2703,-0.0243 1.2703,4.36582 1.2703,0.085 1.2703,6.1512 1.2703,6.7659 1.2703,-4.42397 1.2703,-0.28906 1.2703,4.63276 1.27029,-1.03383 1.2703,-3.1896 1.2703,2.37416 1.2703,-0.83578 1.2703,-9.86695 1.2703,-2.28952 1.2703,3.90022 1.2703,-0.75822 1.2703,-1.07775 1.2703,8.66403 1.27029,3.87624 1.2703,-3.43231 1.2703,1.08969 1.2703,0.86217 2.5406,-4.36874 1.2703,1.86191 1.2703,4.45884 1.2703,1.23247 1.27029,-0.81832 1.2703,-1.4831 1.2703,-5.7122 2.5406,-16.53099 1.2703,1.32723 1.2703,-2.20055 1.2703,2.45871 1.2703,-17.21795 1.2703,-13.11133 1.27029,-7.83152 1.2703,6.66012 1.2703,0.88305 2.5406,38.61387 1.2703,6.49583 1.2703,-6.43478 2.5406,-2.01962 1.2703,-1.51474 1.27029,2.53256 1.2703,3.06916 1.2703,1.20421 1.2703,1.53189 1.2703,5.61763 1.2703,-0.7208 1.2703,1.22653 1.2703,4.2105 1.2703,8.25907 1.2703,0.55143 1.27029,1.29251 1.2703,1.09273 1.2703,-1.72797 1.2703,-12.04751 1.2703,-3.85093 1.2703,2.05014 1.2703,-5.82815 1.2703,-1.44213 1.2703,4.36931 1.2703,0.50018 1.27029,-1.95225 1.2703,0.99806 1.2703,-5.25188 1.2703,5.23788 1.2703,-0.19206 1.2703,0.96679 1.2703,3.30619 1.2703,6.10459 1.2703,-8.57255 1.2703,-3.09491 1.27029,-3.41088 1.2703,-4.07139 1.2703,-5.09575 2.5406,11.38193 1.2703,0.97174 1.2703,4.15332 1.2703,1.57471 1.2703,-7.05835 1.27029,-15.1184 1.2703,-3.39264 1.2703,2.69956 1.2703,-0.10651 1.2703,2.14864 1.2703,11.30551 1.2703,5.83692 1.2703,-5.50473 1.2703,0.36921 1.2703,0.25151 1.27029,-1.67925 1.2703,3.86499 1.2703,14.07333 1.2703,6.44763 1.2703,2.91403 1.2703,1.44704 1.2703,-6.51858 1.2703,-11.05222 1.2703,-4.87563 1.2703,3.98312 1.27029,0.0987 1.2703,-3.29351 1.2703,8.96186 2.5406,35.0874 2.5406,119.4297 1.2703,19.93309 1.2703,14.50506 1.2703,37.95886 1.27029,18.77239 1.2703,-5.66397 1.2703,-7.13378 1.2703,-23.89753 2.5406,-132.15996 1.2703,-48.29347 1.2703,-27.57422 1.2703,-10.91741 1.2703,7.22039 1.27029,-7.0747 1.2703,-1.98785 1.2703,4.7473 1.2703,1.42881 1.2703,-6.17201 1.2703,-3.32176 1.2703,3.00876 1.2703,5.03426 1.2703,1.7347 1.2703,2.63319 1.27029,-5.2798 1.2703,3.88118 1.2703,-1.05519 1.2703,3.56749 1.2703,2.99773 1.2703,4.69329 1.2703,-10.78937 1.2703,-7.60286 1.2703,7.82813 1.27029,-4.45296 1.2703,-21.85041 1.2703,6.46301 1.2703,-3.34619 1.2703,-15.40798 1.2703,7.20229 1.2703,17.17303 1.2703,-2.97362 1.2703,10.20759 1.2703,2.26643 1.27029,-9.70936 1.2703,7.8167 1.2703,3.64654 1.2703,1.6277 1.2703,-3.45044 1.2703,5.17364 1.2703,-2.70744 1.2703,1.71421 1.2703,2.41227 1.2703,3.1125 1.27029,-0.27769 1.2703,-0.89746 1.2703,-3.89437 1.2703,-1.67765 1.2703,6.51339 1.2703,5.12456 1.2703,3.78767 1.2703,7.4957 1.2703,-0.79123 1.2703,-3.68606 1.27029,-6.34324 1.2703,-1.05615 1.2703,-2.12389 1.2703,-1.61016 1.2703,0.49625 1.2703,4.84703 1.2703,0.19832 1.2703,-3.37645 1.2703,-0.28583 1.2703,-4.4046 1.2703,0.92866 1.27029,-0.30759 1.2703,0.76617 1.2703,-4.78916 1.2703,0.28742 1.2703,-3.75737 1.2703,-0.67184 1.2703,-1.09515 1.2703,8.95301 1.2703,12.89608 1.2703,9.20678 1.27029,-1.09263 1.2703,9.30341 1.2703,-8.75925 1.2703,-11.04326 1.2703,3.92527 1.2703,5.85814 1.2703,-5.83295 1.2703,12.05454 1.2703,6.96677 1.27029,-6.18419 1.2703,2.86146 1.2703,19.47807 1.2703,0.96461 1.2703,3.9954 1.2703,-0.22309 1.2703,0.62062 1.2703,-15.7944 1.2703,-5.16544 1.27029,-4.2065 1.2703,-2.5937 1.2703,-5.66269 1.2703,-1.32868 1.2703,1.01518 1.2703,-3.59927 1.2703,0.85995 1.2703,10.42786 1.2703,-2.3952 2.54059,-3.92595 1.2703,-0.22789 1.2703,-14.30329 1.2703,-3.21184 1.2703,-4.55914 1.2703,-3.12336 1.2703,-6.38121 1.2703,-2.31124 1.2703,1.98843 1.2703,-6.45911 2.54059,36.71014 1.2703,1.81268 1.2703,-1.57449 1.2703,9.21801 1.2703,-13.29181 1.2703,-16.84091 1.2703,4.80489 1.2703,0.22062 1.2703,2.385 1.27029,3.49899 1.2703,6.98668 1.2703,1.28797 1.2703,1.04762 1.2703,0.0948 2.5406,1.30698 1.2703,-2.27987 1.2703,6.13422 1.2703,3.92901 1.27029,-0.0183 1.2703,-0.75944 1.2703,5.1919 1.2703,-4.27932 2.5406,7.00415 1.2703,-3.07409 1.2703,-8.59779 1.2703,-2.77685 1.2703,-5.43486 1.27029,-6.9819 1.2703,3.96289 1.2703,6.46563 1.2703,7.10065 1.2703,-2.10096 1.2703,3.07041 1.2703,-0.95226 1.2703,-0.81122 1.2703,-2.62151 1.27029,-2.1597 1.2703,-1.23705 1.2703,1.20721 1.2703,-2.18949 1.2703,-1.44492 1.2703,1.05229 1.2703,2.7384 1.2703,-0.79762 1.2703,-12.87734 1.2703,1.6016 1.27029,0.5004 1.2703,-6.77026 1.2703,-1.76862 1.2703,5.71033 2.5406,-11.15143 2.5406,-13.7631 1.2703,0.86249 1.2703,-4.99307 1.27029,0.13968 1.2703,6.69986 1.2703,1.14966 1.2703,0.50146 1.2703,4.03001 1.2703,-2.24232 1.2703,-3.80033 1.2703,0.37141 1.2703,2.03347 1.2703,1.0985 1.27029,6.46309 1.2703,-2.29685 1.2703,-0.57893 1.2703,7.30039 1.2703,1.64201 1.2703,3.72017 1.2703,8.14635 1.2703,-2.71914 1.2703,4.81135 1.2703,-0.4541 1.27029,-3.99364 1.2703,3.1043 1.2703,9.76861 1.2703,-9.64943 1.2703,5.13823 1.2703,2.50276 1.2703,0.45631 1.2703,-0.44711 2.5406,13.1697 1.27029,-0.27977 1.2703,3.96843 1.2703,0.01 1.2703,-5.5513 1.2703,-6.84783 1.2703,-0.0261 1.2703,-3.78184 1.2703,1.72566 1.2703,3.54586 1.2703,0.17901 1.27029,-0.55118 1.2703,-3.16725 1.2703,-2.73863 1.2703,-3.59856 1.2703,-5.66185 1.2703,3.50328 1.2703,6.10773 1.2703,6.99592 1.2703,5.71897 1.2703,7.75596 1.27029,0.23708 1.2703,2.20823 1.2703,-0.18712 1.2703,1.1994 1.2703,1.50291 1.2703,0.98528 1.2703,-0.9764 1.2703,-0.82618 1.2703,-1.62942 1.2703,0.0843 1.27029,3.36385 1.2703,-2.66592 1.2703,0.84511 1.2703,-6.4509 1.2703,-8.21039 1.2703,-9.9054 1.2703,-4.74934 1.2703,-4.31714 1.2703,6.93044 1.2703,4.89722 1.27029,2.61928 1.2703,3.28309 1.2703,-3.77346 2.5406,-10.7112 1.2703,-6.89732 1.2703,-2.56534 1.2703,2.2385 1.2703,-1.48354 1.27029,1.47681 1.2703,6.36363 1.2703,-1.87772 1.2703,0.84314 1.2703,3.03503 2.5406,-7.27621 1.2703,-1.73015 1.2703,-10.9364 1.2703,-9.56341 1.2703,-3.15254 1.27029,1.05902 1.2703,9.6472 1.2703,15.67242 1.2703,8.67506 1.2703,6.02697 1.2703,-1.18841 2.5406,-21.0549 1.27029,-2.94643 1.2703,1.51544 1.2703,1.33287 1.2703,3.93809 1.2703,3.03371 1.2703,-1.18844 1.2703,-2.27881 1.2703,3.7667 1.2703,2.04656 1.2703,0.80578 1.2703,1.87102 1.27029,0.50883 1.2703,-0.47124 1.2703,-0.19342 1.2703,0.37747 1.2703,3.94627 1.2703,9.02784 1.2703,0.12656 1.2703,3.03531 1.2703,2.65016 1.2703,-0.10631 1.27029,-2.31819 1.2703,1.18763 1.2703,2.1492 1.2703,-3.12763 2.5406,-4.56763 1.2703,-3.21579 1.2703,-3.60615 1.2703,3.33128 1.27029,1.91886 1.2703,-1.29759 1.2703,2.67751 1.2703,1.44449 1.2703,2.30032 2.5406,3.41064 1.2703,0.56249 1.2703,4.92318 1.2703,-2.16863 1.27029,1.75295 1.2703,-0.0986 1.2703,2.01702 1.2703,-4.35283 1.2703,1.43788 1.2703,2.08622 1.2703,3.08672 1.2703,-1.42015 1.2703,-2.00593 1.2703,-1.11499 1.27029,-4.22312 1.2703,-2.24055 1.2703,0.38505 1.2703,6.05549 1.2703,-2.83255 1.2703,-0.16348 1.2703,-0.39904 1.2703,1.02193 1.2703,-10.76853 1.2703,0.82972 1.27029,-2.18066 2.5406,-15.73416 1.2703,1.51438 1.2703,-2.61172 1.2703,-1.70348 1.2703,-0.39841 1.2703,-2.32344 1.2703,-6.25966 1.2703,-9.34659 1.27029,-1.42915 1.2703,4.83205 1.2703,1.9603 1.2703,9.9661 1.2703,12.03424 1.2703,6.46063 1.2703,2.97452 1.2703,6.55324 1.2703,2.15191 1.27029,0.66495 1.2703,-0.77329 1.2703,-0.94127 1.2703,1.5123 1.2703,-3.33762 1.2703,2.15362 1.2703,1.20362 1.2703,2.82187 1.2703,-4.69706 1.2703,3.76435 1.2703,-1.59408 1.27029,-0.50692 1.2703,-0.8525 1.2703,3.06314 2.5406,-18.195 1.2703,3.09238 1.2703,-8.03467 1.2703,12.67797 1.2703,7.59325 1.2703,8.86677 1.27029,1.99961 1.2703,2.97194 1.2703,-10.83539 1.2703,4.58899 1.2703,-2.37788 1.2703,-8.98277 1.2703,0.38501 1.2703,-6.82807 1.2703,1.95029 1.2703,-12.77644 1.27029,0.67835 1.2703,5.23179 1.2703,8.14881 1.2703,-6.35125 1.2703,5.65841 1.2703,-0.88347 1.2703,-2.89859 1.2703,-3.87482 2.54059,-17.95642 1.2703,-18.13602 1.2703,-1.88133 1.2703,-3.74327 1.2703,-2.22609 1.2703,8.55599 1.2703,14.43379 1.2703,-7.10736 1.2703,-9.16975 1.27029,3.78354 1.2703,5.67134 1.2703,7.4352 1.2703,9.31814 1.2703,5.55702 1.2703,-2.93656 1.2703,-4.14553 1.2703,-5.03345 1.2703,-3.26876 1.2703,7.69221 1.27029,5.85972 1.2703,6.79739 1.2703,2.35733 1.2703,-6.63852 1.2703,-0.61161 1.2703,-2.0871 1.2703,-12.78802 1.2703,10.97568 1.2703,13.27794 1.2703,-3.96787 1.27029,-3.42112 1.2703,19.74661 1.2703,-20.63337 1.2703,-12.16514 1.2703,-6.64303 1.2703,15.22048 1.2703,-11.10094 2.5406,29.10292 1.2703,10.56249 1.2703,-7.35301 1.27029,9.1646 1.2703,2.50167 1.2703,0.42496 1.2703,1.42871 1.2703,-10.68772 1.2703,0.40407 1.2703,-3.44632 1.2703,-2.73535 1.2703,3.52239 1.27029,14.59447 1.2703,-2.8302 1.2703,2.38275 1.2703,4.98507 1.2703,-2.77975 0,0" /></g></g><g
       id="g184"><path
         id="path186"
         style="fill:none;stroke:#000000;stroke-width:0.80000001;stroke-linecap:square;stroke-linejoin:miter;stroke-miterlimit:10;stroke-dasharray:none;stroke-opacity:1"
         d="m 110.55937,76.2625 0,543.6" /><path
         id="path188"
         style="fill:none;stroke:#000000;stroke-width:0.80000001;stroke-linecap:square;stroke-linejoin:miter;stroke-miterlimit:10;stroke-dasharray:none;stroke-opacity:1"
         d="m 947.55938,76.2625 0,543.6" /><path
         id="path190"
         style="fill:none;stroke:#000000;stroke-width:0.80000001;stroke-linecap:square;stroke-linejoin:miter;stroke-miterlimit:10;stroke-dasharray:none;stroke-opacity:1"
         d="m 110.55937,76.2625 837.00001,0" /><path
         id="path192"
         style="fill:none;stroke:#000000;stroke-width:0.80000001;stroke-linecap:square;stroke-linejoin:miter;stroke-miterlimit:10;stroke-dasharray:none;stroke-opacity:1"
         d="m 110.55937,619.8625 837.00001,0" /></g></g></svg>