<?xml version="1.0" encoding="UTF-8" standalone="no"?>
<svg
   xmlns:dc="http://purl.org/dc/elements/1.1/"
   xmlns:cc="http://creativecommons.org/ns#"
   xmlns:rdf="http://www.w3.org/1999/02/22-rdf-syntax-ns#"
   xmlns:svg="http://www.w3.org/2000/svg"
   xmlns="http://www.w3.org/2000/svg"
   viewBox="0 0 1178.3125 788.20312"
   height="788.20312"
   width="1178.3125"
   xml:space="preserve"
   version="1.1"
   id="svg2"><metadata
     id="metadata8"><rdf:RDF><cc:Work
         rdf:about=""><dc:format>image/svg+xml</dc:format><dc:type
           rdf:resource="http://purl.org/dc/dcmitype/StillImage" /></cc:Work></rdf:RDF></metadata><defs
     id="defs6"><clipPath
       id="clipPath66"
       clipPathUnits="userSpaceOnUse"><path
         id="path68"
         d="m -1016,-351 2676,0 0,1419 -2676,0 0,-1419 z" /></clipPath><clipPath
       id="clipPath122"
       clipPathUnits="userSpaceOnUse"><path
         id="path124"
         d="m 94.95,76.2625 837,0 0,543.6 -837,0 0,-543.6 z" /></clipPath><clipPath
       id="clipPath132"
       clipPathUnits="userSpaceOnUse"><path
         id="path134"
         d="m 94.95,76.2625 837,0 0,543.6 -837,0 0,-543.6 z" /></clipPath></defs><g
     transform="matrix(1.25,0,0,-1.25,0,788.20312)"
     id="g10"><path
       id="path12"
       style="fill:#ffffff;fill-opacity:1;fill-rule:nonzero;stroke:none"
       d="m 0,0 942.65,0 0,630.5625 -942.65,0 L 0,0 Z" /><path
       id="path14"
       style="fill:#ffffff;fill-opacity:1;fill-rule:nonzero;stroke:none"
       d="m 94.95,76.2625 837,0 0,543.6 -837,0 0,-543.6 z" /><path
       id="path16"
       style="fill:#000000;fill-opacity:1;fill-rule:nonzero;stroke:#000000;stroke-width:0.80000001;stroke-linecap:butt;stroke-linejoin:round;stroke-miterlimit:10;stroke-dasharray:none;stroke-opacity:1"
       d="m 132.99545,76.2625 0,-3.5" /><text
       id="text18"
       style="font-variant:normal;font-weight:normal;font-size:30px;font-family:'DejaVu Sans';-inkscape-font-specification:DejaVuSans;writing-mode:lr-tb;fill:#000000;fill-opacity:1;fill-rule:nonzero;stroke:none"
       transform="matrix(1,0,0,-1,123.44858,46.465625)"><tspan
         id="tspan20"
         y="0"
         x="0">0</tspan></text>
<path
       id="path22"
       style="fill:#000000;fill-opacity:1;fill-rule:nonzero;stroke:#000000;stroke-width:0.80000001;stroke-linecap:butt;stroke-linejoin:round;stroke-miterlimit:10;stroke-dasharray:none;stroke-opacity:1"
       d="m 260.02535,76.2625 0,-3.5" /><text
       id="text24"
       style="font-variant:normal;font-weight:normal;font-size:30px;font-family:'DejaVu Sans';-inkscape-font-specification:DejaVuSans;writing-mode:lr-tb;fill:#000000;fill-opacity:1;fill-rule:nonzero;stroke:none"
       transform="matrix(1,0,0,-1,231.38473,46.465625)"><tspan
         id="tspan26"
         y="0"
         x="0 19.08 38.16">100</tspan></text>
<path
       id="path28"
       style="fill:#000000;fill-opacity:1;fill-rule:nonzero;stroke:#000000;stroke-width:0.80000001;stroke-linecap:butt;stroke-linejoin:round;stroke-miterlimit:10;stroke-dasharray:none;stroke-opacity:1"
       d="m 387.05525,76.2625 0,-3.5" /><text
       id="text30"
       style="font-variant:normal;font-weight:normal;font-size:30px;font-family:'DejaVu Sans';-inkscape-font-specification:DejaVuSans;writing-mode:lr-tb;fill:#000000;fill-opacity:1;fill-rule:nonzero;stroke:none"
       transform="matrix(1,0,0,-1,358.41463,46.465625)"><tspan
         id="tspan32"
         y="0"
         x="0 19.08 38.16">200</tspan></text>
<path
       id="path34"
       style="fill:#000000;fill-opacity:1;fill-rule:nonzero;stroke:#000000;stroke-width:0.80000001;stroke-linecap:butt;stroke-linejoin:round;stroke-miterlimit:10;stroke-dasharray:none;stroke-opacity:1"
       d="m 514.08515,76.2625 0,-3.5" /><text
       id="text36"
       style="font-variant:normal;font-weight:normal;font-size:30px;font-family:'DejaVu Sans';-inkscape-font-specification:DejaVuSans;writing-mode:lr-tb;fill:#000000;fill-opacity:1;fill-rule:nonzero;stroke:none"
       transform="matrix(1,0,0,-1,485.44452,46.465625)"><tspan
         id="tspan38"
         y="0"
         x="0 19.08 38.16">300</tspan></text>
<path
       id="path40"
       style="fill:#000000;fill-opacity:1;fill-rule:nonzero;stroke:#000000;stroke-width:0.80000001;stroke-linecap:butt;stroke-linejoin:round;stroke-miterlimit:10;stroke-dasharray:none;stroke-opacity:1"
       d="m 641.11505,76.2625 0,-3.5" /><text
       id="text42"
       style="font-variant:normal;font-weight:normal;font-size:30px;font-family:'DejaVu Sans';-inkscape-font-specification:DejaVuSans;writing-mode:lr-tb;fill:#000000;fill-opacity:1;fill-rule:nonzero;stroke:none"
       transform="matrix(1,0,0,-1,612.47442,46.465625)"><tspan
         id="tspan44"
         y="0"
         x="0 19.08 38.16">400</tspan></text>
<path
       id="path46"
       style="fill:#000000;fill-opacity:1;fill-rule:nonzero;stroke:#000000;stroke-width:0.80000001;stroke-linecap:butt;stroke-linejoin:round;stroke-miterlimit:10;stroke-dasharray:none;stroke-opacity:1"
       d="m 768.14495,76.2625 0,-3.5" /><text
       id="text48"
       style="font-variant:normal;font-weight:normal;font-size:30px;font-family:'DejaVu Sans';-inkscape-font-specification:DejaVuSans;writing-mode:lr-tb;fill:#000000;fill-opacity:1;fill-rule:nonzero;stroke:none"
       transform="matrix(1,0,0,-1,739.50432,46.465625)"><tspan
         id="tspan50"
         y="0"
         x="0 19.08 38.16">500</tspan></text>
<path
       id="path52"
       style="fill:#000000;fill-opacity:1;fill-rule:nonzero;stroke:#000000;stroke-width:0.80000001;stroke-linecap:butt;stroke-linejoin:round;stroke-miterlimit:10;stroke-dasharray:none;stroke-opacity:1"
       d="m 895.17484,76.2625 0,-3.5" /><text
       id="text54"
       style="font-variant:normal;font-weight:normal;font-size:30px;font-family:'DejaVu Sans';-inkscape-font-specification:DejaVuSans;writing-mode:lr-tb;fill:#000000;fill-opacity:1;fill-rule:nonzero;stroke:none"
       transform="matrix(1,0,0,-1,866.53422,46.465625)"><tspan
         id="tspan56"
         y="0"
         x="0 19.08 38.16">600</tspan></text>
<g
       transform="translate(504.45,13.434375)"
       id="g58"><g
         transform="matrix(0.03,0,0,0.03,0,0.203125)"
         id="g60"><g
           id="g62"><g
             clip-path="url(#clipPath66)"
             id="g64"><path
               id="path70"
               style="fill:#000000;fill-opacity:1;fill-rule:nonzero;stroke:none"
               d="M 367,674 488,0 393,0 318,404 51,0 -43,0 297,524 280,621 c -7,41 -28,62 -63,62 l -47,0 15,77 57,-1 c 73,-2 115,-30 125,-85" /></g></g></g></g><path
       id="path72"
       style="fill:#000000;fill-opacity:1;fill-rule:nonzero;stroke:#000000;stroke-width:0.80000001;stroke-linecap:butt;stroke-linejoin:round;stroke-miterlimit:10;stroke-dasharray:none;stroke-opacity:1"
       d="m 94.95,98.156857 -3.5,0" /><text
       id="text74"
       style="font-variant:normal;font-weight:normal;font-size:30px;font-family:'DejaVu Sans';-inkscape-font-specification:DejaVuSans;writing-mode:lr-tb;fill:#000000;fill-opacity:1;fill-rule:nonzero;stroke:none"
       transform="matrix(1,0,0,-1,40.23125,86.758419)"><tspan
         id="tspan76"
         y="0"
         x="0 19.08 28.620001">0.0</tspan></text>
<path
       id="path78"
       style="fill:#000000;fill-opacity:1;fill-rule:nonzero;stroke:#000000;stroke-width:0.80000001;stroke-linecap:butt;stroke-linejoin:round;stroke-miterlimit:10;stroke-dasharray:none;stroke-opacity:1"
       d="m 94.95,177.06911 -3.5,0" /><text
       id="text80"
       style="font-variant:normal;font-weight:normal;font-size:30px;font-family:'DejaVu Sans';-inkscape-font-specification:DejaVuSans;writing-mode:lr-tb;fill:#000000;fill-opacity:1;fill-rule:nonzero;stroke:none"
       transform="matrix(1,0,0,-1,40.23125,165.67067)"><tspan
         id="tspan82"
         y="0"
         x="0 19.08 28.620001">0.5</tspan></text>
<path
       id="path84"
       style="fill:#000000;fill-opacity:1;fill-rule:nonzero;stroke:#000000;stroke-width:0.80000001;stroke-linecap:butt;stroke-linejoin:round;stroke-miterlimit:10;stroke-dasharray:none;stroke-opacity:1"
       d="m 94.95,255.98136 -3.5,0" /><text
       id="text86"
       style="font-variant:normal;font-weight:normal;font-size:30px;font-family:'DejaVu Sans';-inkscape-font-specification:DejaVuSans;writing-mode:lr-tb;fill:#000000;fill-opacity:1;fill-rule:nonzero;stroke:none"
       transform="matrix(1,0,0,-1,40.23125,244.58292)"><tspan
         id="tspan88"
         y="0"
         x="0 19.08 28.620001">1.0</tspan></text>
<path
       id="path90"
       style="fill:#000000;fill-opacity:1;fill-rule:nonzero;stroke:#000000;stroke-width:0.80000001;stroke-linecap:butt;stroke-linejoin:round;stroke-miterlimit:10;stroke-dasharray:none;stroke-opacity:1"
       d="m 94.95,334.89361 -3.5,0" /><text
       id="text92"
       style="font-variant:normal;font-weight:normal;font-size:30px;font-family:'DejaVu Sans';-inkscape-font-specification:DejaVuSans;writing-mode:lr-tb;fill:#000000;fill-opacity:1;fill-rule:nonzero;stroke:none"
       transform="matrix(1,0,0,-1,40.23125,323.49517)"><tspan
         id="tspan94"
         y="0"
         x="0 19.08 28.620001">1.5</tspan></text>
<path
       id="path96"
       style="fill:#000000;fill-opacity:1;fill-rule:nonzero;stroke:#000000;stroke-width:0.80000001;stroke-linecap:butt;stroke-linejoin:round;stroke-miterlimit:10;stroke-dasharray:none;stroke-opacity:1"
       d="m 94.95,413.80586 -3.5,0" /><text
       id="text98"
       style="font-variant:normal;font-weight:normal;font-size:30px;font-family:'DejaVu Sans';-inkscape-font-specification:DejaVuSans;writing-mode:lr-tb;fill:#000000;fill-opacity:1;fill-rule:nonzero;stroke:none"
       transform="matrix(1,0,0,-1,40.23125,402.40742)"><tspan
         id="tspan100"
         y="0"
         x="0 19.08 28.620001">2.0</tspan></text>
<path
       id="path102"
       style="fill:#000000;fill-opacity:1;fill-rule:nonzero;stroke:#000000;stroke-width:0.80000001;stroke-linecap:butt;stroke-linejoin:round;stroke-miterlimit:10;stroke-dasharray:none;stroke-opacity:1"
       d="m 94.95,492.71811 -3.5,0" /><text
       id="text104"
       style="font-variant:normal;font-weight:normal;font-size:30px;font-family:'DejaVu Sans';-inkscape-font-specification:DejaVuSans;writing-mode:lr-tb;fill:#000000;fill-opacity:1;fill-rule:nonzero;stroke:none"
       transform="matrix(1,0,0,-1,40.23125,481.31967)"><tspan
         id="tspan106"
         y="0"
         x="0 19.08 28.620001">2.5</tspan></text>
<path
       id="path108"
       style="fill:#000000;fill-opacity:1;fill-rule:nonzero;stroke:#000000;stroke-width:0.80000001;stroke-linecap:butt;stroke-linejoin:round;stroke-miterlimit:10;stroke-dasharray:none;stroke-opacity:1"
       d="m 94.95,571.63036 -3.5,0" /><text
       id="text110"
       style="font-variant:normal;font-weight:normal;font-size:30px;font-family:'DejaVu Sans';-inkscape-font-specification:DejaVuSans;writing-mode:lr-tb;fill:#000000;fill-opacity:1;fill-rule:nonzero;stroke:none"
       transform="matrix(1,0,0,-1,40.23125,560.23192)"><tspan
         id="tspan112"
         y="0"
         x="0 19.08 28.620001">3.0</tspan></text>
<text
       id="text114"
       style="font-variant:normal;font-weight:normal;font-size:30px;font-family:'DejaVu Sans';-inkscape-font-specification:DejaVuSans;writing-mode:lr-tb;fill:#000000;fill-opacity:1;fill-rule:nonzero;stroke:none"
       transform="matrix(0,1,1,0,29.996875,316.88281)"><tspan
         id="tspan116"
         y="0"
         x="0 17.25 25.59 44.610001">Flux</tspan></text>
<g
       id="g118"><g
         clip-path="url(#clipPath122)"
         id="g120"><path
           id="path126"
           style="fill:none;stroke:#1f77b4;stroke-width:3;stroke-linecap:square;stroke-linejoin:round;stroke-miterlimit:10;stroke-dasharray:none;stroke-opacity:1"
           d="m 132.99545,138.66625 1.2703,-6.53307 1.2703,-10.18453 1.2703,-7.30159 1.2703,2.5344 1.2703,1.42934 2.5406,11.83413 1.2703,8.04852 1.2703,-0.006 1.27029,3.98894 1.2703,-0.80348 1.2703,-6.72167 1.2703,-4.29836 1.2703,-0.53736 1.2703,-8.34041 1.2703,2.07195 1.2703,8.42941 1.2703,2.39026 1.27029,-3.38558 1.2703,7.00258 1.2703,3.09809 1.2703,-7.12181 1.2703,-1.34336 1.2703,6.12914 2.5406,7.65873 1.2703,5.17826 1.2703,4.58233 1.27029,-4.59714 1.2703,-9.73472 1.2703,-7.65567 1.2703,-2.025 1.2703,1.04986 1.2703,2.57471 1.2703,-2.23143 1.2703,-0.12326 1.2703,-2.22207 1.2703,-3.13863 1.27029,-4.71923 2.5406,4.90802 1.2703,0.87981 1.2703,-0.95087 1.2703,-1.27612 1.2703,0.14939 1.2703,0.64594 1.2703,3.66354 1.2703,1.97844 1.27029,4.68556 1.2703,0.44188 1.2703,-3.10023 1.2703,-1.12795 1.2703,-3.59222 1.2703,-0.41734 1.2703,4.17397 1.2703,1.94812 1.2703,-4.09058 1.2703,5.52836 1.27029,1.37318 1.2703,0.79577 1.2703,0.24384 1.2703,-1.79185 2.5406,-8.06925 1.2703,-7.14294 1.2703,-0.88184 1.2703,3.9342 1.27029,4.3508 1.2703,-0.80959 1.2703,-7.94275 1.2703,13.31153 1.2703,0.75899 1.2703,-6.04333 1.2703,6.47213 1.2703,16.89711 1.2703,-12.00529 1.2703,-0.63871 1.27029,3.03586 1.2703,-0.82628 1.2703,-0.39779 1.2703,-4.79103 1.2703,1.20551 1.2703,5.77312 1.2703,0.083 1.2703,-9.16883 1.2703,0.44878 1.2703,0.8014 1.27029,-5.98271 1.2703,-3.69959 1.2703,3.64621 1.2703,5.23515 1.2703,9.1177 1.2703,0.37782 1.2703,-5.68767 1.2703,1.06536 1.2703,-3.6079 1.2703,-6.40229 1.27029,0.97319 1.2703,5.99197 1.2703,-0.39047 1.2703,1.54868 1.2703,-5.61728 1.2703,-0.13124 1.2703,-2.36976 1.2703,0.24167 1.2703,2.52654 1.2703,4.24797 1.27029,-3.74398 1.2703,-0.2622 1.2703,-0.84204 1.2703,-10.87788 1.2703,-7.32051 1.2703,-3.817 1.2703,2.6819 1.2703,1.13615 1.2703,4.20715 1.2703,6.6052 1.27029,14.26144 1.2703,-0.027 1.2703,4.32631 1.2703,7.0806 1.2703,4.39729 1.2703,-11.13221 1.2703,0.26331 1.2703,-6.13511 1.2703,-0.66802 1.27029,-2.16323 1.2703,7.75412 1.2703,0.34111 1.2703,5.13408 1.2703,0.81914 1.2703,-2.51553 1.2703,-2.12 1.2703,-0.53517 1.2703,-3.74763 1.2703,-6.31364 1.27029,-2.21359 1.2703,-0.84813 1.2703,0.7901 1.2703,-0.39388 1.2703,5.79144 1.2703,2.98218 1.2703,-4.67371 1.2703,-0.62942 1.2703,-5.92732 1.2703,-4.50255 1.27029,0.8142 1.2703,-0.0831 1.2703,-1.14497 1.2703,6.82936 1.2703,0.54236 1.2703,-4.75694 1.2703,-1.76588 1.2703,-2.5284 1.2703,-1.20662 1.2703,1.58679 1.27029,2.04798 1.2703,1.45873 1.2703,4.19943 1.2703,-2.98797 1.2703,-2.3874 1.2703,0.49378 1.2703,3.82894 1.2703,1.58039 1.2703,3.86432 1.2703,-0.61542 1.27029,-6.60186 1.2703,0.71626 1.2703,-0.0598 1.2703,5.40225 1.2703,1.55221 1.2703,5.38951 1.2703,-2.38125 1.2703,0.8857 1.2703,3.78911 1.2703,2.39906 2.54059,7.86508 1.2703,-6.06478 1.2703,-10.7396 1.2703,1.76632 1.2703,-4.44723 1.2703,-3.78077 2.5406,5.29516 1.27029,-0.93914 1.2703,2.91314 1.2703,1.59362 1.2703,-3.94012 1.2703,-5.23065 1.2703,-3.7322 1.2703,0.91847 1.2703,3.78934 1.2703,1.21517 1.2703,2.75795 1.27029,3.07609 1.2703,-0.0482 1.2703,-5.16946 1.2703,-0.41961 1.2703,2.55764 1.2703,1.28241 1.2703,-3.82032 1.2703,1.24632 1.2703,8.40282 1.2703,-0.16038 1.2703,-2.21443 1.27029,3.31903 1.2703,0.54455 1.2703,-3.96561 1.2703,4.26067 1.2703,5.77704 1.2703,1.57517 1.2703,1.95638 1.2703,-2.42825 1.2703,-1.19543 1.27029,-15.97885 1.2703,-13.6031 1.2703,-3.96874 1.2703,7.34385 1.2703,-3.21234 1.2703,5.75529 1.2703,15.88603 1.2703,4.29454 1.2703,-2.52884 1.2703,-0.39016 1.27029,5.2547 1.2703,-6.93446 1.2703,-5.76483 1.2703,-3.32263 1.2703,0.0811 1.2703,-3.37241 1.2703,-0.65822 1.2703,5.57953 1.2703,-1.42076 1.2703,-0.57059 1.27029,4.49682 1.2703,3.24133 1.2703,1.97562 1.2703,5.57486 1.2703,0.75889 1.2703,-1.88329 1.2703,-3.75751 1.2703,-1.71585 1.2703,-0.42142 1.27029,-2.57395 1.2703,3.6266 1.2703,5.80176 1.2703,-5.15802 1.2703,-6.25543 1.2703,-0.13943 1.2703,-3.61357 1.2703,-2.65872 1.2703,7.79877 1.2703,1.09967 2.54059,20.19217 1.2703,-2.92465 1.2703,-2.37857 1.2703,-4.86413 1.2703,-12.44831 1.2703,-9.48891 1.2703,2.01168 1.2703,-2.94725 1.2703,7.54387 1.2703,8.55233 1.27029,-5.47149 1.2703,-0.22562 1.2703,-6.4891 1.2703,0.18435 1.2703,-4.2885 1.2703,3.7462 1.2703,1.06601 1.2703,4.44225 1.2703,-6.05071 1.27029,-12.86978 1.2703,9.72001 1.2703,-5.2913 1.2703,-1.95785 1.2703,6.82627 1.2703,8.25881 1.2703,-12.36104 1.2703,-0.21288 1.2703,1.05 1.2703,4.61288 1.27029,0.55862 1.2703,4.6708 1.2703,2.99646 1.2703,5.73354 1.2703,-4.58999 1.2703,5.2349 1.2703,-2.77623 1.2703,8.11964 1.2703,1.56383 1.2703,-1.15695 1.27029,-5.15167 1.2703,6.42496 1.2703,-9.09996 1.2703,-2.86047 1.2703,-3.24891 1.2703,-3.87104 1.2703,8.96649 1.2703,4.70328 1.2703,-5.45903 1.27029,6.26691 1.2703,10.38608 1.2703,-19.42233 1.2703,-1.24917 1.2703,9.77459 1.2703,-3.94734 1.2703,-4.50756 1.2703,6.81972 1.2703,0.81586 1.2703,-3.51046 1.27029,-2.3115 1.2703,-4.57786 1.2703,-0.72417 1.2703,-2.71265 1.2703,-7.2936 1.2703,8.66152 1.2703,4.65619 1.2703,-8.58682 1.2703,-1.84408 1.2703,2.61533 1.27029,-5.29927 1.2703,-2.62921 1.2703,4.912 1.2703,4.39878 1.2703,0.18074 1.2703,1.76196 1.2703,6.12497 1.2703,7.89935 1.2703,6.71591 1.2703,3.22704 1.2703,-1.57304 1.27029,-6.04129 1.2703,-2.0295 1.2703,-10.22526 2.5406,-11.85113 1.2703,-3.40972 1.2703,-5.25437 1.2703,-3.13081 1.2703,1.71314 1.2703,3.23277 1.27029,4.13357 1.2703,5.10779 1.2703,7.82569 1.2703,4.37694 1.2703,-0.33727 1.2703,0.74892 1.2703,-1.78628 1.2703,-0.11461 1.2703,-3.90727 1.27029,0.98879 1.2703,2.264 1.2703,-4.77953 1.2703,-2.84575 1.2703,5.34204 1.2703,-0.44196 1.2703,-2.53847 1.2703,5.65891 1.2703,0.3794 1.2703,-5.01244 1.27029,-0.88137 1.2703,1.55288 1.2703,4.71665 1.2703,1.654 1.2703,3.13107 1.2703,10.47838 1.2703,2.27229 1.2703,-6.82148 1.2703,1.10775 1.27029,3.95164 1.2703,-11.23817 1.2703,-4.02577 1.2703,5.5052 1.2703,-1.21963 1.2703,-9.69198 1.2703,1.43618 1.2703,4.9876 1.2703,-8.09244 1.2703,-1.73582 1.27029,1.02304 1.2703,-0.58571 1.2703,0.33072 1.2703,2.86624 1.2703,-0.8938 2.5406,1.36083 1.2703,-2.5173 1.2703,2.75367 1.2703,4.40403 1.27029,0.34287 1.2703,-2.49568 1.2703,-1.8282 1.2703,4.43085 1.2703,-1.11135 1.2703,-4.87933 1.2703,7.90793 1.2703,-3.15795 1.2703,-9.0784 1.2703,-1.8143 1.27029,4.29202 1.2703,-3.19101 1.2703,4.35355 1.2703,2.06085 1.2703,-11.31751 1.2703,-0.69867 1.2703,-2.54731 1.2703,-0.24926 1.2703,-0.58457 1.2703,5.73159 1.2703,1.1859 1.27029,-2.95893 1.2703,-4.34664 1.2703,0.25537 1.2703,13.0246 1.2703,7.79017 2.5406,0.50959 1.2703,-5.9086 1.27029,-8.58115 1.2703,-14.24669 1.2703,-0.37055 1.2703,3.78666 1.2703,9.83753 1.2703,0.49488 1.2703,10.1823 1.2703,-0.83001 1.2703,-6.19935 1.2703,-3.63578 1.27029,10.16361 1.2703,-4.12886 1.2703,7.33279 1.2703,5.36172 1.2703,-6.15968 1.2703,-4.14727 1.2703,3.79745 2.5406,-5.81044 1.2703,3.60434 1.27029,-7.61834 1.2703,0.14838 1.2703,8.10979 1.2703,1.66388 1.2703,2.4154 1.2703,3.43757 1.2703,-5.36504 1.2703,-9.74138 1.2703,0.42488 1.2703,-2.05449 1.2703,-2.27716 1.27029,1.10144 1.2703,10.79875 1.2703,9.31825 1.2703,19.64079 1.2703,76.13522 1.2703,49.95992 1.2703,6.60813 1.2703,27.63061 1.2703,73.0386 1.2703,18.0186 1.27029,-2.04218 1.2703,-5.55801 1.2703,-31.90398 2.5406,-181.81593 1.2703,-43.96948 1.2703,-11.96782 1.2703,-2.32288 1.2703,-3.10847 1.2703,-9.62027 1.27029,-2.21128 1.2703,3.28482 1.2703,-1.56001 1.2703,2.00453 1.2703,14.08792 1.2703,1.99714 1.2703,-8.64129 1.2703,5.38891 1.27029,8.72755 1.2703,-16.13406 1.2703,-2.55597 1.2703,13.5967 1.2703,6.6887 1.2703,9.98858 1.2703,7.2411 1.2703,4.46665 1.2703,-5.81412 1.2703,-11.56189 1.27029,-18.04895 1.2703,13.80561 1.2703,-6.85564 1.2703,-1.60575 1.2703,-5.35564 1.2703,-4.5698 1.2703,-10.30587 1.2703,0.54407 1.2703,-1.2132 1.2703,6.56034 1.27029,3.44149 1.2703,2.00688 1.2703,-3.35935 1.2703,0.72371 1.2703,2.67129 1.2703,3.63956 1.2703,-4.34224 1.2703,11.60796 1.2703,2.37092 1.2703,9.61961 1.2703,-5.29308 1.27029,-0.12231 1.2703,-2.88995 1.2703,3.31653 1.2703,-5.84779 1.2703,0.55214 1.2703,3.60606 1.2703,-1.70658 1.2703,-2.2231 1.2703,-8.32823 1.27029,-0.78194 1.2703,1.64621 1.2703,0.63163 1.2703,-6.44263 1.2703,0.85231 1.2703,4.58644 1.2703,0.12804 1.2703,-8.19718 1.2703,7.82552 1.2703,-7.87996 1.27029,-2.88766 1.2703,-4.69099 1.2703,-0.53684 1.2703,-16.19991 1.2703,7.0576 1.2703,0.4635 1.2703,2.50206 1.2703,13.88 1.2703,16.52341 1.27029,3.26374 1.2703,0.56513 1.2703,0.18786 1.2703,-0.26764 1.2703,-5.28189 1.2703,1.26614 1.2703,3.17764 1.2703,3.88202 1.2703,-1.50389 1.2703,5.36256 1.27029,-2.09834 1.2703,-1.00668 1.2703,-2.46852 1.2703,3.06885 1.2703,0.17737 1.2703,4.46615 1.2703,0.4481 1.2703,-0.51787 1.2703,-9.61952 1.2703,-3.88026 1.27029,-0.30002 1.2703,-3.60327 1.2703,1.24098 1.2703,3.65249 1.2703,4.98034 1.2703,-1.891 1.2703,3.16833 1.2703,-4.40514 1.2703,-5.38108 1.2703,-0.52075 2.54059,-14.32017 2.5406,9.23048 1.2703,-8.61727 1.2703,2.63653 1.2703,7.78018 1.2703,0.0208 1.2703,3.80513 1.2703,13.34327 1.27029,12.10321 1.2703,-9.15916 1.2703,-18.01691 1.2703,-6.06925 1.2703,-11.55695 1.2703,-10.07512 1.2703,8.27774 1.2703,16.45404 1.2703,2.85496 1.2703,0.0878 1.27029,-2.4718 1.2703,1.8213 1.2703,-0.42741 1.2703,2.35781 1.2703,6.37896 1.2703,5.47342 1.2703,0.56622 1.2703,8.25637 1.2703,1.8645 1.27029,-2.30182 0,0" /></g></g><g
       id="g128"><g
         clip-path="url(#clipPath132)"
         id="g130"><path
           id="path136"
           style="fill:none;stroke:#ff7f0e;stroke-width:3;stroke-linecap:square;stroke-linejoin:round;stroke-miterlimit:10;stroke-dasharray:none;stroke-opacity:1"
           d="m 132.99545,189.99917 1.2703,7.96715 1.2703,-4.12455 1.2703,16.24464 1.2703,7.20191 1.2703,11.75215 1.2703,-4.65395 1.2703,-8.86793 1.2703,-5.02275 1.2703,12.43803 1.27029,-9.21772 1.2703,3.43686 1.2703,13.35608 1.2703,-7.49857 1.2703,-5.02409 1.2703,3.24904 1.2703,0.21235 1.2703,1.87938 1.2703,-2.39854 1.27029,-6.49894 1.2703,-10.4135 1.2703,-1.24326 1.2703,-3.46279 1.2703,2.8856 1.2703,1.12024 1.2703,10.47858 1.2703,-7.05533 1.2703,-9.06603 1.2703,-6.29732 1.27029,9.73167 1.2703,3.05841 1.2703,9.72325 1.2703,4.72733 1.2703,7.8642 1.2703,-14.66844 1.2703,-9.26549 1.2703,-0.0358 1.2703,6.42625 1.2703,0.12518 1.27029,9.05422 1.2703,9.95903 1.2703,-6.51184 1.2703,-0.42547 1.2703,6.81915 1.2703,-1.52174 1.2703,-4.69491 1.2703,3.49463 1.2703,-1.23022 1.2703,-14.52359 1.27029,-3.37004 1.2703,5.7409 1.2703,-1.11606 1.2703,-1.58638 1.2703,12.75296 1.2703,5.7056 1.2703,-5.05217 1.2703,1.60396 1.2703,1.26907 2.54059,-6.43053 1.2703,2.74061 1.2703,6.56318 1.2703,1.81412 1.2703,-1.20452 1.2703,-2.18304 1.2703,-8.40804 2.5406,-24.33268 1.27029,1.95362 1.2703,-3.23909 1.2703,3.61907 1.2703,-25.34384 1.2703,-19.29914 1.2703,-11.52754 1.2703,9.80331 1.2703,1.29981 2.5406,56.83742 1.27029,9.5615 1.2703,-9.47165 2.5406,-2.97276 1.2703,-2.2296 1.2703,3.72778 1.2703,4.51763 1.2703,1.77252 1.2703,2.25486 1.2703,8.26883 1.27029,-1.06098 1.2703,1.80539 1.2703,6.19762 1.2703,12.15688 1.2703,0.81168 1.2703,1.90249 1.2703,1.60845 1.2703,-2.54348 1.2703,-17.73326 1.2703,-5.66834 1.27029,3.01769 1.2703,-8.57871 1.2703,-2.12274 1.2703,6.43138 1.2703,0.73623 1.2703,-2.8736 1.2703,1.46909 1.2703,-7.73047 1.2703,7.70987 1.2703,-0.2827 1.27029,1.42305 1.2703,4.86653 1.2703,8.98561 1.2703,-12.61831 1.2703,-4.55552 1.2703,-5.02063 1.2703,-5.99286 1.2703,-7.50066 2.5406,16.75356 1.27029,1.43035 1.2703,6.11346 1.2703,2.31788 1.2703,-10.38949 1.2703,-22.25343 1.2703,-4.99378 1.2703,3.9736 1.2703,-0.15677 1.2703,3.16267 1.27029,16.64107 1.2703,8.59162 1.2703,-8.10265 1.2703,0.54345 1.2703,0.37021 1.2703,-2.47176 1.2703,5.68904 1.2703,20.71516 1.2703,9.49053 1.2703,4.2893 1.27029,2.12996 1.2703,-9.59498 1.2703,-16.26825 1.2703,-7.17664 1.2703,5.86292 1.2703,0.14524 1.2703,-4.84786 1.2703,13.19135 2.5406,51.64666 2.54059,175.79374 1.2703,29.34038 1.2703,21.35062 1.2703,55.87329 1.2703,27.6319 1.2703,-8.33705 1.2703,-10.50052 1.2703,-35.17581 2.54059,-194.53195 1.2703,-71.08526 1.2703,-40.58769 1.2703,-16.0698 1.2703,10.628 1.2703,-10.41356 1.2703,-2.926 1.2703,6.98775 1.2703,2.10313 1.2703,-9.08485 1.27029,-4.88943 1.2703,4.42872 1.2703,7.41014 1.2703,2.55338 1.2703,3.87591 1.2703,-7.77157 1.2703,5.71288 1.2703,-1.55317 1.2703,5.25113 1.2703,4.4125 1.27029,6.90824 1.2703,-15.88133 1.2703,-11.19098 1.2703,11.52257 1.2703,-6.55451 1.2703,-32.16256 1.2703,9.51317 1.2703,-4.92539 1.2703,-22.67968 1.27029,10.60137 1.2703,25.27772 1.2703,-4.377 1.2703,15.025 1.2703,3.33605 1.2703,-14.29162 1.2703,11.50574 1.2703,5.3675 1.2703,2.39588 1.2703,-5.07885 1.27029,7.61529 1.2703,-3.98518 1.2703,2.52321 1.2703,3.55072 1.2703,4.58143 1.2703,-0.40875 1.2703,-1.32101 1.2703,-5.73229 1.2703,-2.4694 1.2703,9.58734 1.2703,7.54306 1.27029,5.57524 1.2703,11.03324 1.2703,-1.16465 1.2703,-5.42566 1.2703,-9.3369 1.2703,-1.55459 1.2703,-3.12625 1.2703,-2.37005 1.2703,0.73044 1.27029,7.13456 1.2703,0.29191 1.2703,-4.96994 1.2703,-0.42073 1.2703,-6.48332 1.2703,1.36694 1.2703,-0.45276 1.2703,1.12777 1.2703,-7.04939 1.2703,0.42308 1.27029,-5.53063 1.2703,-0.98891 1.2703,-1.612 1.2703,13.17831 1.2703,18.98231 1.2703,13.55184 1.2703,-1.60828 1.2703,13.69409 1.2703,-12.89311 1.2703,-16.25506 1.27029,5.77778 1.2703,8.62284 1.2703,-8.58577 1.2703,17.7436 1.2703,10.25469 1.2703,-9.10277 1.2703,4.2119 1.2703,28.67062 1.2703,1.41984 1.27029,5.88101 1.2703,-0.32837 1.2703,0.91352 1.2703,-23.24847 1.2703,-7.60324 1.2703,-6.19172 1.2703,-3.81778 1.2703,-8.33516 1.2703,-1.95575 1.2703,1.49429 1.27029,-5.29792 1.2703,1.2658 1.2703,15.34922 1.2703,-3.52559 2.5406,-5.77878 1.2703,-0.33544 1.2703,-21.05363 1.2703,-4.72766 1.2703,-6.71079 1.2703,-4.5974 1.27029,-9.39278 1.2703,-3.40202 1.2703,2.92685 1.2703,-9.50744 2.5406,54.03524 1.2703,2.66817 1.2703,-2.31756 1.2703,13.56838 1.27029,-19.56478 1.2703,-24.78886 1.2703,7.07252 1.2703,0.32474 1.2703,3.51059 1.2703,5.1503 1.2703,10.28401 1.2703,1.89581 1.2703,1.54204 1.2703,0.13955 2.54059,1.92379 1.2703,-3.35584 1.2703,9.02923 1.2703,5.78327 1.2703,-0.027 1.2703,-1.11785 1.2703,7.64219 1.2703,-6.29893 2.54059,10.30971 1.2703,-4.52489 1.2703,-12.65545 1.2703,-4.08737 1.2703,-7.99981 1.2703,-10.27695 1.2703,5.83315 1.2703,9.51704 1.2703,10.45175 1.27029,-3.09249 1.2703,4.51947 1.2703,-1.40168 1.2703,-1.19407 1.2703,-3.85871 1.2703,-3.17896 1.2703,-1.82086 1.2703,1.77695 1.2703,-3.22281 1.2703,-2.12684 1.27029,1.54891 1.2703,4.03076 1.2703,-1.17405 1.2703,-18.95471 1.2703,2.35746 1.2703,0.73656 1.2703,-9.96543 1.2703,-2.60332 1.2703,8.40529 2.54059,-16.41427 2.5406,-20.25851 1.2703,1.26954 1.2703,-7.34952 1.2703,0.20561 1.2703,9.86181 1.2703,1.69224 1.2703,0.73812 1.2703,5.93194 1.2703,-3.30057 1.27029,-5.59387 1.2703,0.5467 1.2703,2.99316 1.2703,1.61692 1.2703,9.5133 1.2703,-3.38083 1.2703,-0.85215 1.2703,10.74576 1.2703,2.41694 1.2703,5.47589 1.27029,11.99096 1.2703,-4.00242 1.2703,7.08204 1.2703,-0.66842 1.2703,-5.87841 1.2703,4.56935 1.2703,14.37884 1.2703,-14.20341 1.2703,7.56318 1.27029,3.68393 1.2703,0.67165 1.2703,-0.65812 2.5406,19.38505 1.2703,-0.4118 1.2703,5.84131 1.2703,0.0148 1.2703,-8.17121 1.2703,-10.07961 1.27029,-0.0384 1.2703,-5.56665 1.2703,2.54008 1.2703,5.2193 1.2703,0.2635 1.2703,-0.81132 1.2703,-4.662 1.2703,-4.03111 1.2703,-5.29689 1.27029,-8.33391 1.2703,5.15663 1.2703,8.99022 1.2703,10.29761 1.2703,8.41799 1.2703,11.41634 1.2703,0.34897 1.2703,3.25039 1.2703,-0.27543 1.2703,1.76545 1.27029,2.21219 1.2703,1.45028 1.2703,-1.43721 1.2703,-1.21609 1.2703,-2.39841 1.2703,0.12413 1.2703,4.9514 1.2703,-3.92408 1.2703,1.24395 1.2703,-9.49537 1.27029,-12.08523 1.2703,-14.58018 1.2703,-6.99075 1.2703,-6.35459 1.2703,10.20121 1.2703,7.20843 1.2703,3.85544 1.2703,4.83251 1.2703,-5.55431 2.54059,-15.76627 1.2703,-10.15247 1.2703,-3.77604 1.2703,3.29495 1.2703,-2.18369 1.2703,2.17378 1.2703,9.3669 1.2703,-2.76389 1.2703,1.24104 1.2703,4.4674 2.54059,-10.71017 1.2703,-2.54668 1.2703,-16.09776 1.2703,-14.0768 1.2703,-4.64036 1.2703,1.55882 1.2703,14.20013 1.2703,23.06892 1.27029,12.76919 1.2703,8.87136 1.2703,-1.74928 2.5406,-30.99161 1.2703,-4.33697 1.2703,2.23063 1.2703,1.96191 1.2703,5.79665 1.2703,4.46544 1.27029,-1.74931 1.2703,-3.35428 1.2703,5.54437 1.2703,3.01242 1.2703,1.18606 1.2703,2.75404 1.2703,0.74897 1.2703,-0.69364 1.2703,-0.28471 1.2703,0.55562 1.27029,5.80868 1.2703,13.28847 1.2703,0.18629 1.2703,4.4678 1.2703,3.90089 1.2703,-0.15648 1.2703,-3.41224 1.2703,1.74812 1.2703,3.16349 1.2703,-4.60369 2.54059,-6.72329 1.2703,-4.73345 1.2703,-5.30806 1.2703,4.90346 1.2703,2.82446 1.2703,-1.90998 1.2703,3.94113 1.2703,2.12622 1.2703,3.38593 2.54059,5.02026 1.2703,0.82797 1.2703,7.24663 1.2703,-3.19209 1.2703,2.58024 1.2703,-0.14515 1.2703,2.96894 1.2703,-6.40712 1.2703,2.11647 1.2703,3.0708 1.27029,4.54348 1.2703,-2.09038 1.2703,-2.95261 1.2703,-1.6412 1.2703,-6.21619 1.2703,-3.29797 1.2703,0.56677 1.2703,8.91333 1.27029,-4.16934 1.2703,-0.24064 1.2703,-0.58736 1.2703,1.50423 1.2703,-15.85068 1.2703,1.2213 1.2703,-3.2098 2.5406,-23.15979 1.2703,2.22909 1.27029,-3.84431 1.2703,-2.50743 1.2703,-0.58644 1.2703,-3.41996 1.2703,-9.21388 1.2703,-13.75764 1.2703,-2.10363 1.2703,7.1125 1.2703,2.88545 1.2703,14.66954 1.27029,17.71371 1.2703,9.50969 1.2703,4.37833 1.2703,9.64599 1.2703,3.16748 1.2703,0.97878 1.2703,-1.13824 1.2703,-1.3855 1.2703,2.22603 1.2703,-4.91279 1.2703,3.17 1.27029,1.77166 1.2703,4.15364 1.2703,-6.91381 1.2703,5.5409 1.2703,-2.34639 1.2703,-0.74615 1.2703,-1.25483 1.2703,4.50876 2.54059,-26.78201 1.2703,4.55181 1.2703,-11.82658 1.2703,18.66126 1.2703,11.17682 1.2703,13.05139 1.2703,2.94331 1.2703,4.37453 1.2703,-15.94907 1.2703,6.75472 1.27029,-3.5001 1.2703,-13.22212 1.2703,0.5667 1.2703,-10.05052 1.2703,2.87071 1.2703,-18.80619 1.2703,0.99849 1.2703,7.7009 1.2703,11.99458 1.27029,-9.34868 1.2703,8.32886 1.2703,-1.30041 1.2703,-4.26657 1.2703,-5.70352 2.5406,-26.43082 1.2703,-26.69519 1.2703,-2.76921 1.2703,-5.50989 1.27029,-3.27667 1.2703,12.59393 1.2703,21.24571 1.2703,-10.46163 1.2703,-13.49735 1.2703,5.56916 1.2703,8.34788 1.2703,10.9442 1.2703,13.71578 1.2703,8.17961 1.27029,-4.32245 1.2703,-6.10198 1.2703,-7.40896 1.2703,-4.81142 1.2703,11.32249 1.2703,8.62518 1.2703,10.00538 1.2703,3.46985 1.2703,-9.77153 1.2703,-0.90026 1.27029,-3.07209 1.2703,-18.82323 1.2703,16.15557 1.2703,19.54438 1.2703,-5.84049 1.2703,-5.03568 1.2703,29.06588 1.2703,-30.37115 1.2703,-17.90639 1.2703,-9.77816 1.27029,22.40367 1.2703,-16.33995 2.5406,42.83786 1.2703,15.54738 1.2703,-10.82321 1.2703,13.48977 1.2703,3.6823 1.2703,0.62553 1.2703,2.10298 1.27029,-15.73172 1.2703,0.59477 1.2703,-5.07279 1.2703,-4.02628 1.2703,5.18475 1.2703,21.48224 1.2703,-4.1659 1.2703,3.50727 1.2703,7.33775 1.27029,-4.09164 0,0" /></g></g><g
       id="g138"><path
         id="path140"
         style="fill:none;stroke:#000000;stroke-width:0.80000001;stroke-linecap:square;stroke-linejoin:miter;stroke-miterlimit:10;stroke-dasharray:none;stroke-opacity:1"
         d="m 94.95,76.2625 0,543.6" /><path
         id="path142"
         style="fill:none;stroke:#000000;stroke-width:0.80000001;stroke-linecap:square;stroke-linejoin:miter;stroke-miterlimit:10;stroke-dasharray:none;stroke-opacity:1"
         d="m 931.95,76.2625 0,543.6" /><path
         id="path144"
         style="fill:none;stroke:#000000;stroke-width:0.80000001;stroke-linecap:square;stroke-linejoin:miter;stroke-miterlimit:10;stroke-dasharray:none;stroke-opacity:1"
         d="m 94.95,76.2625 837,0" /><path
         id="path146"
         style="fill:none;stroke:#000000;stroke-width:0.80000001;stroke-linecap:square;stroke-linejoin:miter;stroke-miterlimit:10;stroke-dasharray:none;stroke-opacity:1"
         d="m 94.95,619.8625 837,0" /></g></g></svg>