<?xml version="1.0" encoding="UTF-8" standalone="no"?>
<svg
   xmlns:dc="http://purl.org/dc/elements/1.1/"
   xmlns:cc="http://creativecommons.org/ns#"
   xmlns:rdf="http://www.w3.org/1999/02/22-rdf-syntax-ns#"
   xmlns:svg="http://www.w3.org/2000/svg"
   xmlns="http://www.w3.org/2000/svg"
   viewBox="0 0 1197.8242 788.20312"
   height="788.20312"
   width="1197.8242"
   xml:space="preserve"
   version="1.1"
   id="svg2"><metadata
     id="metadata8"><rdf:RDF><cc:Work
         rdf:about=""><dc:format>image/svg+xml</dc:format><dc:type
           rdf:resource="http://purl.org/dc/dcmitype/StillImage" /></cc:Work></rdf:RDF></metadata><defs
     id="defs6"><clipPath
       id="clipPath60"
       clipPathUnits="userSpaceOnUse"><path
         id="path62"
         d="m -1016,-351 2676,0 0,1419 -2676,0 0,-1419 z" /></clipPath><clipPath
       id="clipPath80"
       clipPathUnits="userSpaceOnUse"><path
         id="path82"
         d="m -1021,-463 2815,0 0,1696 -2815,0 0,-1696 z" /></clipPath><clipPath
       id="clipPath142"
       clipPathUnits="userSpaceOnUse"><path
         id="path144"
         d="m 110.55937,76.2625 837.00001,0 0,543.6 -837.00001,0 0,-543.6 z" /></clipPath><clipPath
       id="clipPath152"
       clipPathUnits="userSpaceOnUse"><path
         id="path154"
         d="m 110.55937,76.2625 837.00001,0 0,543.6 -837.00001,0 0,-543.6 z" /></clipPath><clipPath
       id="clipPath162"
       clipPathUnits="userSpaceOnUse"><path
         id="path164"
         d="m 110.55937,76.2625 837.00001,0 0,543.6 -837.00001,0 0,-543.6 z" /></clipPath><clipPath
       id="clipPath172"
       clipPathUnits="userSpaceOnUse"><path
         id="path174"
         d="m 110.55937,76.2625 837.00001,0 0,543.6 -837.00001,0 0,-543.6 z" /></clipPath></defs><g
     transform="matrix(1.25,0,0,-1.25,0,788.20312)"
     id="g10"><path
       id="path12"
       style="fill:#ffffff;fill-opacity:1;fill-rule:nonzero;stroke:none"
       d="m 0,0 958.25938,0 0,630.5625 L 0,630.5625 0,0 Z" /><path
       id="path14"
       style="fill:#ffffff;fill-opacity:1;fill-rule:nonzero;stroke:none"
       d="m 110.55937,76.2625 837.00001,0 0,543.6 -837.00001,0 0,-543.6 z" /><path
       id="path16"
       style="fill:#000000;fill-opacity:1;fill-rule:nonzero;stroke:#000000;stroke-width:0.80000001;stroke-linecap:butt;stroke-linejoin:round;stroke-miterlimit:10;stroke-dasharray:none;stroke-opacity:1"
       d="m 148.60483,76.2625 0,-3.5" /><text
       id="text18"
       style="font-variant:normal;font-weight:normal;font-size:30px;font-family:'DejaVu Sans';-inkscape-font-specification:DejaVuSans;writing-mode:lr-tb;fill:#000000;fill-opacity:1;fill-rule:nonzero;stroke:none"
       transform="matrix(1,0,0,-1,119.9642,46.465625)"><tspan
         id="tspan20"
         y="0"
         x="0 19.08 38.16">500</tspan></text>
<path
       id="path22"
       style="fill:#000000;fill-opacity:1;fill-rule:nonzero;stroke:#000000;stroke-width:0.80000001;stroke-linecap:butt;stroke-linejoin:round;stroke-miterlimit:10;stroke-dasharray:none;stroke-opacity:1"
       d="m 302.32384,76.2625 0,-3.5" /><text
       id="text24"
       style="font-variant:normal;font-weight:normal;font-size:30px;font-family:'DejaVu Sans';-inkscape-font-specification:DejaVuSans;writing-mode:lr-tb;fill:#000000;fill-opacity:1;fill-rule:nonzero;stroke:none"
       transform="matrix(1,0,0,-1,273.68321,46.465625)"><tspan
         id="tspan26"
         y="0"
         x="0 19.08 38.16">520</tspan></text>
<path
       id="path28"
       style="fill:#000000;fill-opacity:1;fill-rule:nonzero;stroke:#000000;stroke-width:0.80000001;stroke-linecap:butt;stroke-linejoin:round;stroke-miterlimit:10;stroke-dasharray:none;stroke-opacity:1"
       d="m 456.04285,76.2625 0,-3.5" /><text
       id="text30"
       style="font-variant:normal;font-weight:normal;font-size:30px;font-family:'DejaVu Sans';-inkscape-font-specification:DejaVuSans;writing-mode:lr-tb;fill:#000000;fill-opacity:1;fill-rule:nonzero;stroke:none"
       transform="matrix(1,0,0,-1,427.40222,46.465625)"><tspan
         id="tspan32"
         y="0"
         x="0 19.08 38.16">540</tspan></text>
<path
       id="path34"
       style="fill:#000000;fill-opacity:1;fill-rule:nonzero;stroke:#000000;stroke-width:0.80000001;stroke-linecap:butt;stroke-linejoin:round;stroke-miterlimit:10;stroke-dasharray:none;stroke-opacity:1"
       d="m 609.76185,76.2625 0,-3.5" /><text
       id="text36"
       style="font-variant:normal;font-weight:normal;font-size:30px;font-family:'DejaVu Sans';-inkscape-font-specification:DejaVuSans;writing-mode:lr-tb;fill:#000000;fill-opacity:1;fill-rule:nonzero;stroke:none"
       transform="matrix(1,0,0,-1,581.12123,46.465625)"><tspan
         id="tspan38"
         y="0"
         x="0 19.08 38.16">560</tspan></text>
<path
       id="path40"
       style="fill:#000000;fill-opacity:1;fill-rule:nonzero;stroke:#000000;stroke-width:0.80000001;stroke-linecap:butt;stroke-linejoin:round;stroke-miterlimit:10;stroke-dasharray:none;stroke-opacity:1"
       d="m 763.48086,76.2625 0,-3.5" /><text
       id="text42"
       style="font-variant:normal;font-weight:normal;font-size:30px;font-family:'DejaVu Sans';-inkscape-font-specification:DejaVuSans;writing-mode:lr-tb;fill:#000000;fill-opacity:1;fill-rule:nonzero;stroke:none"
       transform="matrix(1,0,0,-1,734.84024,46.465625)"><tspan
         id="tspan44"
         y="0"
         x="0 19.08 38.16">580</tspan></text>
<path
       id="path46"
       style="fill:#000000;fill-opacity:1;fill-rule:nonzero;stroke:#000000;stroke-width:0.80000001;stroke-linecap:butt;stroke-linejoin:round;stroke-miterlimit:10;stroke-dasharray:none;stroke-opacity:1"
       d="m 917.19987,76.2625 0,-3.5" /><text
       id="text48"
       style="font-variant:normal;font-weight:normal;font-size:30px;font-family:'DejaVu Sans';-inkscape-font-specification:DejaVuSans;writing-mode:lr-tb;fill:#000000;fill-opacity:1;fill-rule:nonzero;stroke:none"
       transform="matrix(1,0,0,-1,888.55925,46.465625)"><tspan
         id="tspan50"
         y="0"
         x="0 19.08 38.16">600</tspan></text>
<g
       transform="translate(520.05938,13.434375)"
       id="g52"><g
         transform="matrix(0.03,0,0,0.03,0,0.203125)"
         id="g54"><g
           id="g56"><g
             clip-path="url(#clipPath60)"
             id="g58"><path
               id="path64"
               style="fill:#000000;fill-opacity:1;fill-rule:nonzero;stroke:none"
               d="M 367,674 488,0 393,0 318,404 51,0 -43,0 297,524 280,621 c -7,41 -28,62 -63,62 l -47,0 15,77 57,-1 c 73,-2 115,-30 125,-85" /></g></g></g></g><path
       id="path66"
       style="fill:#000000;fill-opacity:1;fill-rule:nonzero;stroke:#000000;stroke-width:0.80000001;stroke-linecap:butt;stroke-linejoin:round;stroke-miterlimit:10;stroke-dasharray:none;stroke-opacity:1"
       d="m 110.55937,86.78779 -3.5,0" /><g
       transform="translate(40.23125,75.389352)"
       id="g68"><text
         id="text70"
         style="font-variant:normal;font-weight:normal;font-size:30px;font-family:'DejaVu Sans';-inkscape-font-specification:DejaVuSans;writing-mode:lr-tb;fill:#000000;fill-opacity:1;fill-rule:nonzero;stroke:none"
         transform="matrix(1,0,0,-1,25.136719,0)"><tspan
           id="tspan72"
           y="0"
           x="0 19.08">10</tspan></text>
<g
         transform="scale(0.03,0.03)"
         id="g74"><g
           id="g76"><g
             clip-path="url(#clipPath80)"
             id="g78"><path
               id="path84"
               style="fill:#000000;fill-opacity:1;fill-rule:nonzero;stroke:none"
               d="m 106,355 626,0 0,-83 -626,0 0,83" /></g></g></g></g><path
       id="path86"
       style="fill:#000000;fill-opacity:1;fill-rule:nonzero;stroke:#000000;stroke-width:0.80000001;stroke-linecap:butt;stroke-linejoin:round;stroke-miterlimit:10;stroke-dasharray:none;stroke-opacity:1"
       d="m 110.55937,152.23718 -3.5,0" /><text
       id="text88"
       style="font-variant:normal;font-weight:normal;font-size:30px;font-family:'DejaVu Sans';-inkscape-font-specification:DejaVuSans;writing-mode:lr-tb;fill:#000000;fill-opacity:1;fill-rule:nonzero;stroke:none"
       transform="matrix(1,0,0,-1,84.465625,140.83874)"><tspan
         id="tspan90"
         y="0"
         x="0">0</tspan></text>
<path
       id="path92"
       style="fill:#000000;fill-opacity:1;fill-rule:nonzero;stroke:#000000;stroke-width:0.80000001;stroke-linecap:butt;stroke-linejoin:round;stroke-miterlimit:10;stroke-dasharray:none;stroke-opacity:1"
       d="m 110.55937,217.68657 -3.5,0" /><text
       id="text94"
       style="font-variant:normal;font-weight:normal;font-size:30px;font-family:'DejaVu Sans';-inkscape-font-specification:DejaVuSans;writing-mode:lr-tb;fill:#000000;fill-opacity:1;fill-rule:nonzero;stroke:none"
       transform="matrix(1,0,0,-1,65.371875,206.28814)"><tspan
         id="tspan96"
         y="0"
         x="0 19.08">10</tspan></text>
<path
       id="path98"
       style="fill:#000000;fill-opacity:1;fill-rule:nonzero;stroke:#000000;stroke-width:0.80000001;stroke-linecap:butt;stroke-linejoin:round;stroke-miterlimit:10;stroke-dasharray:none;stroke-opacity:1"
       d="m 110.55937,283.13596 -3.5,0" /><text
       id="text100"
       style="font-variant:normal;font-weight:normal;font-size:30px;font-family:'DejaVu Sans';-inkscape-font-specification:DejaVuSans;writing-mode:lr-tb;fill:#000000;fill-opacity:1;fill-rule:nonzero;stroke:none"
       transform="matrix(1,0,0,-1,65.371875,271.73753)"><tspan
         id="tspan102"
         y="0"
         x="0 19.08">20</tspan></text>
<path
       id="path104"
       style="fill:#000000;fill-opacity:1;fill-rule:nonzero;stroke:#000000;stroke-width:0.80000001;stroke-linecap:butt;stroke-linejoin:round;stroke-miterlimit:10;stroke-dasharray:none;stroke-opacity:1"
       d="m 110.55937,348.58536 -3.5,0" /><text
       id="text106"
       style="font-variant:normal;font-weight:normal;font-size:30px;font-family:'DejaVu Sans';-inkscape-font-specification:DejaVuSans;writing-mode:lr-tb;fill:#000000;fill-opacity:1;fill-rule:nonzero;stroke:none"
       transform="matrix(1,0,0,-1,65.371875,337.18692)"><tspan
         id="tspan108"
         y="0"
         x="0 19.08">30</tspan></text>
<path
       id="path110"
       style="fill:#000000;fill-opacity:1;fill-rule:nonzero;stroke:#000000;stroke-width:0.80000001;stroke-linecap:butt;stroke-linejoin:round;stroke-miterlimit:10;stroke-dasharray:none;stroke-opacity:1"
       d="m 110.55937,414.03475 -3.5,0" /><text
       id="text112"
       style="font-variant:normal;font-weight:normal;font-size:30px;font-family:'DejaVu Sans';-inkscape-font-specification:DejaVuSans;writing-mode:lr-tb;fill:#000000;fill-opacity:1;fill-rule:nonzero;stroke:none"
       transform="matrix(1,0,0,-1,65.371875,402.63631)"><tspan
         id="tspan114"
         y="0"
         x="0 19.08">40</tspan></text>
<path
       id="path116"
       style="fill:#000000;fill-opacity:1;fill-rule:nonzero;stroke:#000000;stroke-width:0.80000001;stroke-linecap:butt;stroke-linejoin:round;stroke-miterlimit:10;stroke-dasharray:none;stroke-opacity:1"
       d="m 110.55937,479.48414 -3.5,0" /><text
       id="text118"
       style="font-variant:normal;font-weight:normal;font-size:30px;font-family:'DejaVu Sans';-inkscape-font-specification:DejaVuSans;writing-mode:lr-tb;fill:#000000;fill-opacity:1;fill-rule:nonzero;stroke:none"
       transform="matrix(1,0,0,-1,65.371875,468.0857)"><tspan
         id="tspan120"
         y="0"
         x="0 19.08">50</tspan></text>
<path
       id="path122"
       style="fill:#000000;fill-opacity:1;fill-rule:nonzero;stroke:#000000;stroke-width:0.80000001;stroke-linecap:butt;stroke-linejoin:round;stroke-miterlimit:10;stroke-dasharray:none;stroke-opacity:1"
       d="m 110.55937,544.93353 -3.5,0" /><text
       id="text124"
       style="font-variant:normal;font-weight:normal;font-size:30px;font-family:'DejaVu Sans';-inkscape-font-specification:DejaVuSans;writing-mode:lr-tb;fill:#000000;fill-opacity:1;fill-rule:nonzero;stroke:none"
       transform="matrix(1,0,0,-1,65.371875,533.53509)"><tspan
         id="tspan126"
         y="0"
         x="0 19.08">60</tspan></text>
<path
       id="path128"
       style="fill:#000000;fill-opacity:1;fill-rule:nonzero;stroke:#000000;stroke-width:0.80000001;stroke-linecap:butt;stroke-linejoin:round;stroke-miterlimit:10;stroke-dasharray:none;stroke-opacity:1"
       d="m 110.55937,610.38292 -3.5,0" /><text
       id="text130"
       style="font-variant:normal;font-weight:normal;font-size:30px;font-family:'DejaVu Sans';-inkscape-font-specification:DejaVuSans;writing-mode:lr-tb;fill:#000000;fill-opacity:1;fill-rule:nonzero;stroke:none"
       transform="matrix(1,0,0,-1,65.371875,598.98449)"><tspan
         id="tspan132"
         y="0"
         x="0 19.08">70</tspan></text>
<text
       id="text134"
       style="font-variant:normal;font-weight:normal;font-size:30px;font-family:'DejaVu Sans';-inkscape-font-specification:DejaVuSans;writing-mode:lr-tb;fill:#000000;fill-opacity:1;fill-rule:nonzero;stroke:none"
       transform="matrix(0,1,1,0,29.996875,316.88281)"><tspan
         id="tspan136"
         y="0"
         x="0 17.25 25.59 44.610001">Flux</tspan></text>
<g
       id="g138"><g
         clip-path="url(#clipPath142)"
         id="g140"><path
           id="path146"
           style="fill:none;stroke:#000000;stroke-width:4;stroke-linecap:square;stroke-linejoin:round;stroke-miterlimit:10;stroke-dasharray:none;stroke-opacity:0.7"
           d="m 148.60483,181.62243 7.68595,3.99433 7.68595,2.32926 7.68595,-3.89899 7.68595,0.83997 7.68595,3.1004 7.68595,4.22421 7.68595,-5.03977 7.68595,13.47265 7.68595,2.75179 7.68595,11.16489 7.68595,-6.14336 7.68596,-0.14195 7.68594,-3.35419 7.68595,3.84929 7.68596,-6.78717 7.68595,0.64083 7.68595,4.18533 7.68595,-1.98071 7.68595,-2.58022 7.68595,-9.66607 7.68595,-0.90754 7.68595,1.91065 7.68595,0.7331 7.68595,-7.47758 7.68595,0.98922 7.68595,5.32321 7.68595,0.14861 7.68595,-9.51397 7.68595,9.0826 7.68595,-9.14578 7.68595,-3.35154 7.68595,-5.44454 7.68595,-0.62308 7.68595,-18.80224 7.68595,8.19133 7.68595,0.53795 7.68595,2.90399 7.68596,16.10967 7.68595,19.1777 7.68595,3.78803 7.68595,0.65591 7.68595,0.21804 7.68595,-0.31063 7.68595,-6.13037 7.68595,1.46953 7.68595,3.68809 7.68595,4.50563 7.68595,-1.74548 7.68595,6.224 7.68595,-2.43542 7.68595,-1.16839 7.68595,-2.86506 7.68595,3.56183 7.68595,0.20586 7.68595,5.18358 7.68595,0.52008 7.68595,-0.60106 7.68595,-11.16478 7.68595,-4.50358 7.68595,-0.34821 7.68595,-4.1821 7.68596,1.44033 7.68595,4.23922 7.68595,5.78038 7.68595,-2.19478 7.68595,3.6773 7.68595,-5.11278 7.68595,-6.24549 7.68595,-0.60441 7.68595,-8.50239 7.68595,-8.11815 7.68595,5.44985 7.68595,5.2634 7.68595,-10.00153 7.68595,3.06005 7.68595,9.02999 7.68595,0.0242 7.68595,4.41638 7.68595,15.48672 7.68595,14.04744 7.68595,-10.63046 7.68595,-20.91113 7.68595,-7.04421 7.68595,-13.41344 7.68595,-11.69357 7.68595,9.60746 7.68595,19.0972 7.68596,3.31357 7.68595,0.10195 7.68595,-2.86887 7.68595,2.11388 7.68595,-0.49607 7.68595,2.73657 7.68595,7.40367 7.68595,6.35265 7.68595,0.65719 7.68595,9.58265 7.68595,2.16402 7.68595,-2.67158" /></g></g><g
       id="g148"><g
         clip-path="url(#clipPath152)"
         id="g150"><path
           id="path156"
           style="fill:none;stroke:#000000;stroke-width:4;stroke-linecap:square;stroke-linejoin:round;stroke-miterlimit:10;stroke-dasharray:none;stroke-opacity:0.7"
           d="m 148.60483,346.77022 7.68595,25.08052 7.68595,13.46458 7.68595,6.1992 7.68595,13.65757 7.68595,4.48479 7.68595,1.38582 7.68595,-1.6116 7.68595,-1.9617 7.68595,3.15178 7.68595,-6.95592 7.68595,4.48835 7.68596,2.50846 7.68594,5.88105 7.68595,-9.78912 7.68596,7.84525 7.68595,-3.32221 7.68595,-1.05647 7.68595,-1.77668 7.68595,6.38387 7.68595,-19.11976 7.68595,-18.80038 7.68595,6.44482 7.68595,-16.74504 7.68595,26.42213 7.68595,15.82506 7.68595,18.47921 7.68595,4.16737 7.68595,6.19382 7.68595,-22.58199 7.68595,9.56388 7.68595,-4.95572 7.68595,-18.72096 7.68595,0.80238 7.68595,-14.23034 7.68595,4.06458 7.68595,-26.62733 7.68595,1.41374 7.68596,10.90357 7.68595,16.9829 7.68595,-13.23663 7.68595,11.79268 7.68595,-1.84122 7.68595,-6.04096 7.68595,-8.0755 7.68595,-18.49306 7.68595,-18.92985 7.68595,-37.79722 7.68595,-3.92088 7.68595,-7.80134 7.68595,-4.63938 7.68595,17.83151 7.68595,30.08141 7.68595,-14.81242 7.68595,-19.11065 7.68595,7.88526 7.68595,11.81962 7.68595,15.49568 7.68595,19.41991 7.68595,11.58136 7.68595,-6.12008 7.68595,-8.63967 7.68596,-10.49021 7.68595,-6.81239 7.68595,16.0313 7.68595,12.21222 7.68595,14.16643 7.68595,4.9129 7.68595,-13.83533 7.68595,-1.27466 7.68595,-4.34972 7.68595,-26.65145 7.68595,22.87436 7.68595,27.67252 7.68595,-8.26943 7.68595,-7.12993 7.68595,41.15384 7.68595,-43.00194 7.68595,-25.35332 7.68595,-13.84473 7.68595,31.72095 7.68595,-23.13543 7.68595,29.57897 7.68595,31.07434 7.68595,22.01325 7.68595,-15.32438 7.68595,19.09991 7.68595,5.21371 7.68596,0.88567 7.68595,2.97756 7.68595,-22.27423 7.68595,0.84211 7.68595,-7.18246 7.68595,-5.70074 7.68595,7.341 7.68595,30.41629 7.68595,-5.89841 7.68595,4.96588 7.68595,10.38937 7.68595,-5.79326" /></g></g><g
       id="g158"><g
         clip-path="url(#clipPath162)"
         id="g160"><path
           id="path166"
           style="fill:none;stroke:#1f77b4;stroke-width:3;stroke-linecap:square;stroke-linejoin:round;stroke-miterlimit:10;stroke-dasharray:none;stroke-opacity:1"
           d="m 148.60483,111.63838 7.68595,18.72121 7.68595,91.15725 7.68595,75.45954 7.68595,-113.53896 7.68595,22.76987 7.68595,-98.77545 7.68595,95.70082 7.68595,121.66943 7.68595,-16.86394 7.68595,42.38811 7.68595,-38.1306 7.68596,14.62889 7.68594,-69.94836 7.68595,19.26203 7.68596,-5.87944 7.68595,-107.77414 7.68595,89.73739 7.68595,-8.49102 7.68595,-7.05204 7.68595,110.38156 7.68595,-56.66762 7.68595,-154.66559 7.68595,129.13696 7.68595,-66.96924 7.68595,-37.51433 7.68595,2.09509 7.68595,1.50785 7.68595,51.08703 7.68595,-2.47748 7.68595,79.32294 7.68595,-102.76038 7.68595,59.37879 7.68595,-45.43121 7.68595,-46.16591 7.68595,56.90038 7.68595,2.28804 7.68595,34.88502 7.68596,-0.33825 7.68595,1.90904 7.68595,-12.91014 7.68595,14.65548 7.68595,31.3552 7.68595,-58.24033 7.68595,-53.03935 7.68595,79.67048 7.68595,84.26012 7.68595,8.74487 7.68595,-51.97817 7.68595,-153.19285 7.68595,67.62451 7.68595,39.89313 7.68595,-73.3622 7.68595,106.35092 7.68595,-73.26104 7.68595,124.42631 7.68595,-133.96652 7.68595,42.39054 7.68595,34.21198 7.68595,-85.5431 7.68595,-13.09717 7.68595,111.42609 7.68596,-30.63988 7.68595,-105.14963 7.68595,36.68996 7.68595,50.22655 7.68595,34.13591 7.68595,24.35574 7.68595,-100.66443 7.68595,9.73679 7.68595,-22.85501 7.68595,17.86024 7.68595,32.64142 7.68595,-68.70043 7.68595,135.00798 7.68595,-99.44104 7.68595,-101.233 7.68595,147.4288 7.68595,12.97601 7.68595,15.22313 7.68595,73.21146 7.68595,-53.62727 7.68595,-58.79594 7.68595,133.66964 7.68595,-98.15343 7.68595,26.7677 7.68595,-96.89939 7.68595,32.56888 7.68596,139.47475 7.68595,-78.4414 7.68595,-78.50304 7.68595,-14.58168 7.68595,-76.43739 7.68595,55.49093 7.68595,68.24976 7.68595,-91.06621 7.68595,159.94944 7.68595,-20.51332 7.68595,-27.00667 7.68595,-22.41526" /></g></g><g
       id="g168"><g
         clip-path="url(#clipPath172)"
         id="g170"><path
           id="path176"
           style="fill:none;stroke:#ff7f0e;stroke-width:3;stroke-linecap:square;stroke-linejoin:round;stroke-miterlimit:10;stroke-dasharray:none;stroke-opacity:1"
           d="m 148.60483,418.38797 7.68595,19.47594 7.68595,-3.38431 7.68595,-48.29413 7.68595,69.38949 7.68595,32.34737 7.68595,107.23108 7.68595,-140.20415 7.68595,-89.2041 7.68595,52.76108 7.68595,32.08512 7.68595,-30.04552 7.68596,-36.42462 7.68594,110.15513 7.68595,-43.77147 7.68596,19.76496 7.68595,65.19381 7.68595,-59.7028 7.68595,-26.73586 7.68595,69.2784 7.68595,-144.81275 7.68595,-52.92193 7.68595,212.92758 7.68595,-167.18281 7.68595,62.36531 7.68595,103.37137 7.68595,42.12941 7.68595,-18.93928 7.68595,-70.68944 7.68595,-20.24239 7.68595,-52.81166 7.68595,97.40602 7.68595,-97.95899 7.68595,67.69881 7.68595,-12.13129 7.68595,-54.65812 7.68595,-14.82137 7.68595,-62.57818 7.68596,54.71862 7.68595,79.62167 7.68595,-30.33606 7.68595,41.65121 7.68595,-87.5463 7.68595,67.67512 7.68595,47.48666 7.68595,-132.06746 7.68595,-99.09163 7.68595,-35.33284 7.68595,34.0656 7.68595,93.07149 7.68595,-1.55204 7.68595,2.45937 7.68595,48.79715 7.68595,-130.01564 7.68595,3.04704 7.68595,11.60551 7.68595,79.05005 7.68595,-42.8637 7.68595,-27.62254 7.68595,147.70941 7.68595,13.83049 7.68595,-159.41524 7.68596,43.29613 7.68595,87.77472 7.68595,6.43003 7.68595,-76.41061 7.68595,-0.42911 7.68595,-7.19908 7.68595,70.10403 7.68595,28.99651 7.68595,-68.43019 7.68595,-30.44213 7.68595,23.44877 7.68595,110.04347 7.68595,-176.80823 7.68595,107.07389 7.68595,117.17277 7.68595,-155.18606 7.68595,-34.73793 7.68595,-36.13613 7.68595,51.81377 7.68595,15.78028 7.68595,50.92285 7.68595,-119.81085 7.68595,61.25546 7.68595,-40.24982 7.68595,186.4836 7.68595,-29.36535 7.68596,-85.7091 7.68595,69.15105 7.68595,27.6478 7.68595,21.71258 7.68595,59.77463 7.68595,-147.42759 7.68595,-20.35809 7.68595,167.46922 7.68595,-181.9821 7.68595,32.77183 7.68595,83.36256 7.68595,10.06155" /></g></g><g
       id="g178"><path
         id="path180"
         style="fill:none;stroke:#000000;stroke-width:0.80000001;stroke-linecap:square;stroke-linejoin:miter;stroke-miterlimit:10;stroke-dasharray:none;stroke-opacity:1"
         d="m 110.55937,76.2625 0,543.6" /><path
         id="path182"
         style="fill:none;stroke:#000000;stroke-width:0.80000001;stroke-linecap:square;stroke-linejoin:miter;stroke-miterlimit:10;stroke-dasharray:none;stroke-opacity:1"
         d="m 947.55938,76.2625 0,543.6" /><path
         id="path184"
         style="fill:none;stroke:#000000;stroke-width:0.80000001;stroke-linecap:square;stroke-linejoin:miter;stroke-miterlimit:10;stroke-dasharray:none;stroke-opacity:1"
         d="m 110.55937,76.2625 837.00001,0" /><path
         id="path186"
         style="fill:none;stroke:#000000;stroke-width:0.80000001;stroke-linecap:square;stroke-linejoin:miter;stroke-miterlimit:10;stroke-dasharray:none;stroke-opacity:1"
         d="m 110.55937,619.8625 837.00001,0" /></g></g></svg>