<?xml version="1.0" encoding="UTF-8" standalone="no"?>
<!-- Created with Inkscape (http://www.inkscape.org/) -->

<svg
   xmlns:ns0="http://www.iki.fi/pav/software/textext/"
   xmlns:dc="http://purl.org/dc/elements/1.1/"
   xmlns:cc="http://creativecommons.org/ns#"
   xmlns:rdf="http://www.w3.org/1999/02/22-rdf-syntax-ns#"
   xmlns:svg="http://www.w3.org/2000/svg"
   xmlns="http://www.w3.org/2000/svg"
   xmlns:xlink="http://www.w3.org/1999/xlink"
   xmlns:sodipodi="http://sodipodi.sourceforge.net/DTD/sodipodi-0.dtd"
   xmlns:inkscape="http://www.inkscape.org/namespaces/inkscape"
   inkscape:version="0.91 r13725"
   version="1.1"
   id="svg5463"
   viewBox="0 0 1255.4273 1305.3354"
   height="368.39465mm"
   width="354.30948mm"
   sodipodi:docname="symetrie_dist.svg">
  <sodipodi:namedview
     inkscape:window-maximized="1"
     inkscape:window-y="0"
     inkscape:window-x="0"
     inkscape:window-height="711"
     inkscape:window-width="1366"
     showgrid="false"
     inkscape:current-layer="layer1"
     inkscape:document-units="px"
     inkscape:cy="698.32381"
     inkscape:cx="850.72105"
     inkscape:zoom="0.49497475"
     inkscape:pageshadow="2"
     inkscape:pageopacity="0.0"
     borderopacity="1.0"
     bordercolor="#666666"
     pagecolor="#ffffff"
     id="base"
     fit-margin-left="5"
     fit-margin-top="5"
     fit-margin-bottom="5"
     fit-margin-right="5" />
  <defs
     id="defs5465" />
  <metadata
     id="metadata5468">
    <rdf:RDF>
      <cc:Work
         rdf:about="">
        <dc:format>image/svg+xml</dc:format>
        <dc:type
           rdf:resource="http://purl.org/dc/dcmitype/StillImage" />
        <dc:title></dc:title>
      </cc:Work>
    </rdf:RDF>
  </metadata>
  <g
     inkscape:label="Calque 1"
     inkscape:groupmode="layer"
     id="layer1"
     transform="translate(656.32382,-3.3817203)">
    <path
       inkscape:connector-curvature="0"
       style="opacity:0.98999999;fill:none;fill-opacity:1;fill-rule:evenodd;stroke:#ff0606;stroke-width:10;stroke-linecap:butt;stroke-linejoin:miter;stroke-miterlimit:4;stroke-dasharray:none;stroke-dashoffset:0;stroke-opacity:1"
       d="m -638.57144,510.19975 c 8.34154,-0.0598 16.68309,-0.14763 25.02463,-0.309 8.34155,-0.16138 16.68309,-0.3946 25.02463,-0.79646 8.34155,-0.40186 16.68309,-0.97062 25.02463,-1.89208 8.34155,-0.92146 16.68309,-2.19524 25.02463,-4.13851 8.34155,-1.94327 16.68309,-4.55988 25.02463,-8.3233 8.34155,-3.76343 16.68309,-8.68564 25.02464,-15.36517 8.34154,-6.67953 16.68308,-15.13954 25.02463,-25.97397 8.34154,-10.83444 16.68309,-24.07681 25.02463,-40.07341 8.34154,-15.9966 16.68309,-34.78372 25.02463,-56.15341 8.34155,-21.36968 16.68309,-45.34697 25.02463,-70.92824 8.34155,-25.58126 16.68309,-52.76503 25.02463,-79.74285 8.34155,-26.97782 16.68309,-53.71402 25.02463,-77.92818 8.34155,-24.21416 16.68309,-45.843267 25.02464,-62.763037 8.34154,-16.91978 16.68308,-29.06057 25.02463,-35.15073 8.34154,-6.09016 16.68308,-6.07823 25.02463,0 8.34154,6.07823 16.68309,18.2403 25.02463,35.15073 8.34154,16.91043 16.68309,38.553957 25.02463,62.763037 8.34154,24.20909 16.68309,50.95088 25.02463,77.92818 8.34154,26.9773 16.68309,54.15852 25.02463,79.74285 8.34155,25.58434 16.68309,49.5535 25.02463,70.92824 8.34155,21.37475 16.68309,40.15136 25.02463,56.15341 8.34155,16.00205 16.683091,29.23423 25.024631,40.07341 8.34155,10.83917 16.68309,19.29091 25.02464,25.97397 8.34154,6.68307 16.68308,11.59941 25.02463,15.36517 8.34154,3.76575 16.68308,6.37867 25.02463,8.3233 8.3415404,1.94464 16.6830904,3.21632 25.02463,4.13851 8.34154,0.92219 16.68309,1.48987 25.02463,1.89208 8.34154,0.40221 16.68309,0.63493 25.02463,0.79646 8.34154,0.16152 16.68309,0.24921 25.02463,0.309"
       title="t 3*exp(-2*t*t)"
       id="path6168" />
    <path
       inkscape:connector-curvature="0"
       style="opacity:0.98999999;fill:none;fill-opacity:1;fill-rule:evenodd;stroke:#0609ff;stroke-width:10;stroke-linecap:butt;stroke-linejoin:miter;stroke-miterlimit:4;stroke-dasharray:none;stroke-dashoffset:0;stroke-opacity:1"
       d="m -285.11476,513.84158 c 6.32059,-0.0598 12.64119,-0.14763 18.96178,-0.309 6.32059,-0.16138 12.64118,-0.3946 18.96177,-0.79646 6.3206,-0.40186 12.64119,-0.97062 18.96178,-1.89208 6.3206,-0.92146 12.64119,-2.19524 18.96178,-4.13851 6.32059,-1.94327 12.64118,-4.55988 18.96177,-8.3233 6.3206,-3.76343 12.64119,-8.68564 18.96178,-15.36517 6.32059,-6.67953 12.64118,-15.13954 18.96178,-25.97397 6.32059,-10.83444 12.64118,-24.07681 18.96177,-40.07341 6.32059,-15.9966 12.64118,-34.78372 18.96177,-56.15341 6.3206,-21.36968 12.64119,-45.34697 18.961783,-70.92824 6.32059,-25.58126 12.64118,-52.76503 18.961769,-79.74285 6.320602,-26.97782 12.641192,-53.71402 18.961782,-77.92818 6.320596,-24.21415 12.641185,-45.843257 18.961782,-62.763027 6.320591,-16.91978 12.641181,-29.06057 18.961778,-35.15073 6.32059,-6.09016 12.6411793,-6.07823 18.96177649,0 6.32058961,6.07823 12.64118951,18.2403 18.96177851,35.15073 6.32059,16.91043 12.641187,38.553957 18.961777,62.763027 6.320581,24.20909 12.641178,50.95088 18.961767,77.92818 6.32059,26.9773 12.641187,54.15852 18.961776,79.74285 6.320597,25.58434 12.641186,49.5535 18.961776,70.92824 6.320595,21.37475 12.641185,40.15136 18.961775,56.15341 6.3206,16.00205 12.64119,29.23423 18.96178,40.07341 6.32059,10.83917 12.64118,19.29091 18.96178,25.97397 6.32059,6.68307 12.64118,11.59941 18.96178,15.36517 6.32058,3.76575 12.64117,6.37867 18.96177,8.3233 6.32059,1.94464 12.64119,3.21632 18.96178,4.13851 6.32059,0.92219 12.64118,1.48987 18.96177,1.89208 6.32059,0.40221 12.64119,0.63493 18.96178,0.79646 6.32059,0.16152 12.64118,0.24921 18.96177,0.309"
       title="t 3*exp(-2*t*t)"
       id="path6168-5" />
    <path
       sodipodi:nodetypes="cscccssssssssssccc"
       inkscape:connector-curvature="0"
       style="opacity:0.98999999;fill:none;fill-opacity:1;fill-rule:evenodd;stroke:#21cb21;stroke-width:10;stroke-linecap:butt;stroke-linejoin:miter;stroke-miterlimit:4;stroke-dasharray:none;stroke-dashoffset:0;stroke-opacity:1"
       d="m -631.8392,1148.7528 c 8.34154,-0.06 16.68309,-0.1476 25.02463,-0.309 8.34154,-0.1614 16.68309,-0.3946 25.02463,-0.7964 8.34155,-0.4019 16.68309,-0.9707 25.02463,-1.8921 8.34155,-0.9215 16.68309,-2.1953 25.02464,-4.1385 8.34154,-1.9433 16.68308,-4.5599 25.02462,-8.3233 8.34155,-3.7635 16.68309,-8.6857 25.02463,-15.3652 8.34154,-6.6795 16.68308,-15.1395 25.02463,-25.974 8.34154,-10.8344 16.68309,-24.0768 25.02462,-40.0734 8.34154,-15.9966 16.68309,-34.7837 25.02463,-56.15339 8.34155,-21.36968 16.6831,-45.34697 25.02464,-70.92824 8.34155,-25.58126 16.68309,-52.76503 25.02463,-79.74285 8.34155,-26.97782 16.68309,-53.71402 25.02463,-77.92818 8.34155,-24.21415 16.68309,-45.84326 25.02464,-62.76303 8.34154,-16.91978 16.68308,-29.06057 25.02463,-35.15073 8.34154,-6.09016 16.68308,-6.07823 25.02463,0 60.65383,90.22103 106.883,156.50085 174.216747,241.55623 96.001631,134.20449 256.873623,235.35569 378.128113,237.98209"
       title="t 3*exp(-2*t*t)"
       id="path6168-5-1" />
    <path
       inkscape:connector-curvature="0"
       style="opacity:0.98999999;fill:none;fill-opacity:1;fill-rule:evenodd;stroke:#ff0606;stroke-width:10;stroke-linecap:butt;stroke-linejoin:miter;stroke-miterlimit:4;stroke-dasharray:30, 30;stroke-dashoffset:0;stroke-opacity:1"
       d="m -633.5535,1147.9681 c 8.34154,-0.06 16.68309,-0.1476 25.02463,-0.309 8.34155,-0.1614 16.68309,-0.3946 25.02463,-0.7964 8.34155,-0.4019 16.68309,-0.9707 25.02463,-1.8921 8.34155,-0.9215 16.68309,-2.1953 25.02463,-4.1385 8.34155,-1.9433 16.68309,-4.5599 25.02463,-8.3233 8.34155,-3.7635 16.68309,-8.6857 25.02464,-15.3652 8.34154,-6.6795 16.68308,-15.1395 25.02463,-25.974 8.34154,-10.8344 16.68309,-24.0768 25.02463,-40.0734 8.34154,-15.9966 16.68309,-34.7837 25.02463,-56.15338 8.34155,-21.36968 16.68309,-45.34697 25.02463,-70.92824 8.34155,-25.58126 16.68309,-52.76503 25.02463,-79.74285 8.34155,-26.97782 16.68309,-53.71402 25.02463,-77.92818 8.34155,-24.21416 16.68309,-45.84327 25.02464,-62.76304 8.34154,-16.91978 16.68308,-29.06057 25.02463,-35.15073 8.34154,-6.09016 16.68308,-6.07823 25.02463,0 8.34154,6.07823 16.68309,18.2403 25.02463,35.15073 8.34154,16.91043 16.68309,38.55396 25.02463,62.76304 8.34154,24.20909 16.68309,50.95088 25.02463,77.92818 8.34154,26.9773 16.68309,54.15852 25.02463,79.74285 8.34155,25.58434 16.68309,49.5535 25.02463,70.92824 8.34155,21.37478 16.68309,40.15138 25.02463,56.15338 8.341547,16.0021 16.683087,29.2343 25.024627,40.0734 8.34155,10.8392 16.68309,19.2909 25.02464,25.974 8.34154,6.6831 16.68308,11.5994 25.02463,15.3652 8.34154,3.7657 16.68308,6.3786 25.024633,8.3233 8.34155,1.9446 16.6831,3.2163 25.02463,4.1385 8.34154,0.9222 16.68309,1.4899 25.02463,1.8921 8.34154,0.4022 16.68309,0.6349 25.02463,0.7964 8.34154,0.1615 16.68309,0.2492 25.02463,0.309"
       title="t 3*exp(-2*t*t)"
       id="path6168-8" />
    <path
       inkscape:connector-curvature="0"
       id="path6206-2"
       d="m -526.41063,1155.8448 c 1054.28569,0 1054.28569,0 1054.28569,0"
       style="fill:none;fill-rule:evenodd;stroke:#000000;stroke-width:5;stroke-linecap:butt;stroke-linejoin:miter;stroke-miterlimit:4;stroke-dasharray:none;stroke-opacity:1" />
    <path
       inkscape:connector-curvature="0"
       id="path6208-9"
       d="m -272.12492,736.70199 c 2.85714,554.28571 2.85714,554.28571 2.85714,554.28571"
       style="fill:none;fill-rule:evenodd;stroke:#000000;stroke-width:5;stroke-linecap:butt;stroke-linejoin:miter;stroke-miterlimit:4;stroke-dasharray:none;stroke-opacity:1" />
    <path
       sodipodi:nodetypes="cc"
       inkscape:connector-curvature="0"
       id="path6246"
       d="m 484.87322,139.18428 -192.43406,0"
       style="fill:none;fill-rule:evenodd;stroke:#0d04ff;stroke-width:10;stroke-linecap:butt;stroke-linejoin:miter;stroke-miterlimit:4;stroke-dasharray:none;stroke-opacity:1" />
    <path
       sodipodi:nodetypes="cc"
       inkscape:connector-curvature="0"
       id="path6246-3"
       d="m 484.87322,203.67163 -192.43406,0"
       style="fill:none;fill-rule:evenodd;stroke:#ff1304;stroke-width:10;stroke-linecap:butt;stroke-linejoin:miter;stroke-miterlimit:4;stroke-dasharray:none;stroke-opacity:1" />
    <path
       sodipodi:nodetypes="cc"
       inkscape:connector-curvature="0"
       id="path6246-3-9"
       d="m 484.87322,942.65657 -192.43406,0"
       style="fill:none;fill-rule:evenodd;stroke:#f92507;stroke-width:10;stroke-linecap:butt;stroke-linejoin:miter;stroke-miterlimit:4;stroke-dasharray:40, 10;stroke-dashoffset:0;stroke-opacity:1" />
    <path
       sodipodi:nodetypes="cc"
       inkscape:connector-curvature="0"
       id="path6246-3-0"
       d="m 484.87322,856.39261 -192.43406,0"
       style="fill:none;fill-rule:evenodd;stroke:#1dd231;stroke-width:10;stroke-linecap:butt;stroke-linejoin:miter;stroke-miterlimit:4;stroke-dasharray:none;stroke-opacity:1" />
    <flowRoot
       style="font-style:normal;font-weight:normal;font-size:25px;line-height:125%;font-family:Sans;letter-spacing:0px;word-spacing:0px;fill:#000000;fill-opacity:1;stroke:none;stroke-width:1px;stroke-linecap:butt;stroke-linejoin:miter;stroke-opacity:1"
       id="flowRoot6312"
       xml:space="preserve"><flowRegion
         id="flowRegion6314"><rect
           y="84.636047"
           x="531.34021"
           height="98.994949"
           width="161.6244"
           id="rect6316" /></flowRegion><flowPara
         id="flowPara6318" /></flowRoot>    <g
       ns0:text="$F_0$"
       ns0:preamble="/home/raphael/Travail/These/LocalDir/Shared/Rapports/2017/th\xc3\xa8se/img/header.ini"
       transform="matrix(7.8807048,0,0,7.8807048,53.796876,-297.74037)"
       id="g6498">
      <defs
         id="defs6500">
        <g
           id="g6502">
          <symbol
             overflow="visible"
             id="textext-ec54a2d3-0"
             style="overflow:visible">
            <path
               style="stroke:none"
               d=""
               id="path6505"
               inkscape:connector-curvature="0" />
          </symbol>
          <symbol
             overflow="visible"
             id="textext-ec54a2d3-1"
             style="overflow:visible">
            <path
               style="stroke:none"
               d="m 3.015625,-3.234375 0.96875,0 c 0.75,0 0.828125,0.15625 0.828125,0.4375 0,0.078125 0,0.1875 -0.0625,0.5 C 4.71875,-2.25 4.71875,-2.21875 4.71875,-2.1875 c 0,0.078125 0.0625,0.109375 0.109375,0.109375 0.109375,0 0.109375,-0.03125 0.15625,-0.203125 L 5.53125,-4.453125 C 5.5625,-4.5625 5.5625,-4.578125 5.5625,-4.609375 5.5625,-4.625 5.546875,-4.71875 5.4375,-4.71875 5.34375,-4.71875 5.328125,-4.671875 5.296875,-4.5 5.078125,-3.734375 4.859375,-3.546875 4,-3.546875 l -0.90625,0 0.640625,-2.53125 C 3.828125,-6.4375 3.84375,-6.46875 4.28125,-6.46875 l 1.3125,0 c 1.21875,0 1.453125,0.328125 1.453125,1.09375 0,0.234375 0,0.265625 -0.03125,0.546875 C 7,-4.703125 7,-4.6875 7,-4.65625 c 0,0.046875 0.03125,0.125 0.125,0.125 0.109375,0 0.109375,-0.0625 0.125,-0.25 L 7.453125,-6.515625 C 7.484375,-6.78125 7.4375,-6.78125 7.1875,-6.78125 l -4.890625,0 c -0.1875,0 -0.296875,0 -0.296875,0.203125 0,0.109375 0.09375,0.109375 0.28125,0.109375 0.375,0 0.65625,0 0.65625,0.171875 0,0.046875 0,0.0625 -0.0625,0.25 L 1.5625,-0.78125 c -0.09375,0.390625 -0.109375,0.46875 -0.90625,0.46875 -0.171875,0 -0.28125,0 -0.28125,0.1875 C 0.375,0 0.5,0 0.53125,0 0.8125,0 1.5625,-0.03125 1.84375,-0.03125 2.171875,-0.03125 3,0 3.328125,0 3.421875,0 3.53125,0 3.53125,-0.1875 3.53125,-0.265625 3.484375,-0.296875 3.484375,-0.296875 3.453125,-0.3125 3.421875,-0.3125 3.203125,-0.3125 c -0.21875,0 -0.265625,0 -0.515625,-0.015625 -0.296875,-0.03125 -0.328125,-0.078125 -0.328125,-0.203125 0,-0.015625 0,-0.078125 0.046875,-0.21875 z m 0,0"
               id="path6508"
               inkscape:connector-curvature="0" />
          </symbol>
          <symbol
             overflow="visible"
             id="textext-ec54a2d3-2"
             style="overflow:visible">
            <path
               style="stroke:none"
               d=""
               id="path6511"
               inkscape:connector-curvature="0" />
          </symbol>
          <symbol
             overflow="visible"
             id="textext-ec54a2d3-3"
             style="overflow:visible">
            <path
               style="stroke:none"
               d="M 3.59375,-2.21875 C 3.59375,-2.984375 3.5,-3.546875 3.1875,-4.03125 2.96875,-4.34375 2.53125,-4.625 1.984375,-4.625 c -1.625,0 -1.625,1.90625 -1.625,2.40625 0,0.5 0,2.359375 1.625,2.359375 1.609375,0 1.609375,-1.859375 1.609375,-2.359375 z M 1.984375,-0.0625 c -0.328125,0 -0.75,-0.1875 -0.890625,-0.75 C 1,-1.21875 1,-1.796875 1,-2.3125 1,-2.828125 1,-3.359375 1.09375,-3.734375 1.25,-4.28125 1.6875,-4.4375 1.984375,-4.4375 c 0.375,0 0.734375,0.234375 0.859375,0.640625 0.109375,0.375 0.125,0.875 0.125,1.484375 0,0.515625 0,1.03125 -0.09375,1.46875 -0.140625,0.640625 -0.609375,0.78125 -0.890625,0.78125 z m 0,0"
               id="path6514"
               inkscape:connector-curvature="0" />
          </symbol>
        </g>
      </defs>
      <g
         id="textext-ec54a2d3-4">
        <g
           style="fill:#000000;fill-opacity:1"
           id="g6517">
          <use
             xlink:href="#textext-ec54a2d3-1"
             x="56.693001"
             y="66.655998"
             id="use6519"
             width="100%"
             height="100%" />
        </g>
        <g
           style="fill:#000000;fill-opacity:1"
           id="g6521">
          <use
             xlink:href="#textext-ec54a2d3-3"
             x="63.098999"
             y="68.150002"
             id="use6523"
             width="100%"
             height="100%" />
        </g>
      </g>
    </g>
    <g
       id="g6613"
       transform="matrix(7.8156436,0,0,7.8156436,58.685201,-371.0168)"
       ns0:preamble="/home/raphael/Travail/These/LocalDir/Shared/Rapports/2017/th\xc3\xa8se/img/header.ini"
       ns0:text="$F_1$">
      <defs
         id="defs6615">
        <g
           id="g6617">
          <symbol
             id="textext-3e36ce84-0"
             overflow="visible"
             style="overflow:visible">
            <path
               id="path6620"
               d=""
               style="stroke:none"
               inkscape:connector-curvature="0" />
          </symbol>
          <symbol
             id="textext-3e36ce84-1"
             overflow="visible"
             style="overflow:visible">
            <path
               id="path6623"
               d="m 3.015625,-3.234375 0.96875,0 c 0.75,0 0.828125,0.15625 0.828125,0.4375 0,0.078125 0,0.1875 -0.0625,0.5 C 4.71875,-2.25 4.71875,-2.21875 4.71875,-2.1875 c 0,0.078125 0.0625,0.109375 0.109375,0.109375 0.109375,0 0.109375,-0.03125 0.15625,-0.203125 L 5.53125,-4.453125 C 5.5625,-4.5625 5.5625,-4.578125 5.5625,-4.609375 5.5625,-4.625 5.546875,-4.71875 5.4375,-4.71875 5.34375,-4.71875 5.328125,-4.671875 5.296875,-4.5 5.078125,-3.734375 4.859375,-3.546875 4,-3.546875 l -0.90625,0 0.640625,-2.53125 C 3.828125,-6.4375 3.84375,-6.46875 4.28125,-6.46875 l 1.3125,0 c 1.21875,0 1.453125,0.328125 1.453125,1.09375 0,0.234375 0,0.265625 -0.03125,0.546875 C 7,-4.703125 7,-4.6875 7,-4.65625 c 0,0.046875 0.03125,0.125 0.125,0.125 0.109375,0 0.109375,-0.0625 0.125,-0.25 L 7.453125,-6.515625 C 7.484375,-6.78125 7.4375,-6.78125 7.1875,-6.78125 l -4.890625,0 c -0.1875,0 -0.296875,0 -0.296875,0.203125 0,0.109375 0.09375,0.109375 0.28125,0.109375 0.375,0 0.65625,0 0.65625,0.171875 0,0.046875 0,0.0625 -0.0625,0.25 L 1.5625,-0.78125 c -0.09375,0.390625 -0.109375,0.46875 -0.90625,0.46875 -0.171875,0 -0.28125,0 -0.28125,0.1875 C 0.375,0 0.5,0 0.53125,0 0.8125,0 1.5625,-0.03125 1.84375,-0.03125 2.171875,-0.03125 3,0 3.328125,0 3.421875,0 3.53125,0 3.53125,-0.1875 3.53125,-0.265625 3.484375,-0.296875 3.484375,-0.296875 3.453125,-0.3125 3.421875,-0.3125 3.203125,-0.3125 c -0.21875,0 -0.265625,0 -0.515625,-0.015625 -0.296875,-0.03125 -0.328125,-0.078125 -0.328125,-0.203125 0,-0.015625 0,-0.078125 0.046875,-0.21875 z m 0,0"
               style="stroke:none"
               inkscape:connector-curvature="0" />
          </symbol>
          <symbol
             id="textext-3e36ce84-2"
             overflow="visible"
             style="overflow:visible">
            <path
               id="path6626"
               d=""
               style="stroke:none"
               inkscape:connector-curvature="0" />
          </symbol>
          <symbol
             id="textext-3e36ce84-3"
             overflow="visible"
             style="overflow:visible">
            <path
               id="path6629"
               d="m 2.328125,-4.4375 c 0,-0.1875 0,-0.1875 -0.203125,-0.1875 -0.453125,0.4375 -1.078125,0.4375 -1.359375,0.4375 l 0,0.25 c 0.15625,0 0.625,0 1,-0.1875 l 0,3.546875 c 0,0.234375 0,0.328125 -0.6875,0.328125 l -0.265625,0 0,0.25 c 0.125,0 0.984375,-0.03125 1.234375,-0.03125 0.21875,0 1.09375,0.03125 1.25,0.03125 l 0,-0.25 -0.265625,0 c -0.703125,0 -0.703125,-0.09375 -0.703125,-0.328125 z m 0,0"
               style="stroke:none"
               inkscape:connector-curvature="0" />
          </symbol>
        </g>
      </defs>
      <g
         id="textext-3e36ce84-4">
        <g
           id="g6632"
           style="fill:#000000;fill-opacity:1">
          <use
             id="use6634"
             y="66.655998"
             x="56.693001"
             xlink:href="#textext-3e36ce84-1"
             width="100%"
             height="100%" />
        </g>
        <g
           id="g6636"
           style="fill:#000000;fill-opacity:1">
          <use
             id="use6638"
             y="68.150002"
             x="63.098999"
             xlink:href="#textext-3e36ce84-3"
             width="100%"
             height="100%" />
        </g>
      </g>
    </g>
    <g
       ns0:text="$F$"
       ns0:preamble="/home/raphael/Travail/These/LocalDir/Shared/Rapports/2017/th\xc3\xa8se/img/header.ini"
       transform="matrix(7.8807048,0,0,7.8807048,55.801101,353.39617)"
       id="g6880">
      <defs
         id="defs6882">
        <g
           id="g6884">
          <symbol
             overflow="visible"
             id="textext-7c79a6eb-0"
             style="overflow:visible">
            <path
               style="stroke:none"
               d=""
               id="path6887"
               inkscape:connector-curvature="0" />
          </symbol>
          <symbol
             overflow="visible"
             id="textext-7c79a6eb-1"
             style="overflow:visible">
            <path
               style="stroke:none"
               d="m 3.015625,-3.234375 0.96875,0 c 0.75,0 0.828125,0.15625 0.828125,0.4375 0,0.078125 0,0.1875 -0.0625,0.5 C 4.71875,-2.25 4.71875,-2.21875 4.71875,-2.1875 c 0,0.078125 0.0625,0.109375 0.109375,0.109375 0.109375,0 0.109375,-0.03125 0.15625,-0.203125 L 5.53125,-4.453125 C 5.5625,-4.5625 5.5625,-4.578125 5.5625,-4.609375 5.5625,-4.625 5.546875,-4.71875 5.4375,-4.71875 5.34375,-4.71875 5.328125,-4.671875 5.296875,-4.5 5.078125,-3.734375 4.859375,-3.546875 4,-3.546875 l -0.90625,0 0.640625,-2.53125 C 3.828125,-6.4375 3.84375,-6.46875 4.28125,-6.46875 l 1.3125,0 c 1.21875,0 1.453125,0.328125 1.453125,1.09375 0,0.234375 0,0.265625 -0.03125,0.546875 C 7,-4.703125 7,-4.6875 7,-4.65625 c 0,0.046875 0.03125,0.125 0.125,0.125 0.109375,0 0.109375,-0.0625 0.125,-0.25 L 7.453125,-6.515625 C 7.484375,-6.78125 7.4375,-6.78125 7.1875,-6.78125 l -4.890625,0 c -0.1875,0 -0.296875,0 -0.296875,0.203125 0,0.109375 0.09375,0.109375 0.28125,0.109375 0.375,0 0.65625,0 0.65625,0.171875 0,0.046875 0,0.0625 -0.0625,0.25 L 1.5625,-0.78125 c -0.09375,0.390625 -0.109375,0.46875 -0.90625,0.46875 -0.171875,0 -0.28125,0 -0.28125,0.1875 C 0.375,0 0.5,0 0.53125,0 0.8125,0 1.5625,-0.03125 1.84375,-0.03125 2.171875,-0.03125 3,0 3.328125,0 3.421875,0 3.53125,0 3.53125,-0.1875 3.53125,-0.265625 3.484375,-0.296875 3.484375,-0.296875 3.453125,-0.3125 3.421875,-0.3125 3.203125,-0.3125 c -0.21875,0 -0.265625,0 -0.515625,-0.015625 -0.296875,-0.03125 -0.328125,-0.078125 -0.328125,-0.203125 0,-0.015625 0,-0.078125 0.046875,-0.21875 z m 0,0"
               id="path6890"
               inkscape:connector-curvature="0" />
          </symbol>
        </g>
      </defs>
      <g
         id="textext-7c79a6eb-2">
        <g
           style="fill:#000000;fill-opacity:1"
           id="g6893">
          <use
             xlink:href="#textext-7c79a6eb-1"
             x="56.693001"
             y="66.655998"
             id="use6895"
             width="100%"
             height="100%" />
        </g>
      </g>
    </g>
    <g
       id="g7037"
       transform="matrix(7.8807048,0,0,7.8807048,55.801101,448.02563)"
       ns0:preamble="/home/raphael/Travail/These/LocalDir/Shared/Rapports/2017/th\xc3\xa8se/img/header.ini"
       ns0:text="$\\widehat{F}_0$">
      <defs
         id="defs7039">
        <g
           id="g7041">
          <symbol
             id="textext-872ed3fe-0"
             overflow="visible"
             style="overflow:visible">
            <path
               id="path7044"
               d=""
               style="stroke:none"
               inkscape:connector-curvature="0" />
          </symbol>
          <symbol
             id="textext-872ed3fe-1"
             overflow="visible"
             style="overflow:visible">
            <path
               id="path7047"
               d="m 2.765625,-6.828125 2.703125,1.21875 0.125,-0.21875 -2.828125,-1.59375 -2.8125,1.59375 0.109375,0.21875 z m 0,0"
               style="stroke:none"
               inkscape:connector-curvature="0" />
          </symbol>
          <symbol
             id="textext-872ed3fe-2"
             overflow="visible"
             style="overflow:visible">
            <path
               id="path7050"
               d=""
               style="stroke:none"
               inkscape:connector-curvature="0" />
          </symbol>
          <symbol
             id="textext-872ed3fe-3"
             overflow="visible"
             style="overflow:visible">
            <path
               id="path7053"
               d="m 3.015625,-3.234375 0.96875,0 c 0.75,0 0.828125,0.15625 0.828125,0.4375 0,0.078125 0,0.1875 -0.0625,0.5 C 4.71875,-2.25 4.71875,-2.21875 4.71875,-2.1875 c 0,0.078125 0.0625,0.109375 0.109375,0.109375 0.109375,0 0.109375,-0.03125 0.15625,-0.203125 L 5.53125,-4.453125 C 5.5625,-4.5625 5.5625,-4.578125 5.5625,-4.609375 5.5625,-4.625 5.546875,-4.71875 5.4375,-4.71875 5.34375,-4.71875 5.328125,-4.671875 5.296875,-4.5 5.078125,-3.734375 4.859375,-3.546875 4,-3.546875 l -0.90625,0 0.640625,-2.53125 C 3.828125,-6.4375 3.84375,-6.46875 4.28125,-6.46875 l 1.3125,0 c 1.21875,0 1.453125,0.328125 1.453125,1.09375 0,0.234375 0,0.265625 -0.03125,0.546875 C 7,-4.703125 7,-4.6875 7,-4.65625 c 0,0.046875 0.03125,0.125 0.125,0.125 0.109375,0 0.109375,-0.0625 0.125,-0.25 L 7.453125,-6.515625 C 7.484375,-6.78125 7.4375,-6.78125 7.1875,-6.78125 l -4.890625,0 c -0.1875,0 -0.296875,0 -0.296875,0.203125 0,0.109375 0.09375,0.109375 0.28125,0.109375 0.375,0 0.65625,0 0.65625,0.171875 0,0.046875 0,0.0625 -0.0625,0.25 L 1.5625,-0.78125 c -0.09375,0.390625 -0.109375,0.46875 -0.90625,0.46875 -0.171875,0 -0.28125,0 -0.28125,0.1875 C 0.375,0 0.5,0 0.53125,0 0.8125,0 1.5625,-0.03125 1.84375,-0.03125 2.171875,-0.03125 3,0 3.328125,0 3.421875,0 3.53125,0 3.53125,-0.1875 3.53125,-0.265625 3.484375,-0.296875 3.484375,-0.296875 3.453125,-0.3125 3.421875,-0.3125 3.203125,-0.3125 c -0.21875,0 -0.265625,0 -0.515625,-0.015625 -0.296875,-0.03125 -0.328125,-0.078125 -0.328125,-0.203125 0,-0.015625 0,-0.078125 0.046875,-0.21875 z m 0,0"
               style="stroke:none"
               inkscape:connector-curvature="0" />
          </symbol>
          <symbol
             id="textext-872ed3fe-4"
             overflow="visible"
             style="overflow:visible">
            <path
               id="path7056"
               d=""
               style="stroke:none"
               inkscape:connector-curvature="0" />
          </symbol>
          <symbol
             id="textext-872ed3fe-5"
             overflow="visible"
             style="overflow:visible">
            <path
               id="path7059"
               d="M 3.59375,-2.21875 C 3.59375,-2.984375 3.5,-3.546875 3.1875,-4.03125 2.96875,-4.34375 2.53125,-4.625 1.984375,-4.625 c -1.625,0 -1.625,1.90625 -1.625,2.40625 0,0.5 0,2.359375 1.625,2.359375 1.609375,0 1.609375,-1.859375 1.609375,-2.359375 z M 1.984375,-0.0625 c -0.328125,0 -0.75,-0.1875 -0.890625,-0.75 C 1,-1.21875 1,-1.796875 1,-2.3125 1,-2.828125 1,-3.359375 1.09375,-3.734375 1.25,-4.28125 1.6875,-4.4375 1.984375,-4.4375 c 0.375,0 0.734375,0.234375 0.859375,0.640625 0.109375,0.375 0.125,0.875 0.125,1.484375 0,0.515625 0,1.03125 -0.09375,1.46875 -0.140625,0.640625 -0.609375,0.78125 -0.890625,0.78125 z m 0,0"
               style="stroke:none"
               inkscape:connector-curvature="0" />
          </symbol>
        </g>
      </defs>
      <g
         id="textext-872ed3fe-6">
        <g
           id="g7062"
           style="fill:#000000;fill-opacity:1">
          <use
             id="use7064"
             y="64.137001"
             x="58.651001"
             xlink:href="#textext-872ed3fe-1"
             width="100%"
             height="100%" />
        </g>
        <g
           id="g7066"
           style="fill:#000000;fill-opacity:1">
          <use
             id="use7068"
             y="66.655998"
             x="56.693001"
             xlink:href="#textext-872ed3fe-3"
             width="100%"
             height="100%" />
        </g>
        <g
           id="g7070"
           style="fill:#000000;fill-opacity:1">
          <use
             id="use7072"
             y="68.150002"
             x="63.098999"
             xlink:href="#textext-872ed3fe-5"
             width="100%"
             height="100%" />
        </g>
      </g>
    </g>
  </g>
  <path
     inkscape:connector-curvature="0"
     id="path6206"
     d="m 124.89525,514.69475 c 1054.28575,0 1054.28575,0 1054.28575,0"
     style="fill:none;fill-rule:evenodd;stroke:#000000;stroke-width:5;stroke-linecap:butt;stroke-linejoin:miter;stroke-miterlimit:4;stroke-dasharray:none;stroke-opacity:1" />
  <path
     inkscape:connector-curvature="0"
     id="path6208"
     d="M 379.18096,95.551891 C 382.0381,649.83765 382.0381,649.83765 382.0381,649.83765"
     style="fill:none;fill-rule:evenodd;stroke:#000000;stroke-width:5;stroke-linecap:butt;stroke-linejoin:miter;stroke-miterlimit:4;stroke-dasharray:none;stroke-opacity:1" />
</svg>
